<svg xmlns="http://www.w3.org/2000/svg">
<defs>
<font id="JansonTextW04-55Roman" horiz-adv-x="519" >
  <font-face 
    font-family="JansonTextW04-55Roman"
    font-weight="400"
    font-stretch="normal"
    units-per-em="1000"
    panose-1="2 3 6 2 6 5 6 2 3 3"
    ascent="755"
    descent="-245"
    x-height="433"
    cap-height="713"
    bbox="-159 -286 1136 981"
    underline-thickness="50"
    underline-position="-50"
    unicode-range="U+000D-FB04"
  />
<missing-glyph horiz-adv-x="485" 
d="M0 680h485v-680h-485v680zM438 47v585h-391v-585h391zM211 238q0 25 2.5 43t9 32.5t17.5 27.5t28 28q30 28 38 45.5t8 34.5q0 34 -21.5 57t-50.5 23t-50.5 -20.5t-26.5 -69.5l-24 4l-24 4q7 69 42 99.5t86 30.5q52 0 85 -33.5t33 -90.5q0 -31 -12 -55.5t-48 -57.5
q-19 -17 -28.5 -28t-13.5 -22.5t-4 -27v-40.5h-46v16zM210 174h53v-63h-53v63z" />
    <glyph glyph-name=".notdef" horiz-adv-x="485" 
d="M0 680h485v-680h-485v680zM438 47v585h-391v-585h391zM211 238q0 25 2.5 43t9 32.5t17.5 27.5t28 28q30 28 38 45.5t8 34.5q0 34 -21.5 57t-50.5 23t-50.5 -20.5t-26.5 -69.5l-24 4l-24 4q7 69 42 99.5t86 30.5q52 0 85 -33.5t33 -90.5q0 -31 -12 -55.5t-48 -57.5
q-19 -17 -28.5 -28t-13.5 -22.5t-4 -27v-40.5h-46v16zM210 174h53v-63h-53v63z" />
    <glyph glyph-name="glyph1" horiz-adv-x="500" 
 />
    <glyph glyph-name="glyph1" horiz-adv-x="500" 
 />
    <glyph glyph-name="uni000D" unicode="&#xd;" horiz-adv-x="0" 
 />
    <glyph glyph-name="space" unicode=" " horiz-adv-x="259" 
 />
    <glyph glyph-name="exclam" unicode="!" horiz-adv-x="296" 
d="M148 243q-6 0 -11 4t-5 24q0 30 -2 72t-5.5 89.5t-8 96.5t-8.5 92q-2 17 -5.5 34.5t-3.5 34.5t16 20t33 3q20 0 36.5 -3t16.5 -20t-3.5 -34.5t-5.5 -34.5q-5 -43 -9.5 -92t-9 -96.5t-7 -89.5t-2.5 -72q0 -20 -5 -24t-11 -4zM92 48q0 26 18 41t38 15t38 -15t18 -41
t-18 -41t-38 -15t-38 15t-18 41z" />
    <glyph glyph-name="quotedbl" unicode="&#x22;" horiz-adv-x="444" 
d="M302 483q-4 25 -9.5 55t-11 57.5t-9 50.5t-3.5 34q0 15 12.5 29t30.5 14q19 0 31.5 -14t12.5 -29q0 -11 -4 -34t-9 -50.5t-10.5 -57.5t-9.5 -55h-21zM121 483q-4 25 -9.5 55t-11 57.5t-9 50.5t-3.5 34q0 15 12.5 29t30.5 14q19 0 31.5 -14t12.5 -29q0 -11 -4 -34
t-9 -50.5t-10.5 -57.5t-9.5 -55h-21z" />
    <glyph glyph-name="numbersign" unicode="#" 
d="M110 219h-105v65h115l20 130h-107v65h117l32 211h75l-32 -211h118l32 211h75l-32 -211h96v-65h-106l-20 -130h98v-65h-108l-33 -219h-75l33 219h-118l-34 -219h-75zM313 284l20 130h-118l-20 -130h118z" />
    <glyph glyph-name="dollar" unicode="$" 
d="M53 12q-5 80 -9.5 114t-4.5 38q0 10 20 10q6 0 7.5 -2.5t3.5 -10.5q8 -29 21.5 -55t33 -46t46.5 -33t62 -15v304q-42 22 -75.5 42t-57 42.5t-36 51t-12.5 67.5q0 36 10.5 69.5t33 60.5t56.5 45.5t81 24.5v45q0 12 4.5 14t12.5 2q11 0 16 -1t5 -8q0 -8 -1 -16t-1 -33
q55 0 87.5 -9t49.5 -9q8 0 14.5 9t12.5 9q9 0 9 -13q0 -29 2.5 -57.5t5 -51t5 -37t2.5 -17.5q0 -10 -10 -10q-8 0 -11.5 0.5t-5.5 5.5q-11 29 -24 56.5t-32 49t-45 34.5t-61 14v-278q39 -22 77 -41.5t68 -44.5t48.5 -57.5t18.5 -80.5q0 -51 -16 -88.5t-44.5 -63t-67.5 -39
t-84 -17.5v-50q0 -8 -3.5 -9.5t-14.5 -1.5q-7 0 -12.5 1t-5.5 7v16t0.5 17t0.5 14v6q-52 0 -95.5 4.5t-75.5 9.5q-5 1 -6.5 2.5t-2.5 9.5zM233 692q-42 -9 -71 -41t-29 -82q0 -25 9 -46t23.5 -37.5t32.5 -28.5t35 -20v255zM268 12q60 6 88.5 43.5t28.5 94.5q0 19 -3 36.5
t-15 35t-35.5 35.5t-63.5 39v-284z" />
    <glyph glyph-name="percent" unicode="%" horiz-adv-x="944" 
d="M247 367q-35 0 -65 12t-52 34t-35 53t-13 68t13 68t35 53t52 34t65 12q34 0 64.5 -12t53.5 -34t36 -53t13 -68t-13 -68t-36 -53t-53.5 -34t-64.5 -12zM642 690h55l-430 -690h-55zM248 393q28 0 47.5 14t30.5 35.5t16 46t5 45.5t-5 45.5t-16 46t-30.5 35.5t-47.5 14
q-29 0 -48 -14t-30 -35.5t-16 -46t-5 -45.5t5 -45.5t16 -46t30 -35.5t48 -14zM499 161q0 37 13 68t35 53t52 34t65 12q34 0 64.5 -12t53.5 -34t36 -53t13 -68t-13 -68t-36 -53t-53.5 -34t-64.5 -12q-35 0 -65 12t-52 34t-35 53t-13 68zM566 161q0 -21 5 -45.5t16 -46
t30 -35.5t48 -14q28 0 47.5 14t30.5 35.5t16 46t5 45.5t-5 45.5t-16 46t-30.5 35.5t-47.5 14q-29 0 -48 -14t-30 -35.5t-16 -46t-5 -45.5z" />
    <glyph glyph-name="ampersand" unicode="&#x26;" horiz-adv-x="833" 
d="M63 164q0 38 16 72.5t40.5 64.5t55 55t60.5 44q-13 15 -26 30.5t-23.5 32.5t-17 35.5t-6.5 39.5q0 32 12 60t33 48.5t49 32t60 11.5q28 0 54 -7.5t45.5 -22.5t31 -38t11.5 -55q0 -26 -13 -47.5t-32.5 -39t-42.5 -31.5t-44 -24q48 -51 96.5 -100t90.5 -105q7 11 20 28.5
t25.5 36.5t21.5 37.5t9 32.5q0 24 -18.5 33t-71.5 13q-20 2 -23.5 6t-3.5 9t2 10t12 5q3 0 9 -1t21.5 -1.5t44.5 -1.5t78 -1q36 0 57.5 1t34 1.5t18 1.5t8.5 1q9 0 11.5 -4t2.5 -15q0 -3 -4 -5.5t-10 -3.5t-12.5 -1.5t-10.5 -0.5q-2 0 -9.5 -1t-16.5 -3t-18.5 -5t-16.5 -6
q-12 -6 -24.5 -18.5t-28.5 -35t-38.5 -55.5t-53.5 -79q17 -20 34 -48t36 -54.5t42.5 -45t54.5 -18.5q32 0 50 9.5t23 9.5q2 0 6 -5.5t4 -10.5q0 -1 -6 -7q-6 -5 -18.5 -12t-29.5 -13t-36 -10.5t-38 -4.5q-38 0 -62.5 12t-43 31.5t-34 44t-35.5 50.5q-43 -61 -100.5 -99
t-134.5 -38q-39 0 -71.5 13t-56 36t-36.5 55t-13 71zM308 443q17 10 34.5 22.5t31.5 27.5t22.5 33t8.5 40q0 33 -12.5 52t-28 28t-30.5 11.5t-20 2.5q-18 0 -33.5 -6.5t-27.5 -17.5t-19 -26t-7 -33t8.5 -36.5t21 -36t26.5 -33.5t25 -28zM144 206q0 -32 13 -61.5t35 -51.5
t51.5 -35t61.5 -13q27 0 49 8.5t40.5 22.5t33.5 32.5t29 39.5q-45 64 -98.5 120t-106.5 113q-48 -32 -78 -73.5t-30 -101.5z" />
    <glyph glyph-name="quotesingle" unicode="'" horiz-adv-x="259" 
d="M119 483q-4 25 -9.5 55t-11 57.5t-9 50.5t-3.5 34q0 15 12.5 29t30.5 14q19 0 31.5 -14t12.5 -29q0 -11 -4 -34t-9 -50.5t-10.5 -57.5t-9.5 -55h-21v0z" />
    <glyph glyph-name="parenleft" unicode="(" horiz-adv-x="315" 
d="M45 258q0 90 27 164t60 127t61.5 83t31.5 33q35 32 49.5 46.5t21.5 14.5q17 0 17 -16q0 -2 -14 -15t-34.5 -37.5t-45 -61.5t-45 -86.5t-34.5 -112.5t-14 -139t14 -139t34.5 -112.5t45 -86.5t45 -61.5t34.5 -37.5t14 -15q0 -16 -17 -16q-7 0 -21.5 14.5t-49.5 46.5
q-3 3 -31.5 33t-61.5 83t-60 127t-27 164z" />
    <glyph glyph-name="parenright" unicode=")" horiz-adv-x="315" 
d="M90 -149q-35 -32 -49.5 -46.5t-21.5 -14.5q-17 0 -17 16q0 2 14 15t34.5 37.5t45 61.5t45 86.5t34.5 112t14 139.5q0 76 -14 139t-34.5 112.5t-45 86.5t-45 61.5t-34.5 37.5t-14 15q0 16 17 16q7 0 21.5 -14.5t49.5 -46.5q3 -3 31.5 -33t61.5 -83t60 -127t27 -164
t-27 -164t-60 -127t-61.5 -83t-31.5 -33z" />
    <glyph glyph-name="asterisk" unicode="*" horiz-adv-x="389" 
d="M96 411q-11 0 -18 7.5t-7 18.5q0 20 11.5 36.5t28 30.5t35 25t32.5 21v-2l-2 2q-12 -1 -36.5 1t-48.5 8.5t-42 18.5t-18 32q0 14 11.5 19t22.5 5q18 0 34.5 -7t31.5 -17.5t28 -23.5t25 -24l2 2q-5 22 -12 44.5t-7 46.5q0 8 2 19.5t6 22.5t11 18.5t18 7.5q10 0 16 -6
t9.5 -14.5t4.5 -18.5t1 -17q0 -12 -3.5 -25.5t-8.5 -27.5t-10.5 -27t-9.5 -23l2 -2q9 7 21.5 16.5t27 18t29.5 14.5t27 6q6 0 14 -1t16 -4t13.5 -8t5.5 -13q0 -14 -10 -23t-24 -15t-28.5 -8.5t-24.5 -2.5q-17 0 -33.5 1t-32.5 2l-2 -2q13 -11 29 -22.5t29.5 -25t22.5 -30
t9 -35.5q0 -11 -6 -19t-17 -8q-19 0 -33.5 15.5t-24 37t-15 44t-6.5 37.5h-2q-6 -14 -14.5 -35t-20 -41.5t-26.5 -35t-33 -14.5z" />
    <glyph glyph-name="plus" unicode="+" 
d="M44 248h183v183h65v-183h183v-65h-183v-183h-65v183h-183v65z" />
    <glyph glyph-name="comma" unicode="," horiz-adv-x="259" 
d="M57 53q0 24 18.5 41t41.5 17q21 0 36.5 -8.5t25.5 -22.5t14.5 -32t4.5 -37q0 -90 -65 -155q-4 -4 -12.5 -11.5t-18.5 -14t-20 -11t-16 -3.5q-10 1 -10 13q0 2 6 8t13.5 12.5t14.5 12t9 7.5q9 7 17 19.5t14 26t10 27.5t4 25q0 6 -1.5 19t-10.5 13q-7 0 -11.5 -2.5
t-13.5 -2.5q-29 0 -39.5 19.5t-10.5 39.5z" />
    <glyph glyph-name="hyphen" unicode="-" horiz-adv-x="389" 
d="M59 198q-10 0 -11.5 9t-1.5 23q0 10 1.5 21.5t10.5 11.5h272q10 0 11.5 -8.5t1.5 -28.5q0 -17 -2 -22.5t-13 -5.5h-269v0z" />
    <glyph glyph-name="period" unicode="." horiz-adv-x="259" 
d="M69 53q0 26 17 43.5t44 17.5t44 -17.5t17 -43.5t-17 -43.5t-44 -17.5t-44 17.5t-17 43.5z" />
    <glyph glyph-name="slash" unicode="/" horiz-adv-x="370" 
d="M307 709h70l-314 -709h-70z" />
    <glyph glyph-name="zero" unicode="0" 
d="M259 -9q-63 0 -105.5 34.5t-68 87.5t-36 115t-10.5 118q0 37 4.5 77.5t15 80t27 75.5t41 63t57.5 43t75 16t75 -16t57.5 -43t41 -63t27 -75.5t15 -80t4.5 -77.5q0 -56 -10.5 -118t-36 -115t-68 -87.5t-105.5 -34.5zM259 17q31 0 52.5 20t36 51t22.5 69t12 74.5t5 67
t1 47.5q0 16 -1 47t-5 67.5t-12 74.5t-22.5 69t-36 51t-52.5 20t-52.5 -20t-36 -51t-22.5 -69t-12 -74.5t-5 -67.5t-1 -47t1 -47t5 -67.5t12 -74.5t22.5 -69t36 -51t52.5 -20z" />
    <glyph glyph-name="one" unicode="1" 
d="M119 10q0 11 5 14.5t27 3.5q25 0 38 4t19 16t7 35t1 62v396q0 19 -2 30.5t-10.5 17.5t-25.5 7.5t-47 1.5q-7 0 -9.5 5t-2.5 10q0 6 2.5 8t5.5 3q42 8 80 22t69 43q5 5 8 8.5t9 3.5q11 0 13.5 -1t2.5 -6q0 -9 -1 -28.5t-2 -45.5t-2 -57t-1 -63v-388q0 -31 2 -48t11 -25
t26.5 -9.5t48.5 -1.5q5 0 6.5 -5t1.5 -13q0 -7 -1 -9.5t-7 -2.5q-3 0 -11 0.5t-24 0.5t-41.5 0.5t-63.5 0.5q-30 0 -49.5 -0.5t-32.5 -0.5t-21.5 -0.5t-15.5 -0.5q-8 0 -10.5 4t-2.5 8z" />
    <glyph glyph-name="two" unicode="2" 
d="M31 0q0 10 1.5 14.5t9.5 15.5q64 79 109.5 137.5t76 101.5t48 74.5t27 58t12 51t2.5 53.5q0 41 -13 66.5t-32 39.5t-39.5 19t-35.5 5q-30 0 -51 -8t-35.5 -17.5t-23 -17.5t-11.5 -8q-2 0 -8.5 5.5t-6.5 8.5q0 2 3.5 8.5t25.5 27.5q35 32 72.5 49t85.5 17q77 0 120.5 -45
t43.5 -120q0 -51 -28.5 -104.5t-72 -110t-96 -116.5t-100.5 -124h243q13 0 21 5.5t13 12t9 12t8 5.5q3 0 7.5 -3t4.5 -7q0 -3 -2.5 -8.5t-7.5 -17t-13 -31t-20 -49.5h-347v0z" />
    <glyph glyph-name="three" unicode="3" 
d="M70 20q0 17 13 27.5t27 10.5t24.5 -5t21 -10.5t21.5 -10.5t27 -5q20 0 40 12.5t35.5 34t25.5 51.5t10 65q0 34 -12.5 62.5t-34 49.5t-51.5 34t-65 16q-7 0 -7 10q0 7 4 10q25 11 50.5 28t46 39.5t33.5 49t13 55.5q0 53 -31.5 79t-80.5 26q-23 0 -40 -6t-28.5 -13.5
t-19.5 -13.5t-13 -6t-7 6.5t-2 8.5q0 3 13.5 15.5t36.5 26t52.5 24t62.5 10.5q43 0 70 -15.5t42 -36t20.5 -40.5t5.5 -30q0 -31 -10.5 -55t-28 -43.5t-39.5 -36t-45 -32.5q32 -8 60 -25t48.5 -41t32 -54t11.5 -64q0 -47 -25 -91.5t-64 -79t-86 -55.5t-92 -21
q-10 0 -21.5 2.5t-21 7.5t-16 12.5t-6.5 16.5z" />
    <glyph glyph-name="four" unicode="4" 
d="M26 238q-8 0 -9 4t-1 22q0 17 20 53.5t50.5 81.5t68 94t73 91.5t63.5 73t41 40.5q3 2 14 2.5t16 0.5q8 0 16.5 -1t8.5 -9q0 -20 -1 -44.5t-1 -50.5v-290h112q8 0 9.5 -2.5t1.5 -9.5v-46q0 -10 -6 -10h-117v-233q0 -13 -2 -18t-10 -5h-61q-6 0 -7 3.5t-1 9.5v243h-278z
M304 306v325q-15 -16 -38 -42.5t-49 -58.5t-51.5 -65.5t-46.5 -63.5t-34 -52t-13 -31q0 -7 6 -9.5t10 -2.5h216z" />
    <glyph glyph-name="five" unicode="5" 
d="M68 20q0 18 13.5 27.5t30.5 9.5q11 0 21 -4.5t20.5 -10.5t21.5 -10.5t24 -4.5q30 0 52.5 18.5t37 45.5t22 57.5t7.5 55.5q0 53 -17 83.5t-45.5 50t-64.5 34t-75 34.5q-5 3 -5 13q0 3 7 29.5t17.5 65.5t23.5 84.5t25 85.5q2 7 19 7q26 0 69 -2.5t81 -2.5q28 0 38.5 3
t19.5 13q2 2 6 9.5t12 7.5t8 -9q0 -3 -6.5 -22t-21.5 -76q-27 -5 -43 -6t-27 -1q-49 0 -82 2t-50 2q-7 0 -11.5 -2t-9.5 -14t-11.5 -37t-18.5 -70q46 -18 88 -35.5t74.5 -43t51.5 -63t21 -94.5q1 -59 -22.5 -108.5t-61 -85t-83 -55.5t-87.5 -20q-8 0 -20 1.5t-23 6t-18.5 12
t-7.5 19.5z" />
    <glyph glyph-name="six" unicode="6" 
d="M42 228q0 37 9.5 87.5t38.5 107t82.5 116t142.5 113.5q18 11 39.5 20.5t41 17t33 11.5t15.5 4q3 0 6.5 -6t3.5 -9q0 -6 -3 -9.5t-16 -8.5q-17 -7 -47 -25t-65 -49.5t-72 -78t-69 -110.5l2 -2q7 5 19.5 9.5t25 7.5t23 4.5t15.5 1.5q49 0 88 -16.5t66 -45.5t41.5 -70
t14.5 -89q0 -50 -17 -90.5t-47.5 -69t-72 -43.5t-90.5 -15q-1 0 -17 1.5t-39 8t-49.5 21t-49.5 41t-38 66.5t-15 99zM129 203q0 -33 5.5 -66t20 -59.5t40 -43.5t64.5 -17q37 0 60.5 16.5t37.5 42.5t19.5 57.5t5.5 61.5t-4 66t-17 68t-36.5 53.5t-63.5 21.5q-41 0 -67 -19
t-40.5 -48.5t-19.5 -65t-5 -68.5z" />
    <glyph glyph-name="seven" unicode="7" 
d="M137 -11q0 7 13 39t34 80t48 109t54.5 127t54 133t47.5 127h-252q-16 0 -25 -10t-15.5 -22.5t-11.5 -22.5t-13 -10q-2 0 -8 2t-6 5q0 5 5 22t12.5 41t17.5 53.5t19 59.5q1 4 11 4q6 0 8.5 -5.5t4 -12.5t4 -12.5t9.5 -5.5h295q8 0 9 -2.5t1 -5.5q0 -2 -2.5 -9t-3.5 -10
q-60 -159 -102 -272t-71.5 -192.5t-49 -131.5t-34.5 -90q-3 -5 -8 -5q-2 0 -9 2t-15 4.5t-14.5 5.5t-6.5 5z" />
    <glyph glyph-name="eight" unicode="8" 
d="M59 162q0 30 11.5 56.5t30 49t42.5 40t49 30.5q-27 12 -50.5 28.5t-41.5 37.5t-28 47t-10 58q0 43 15 78.5t42 61t63.5 39t78.5 13.5q37 0 71.5 -9.5t61.5 -29.5t43 -50.5t16 -71.5q0 -34 -10.5 -59.5t-28.5 -45.5t-43 -34.5t-54 -26.5q27 -14 53 -30.5t46 -38t32 -48
t12 -60.5q0 -46 -17 -84t-46 -65t-67.5 -42t-81.5 -15q-38 0 -72 12t-60 34t-41.5 54t-15.5 71zM290 388q45 26 71.5 60t26.5 88q0 29 -8.5 54.5t-25 44t-40.5 29.5t-54 11q-27 0 -51 -9t-42.5 -25t-29 -38.5t-10.5 -50.5q0 -33 16 -57.5t40 -44t52.5 -34.5t54.5 -28z
M136 161q0 -27 8 -53t23 -46.5t38 -32.5t53 -12q27 0 50 10t39.5 27t26 40.5t9.5 49.5q0 39 -14.5 66.5t-37.5 47.5t-53 36t-60 31q-45 -32 -63.5 -70t-18.5 -94z" />
    <glyph glyph-name="nine" unicode="9" 
d="M125 -5q0 5 5.5 8t13.5 10q12 9 38.5 31.5t57 57.5t60.5 81.5t49 104.5h-2q-23 -17 -53 -25.5t-60 -8.5q-42 0 -77.5 16.5t-62 46t-41 70t-14.5 88.5q0 46 16.5 87.5t45.5 72t69 48.5t88 18q55 0 96.5 -21t69.5 -56t41.5 -79.5t13.5 -90.5q0 -86 -28.5 -154t-70.5 -120.5
t-88.5 -90.5t-82.5 -65q-35 -26 -54 -35t-21 -9q-3 0 -6 6t-3 9zM259 280q39 0 65 19.5t41 49t21 64.5t6 66q0 32 -6 66.5t-21.5 63.5t-41 47.5t-64.5 18.5q-38 0 -62.5 -20t-38.5 -49.5t-19 -64t-5 -64.5q0 -31 5 -65.5t19 -64t38 -48.5t63 -19z" />
    <glyph glyph-name="colon" unicode=":" horiz-adv-x="259" 
d="M130 288q-25 0 -40.5 17.5t-15.5 41.5q0 26 16 43t42 17q24 0 39 -16.5t15 -39.5q0 -24 -15 -43.5t-41 -19.5zM74 51q0 26 16 43t42 17q24 0 39 -16.5t15 -39.5q0 -24 -15 -43.5t-41 -19.5q-25 0 -40.5 17.5t-15.5 41.5z" />
    <glyph glyph-name="semicolon" unicode=";" horiz-adv-x="259" 
d="M121 288q-25 0 -40.5 17.5t-15.5 41.5q0 26 16 43t42 17q24 0 39 -16.5t15 -39.5q0 -24 -15 -43.5t-41 -19.5zM57 53q0 24 18.5 41t41.5 17q21 0 36.5 -8.5t25.5 -22.5t14.5 -32t4.5 -37q0 -90 -65 -155q-4 -4 -12.5 -11.5t-18.5 -14t-20 -11t-16 -3.5q-10 1 -10 13
q0 2 6 8t13.5 12.5t14.5 12t9 7.5q9 7 17 19.5t14 26t10 27.5t4 25q0 6 -1.5 19t-10.5 13q-7 0 -11.5 -2.5t-13.5 -2.5q-29 0 -39.5 19.5t-10.5 39.5z" />
    <glyph glyph-name="less" unicode="&#x3c;" 
d="M44 243l431 199v-64l-349 -162l349 -162v-65l-431 199v55z" />
    <glyph glyph-name="equal" unicode="=" 
d="M44 335h431v-65h-431v65zM44 168h431v-65h-431v65z" />
    <glyph glyph-name="greater" unicode="&#x3e;" 
d="M44 53l349 162l-349 162v65l431 -199v-55l-431 -199v64z" />
    <glyph glyph-name="question" unicode="?" horiz-adv-x="426" 
d="M133 181q-10 0 -12 4t-2 6v163q0 10 4.5 11.5t21.5 1.5h80q27 0 43.5 5.5t25.5 16t11.5 25.5t2.5 33q0 34 -8 58.5t-17.5 41t-19 25.5t-12.5 13q-4 5 -27 8t-50 5t-49.5 3t-25.5 1q-9 0 -14.5 4.5t-8.5 15.5t-4 31t-1 52q0 7 3.5 8.5t13.5 1.5q4 0 6.5 -5t4.5 -10.5
t5 -10.5t8 -5q35 0 61 -1t46.5 -6t35.5 -16.5t29 -32.5q18 -27 28 -59.5t15.5 -62t7 -52t1.5 -29.5q0 -36 -8 -60.5t-18.5 -39.5t-20 -22t-11.5 -8q-14 -3 -31.5 -5t-34 -3.5t-29 -3t-17.5 -4.5q-11 -6 -15 -26.5t-4 -63.5q0 -8 -14 -8zM87 48q0 26 18 41t38 15t38 -15
t18 -41t-18 -41t-38 -15t-38 15t-18 41z" />
    <glyph glyph-name="at" unicode="@" horiz-adv-x="800" 
d="M43 354q0 76 29 143.5t79.5 117.5t119 79t148.5 29q72 0 133 -18t105.5 -54.5t69.5 -90.5t25 -126q0 -53 -16.5 -102.5t-46 -88.5t-70 -62.5t-87.5 -23.5q-30 0 -47.5 6.5t-27.5 18t-13 26t-4 31.5h-2q-24 -36 -48.5 -59t-64.5 -23q-32 0 -56 13.5t-40 35t-24.5 48
t-8.5 53.5q0 43 16.5 84.5t44.5 74.5t65.5 53.5t79.5 20.5q33 0 54 -19.5t26 -53.5h2l15 64h92l-73 -292q-1 -6 -0.5 -14.5t3 -16.5t8 -13.5t15.5 -5.5q22 0 47.5 17.5t46.5 49t35 75.5t14 98q0 55 -18 100t-52 76.5t-84 48.5t-114 17q-65 0 -122 -25t-99 -68.5t-66 -101
t-24 -122.5t24 -122t66 -100.5t99 -68.5t122 -25q42 0 83 11.5t76.5 31.5t62.5 46.5t42 57.5h73q-25 -45 -60 -81.5t-78.5 -62.5t-94 -40.5t-104.5 -14.5q-80 0 -148.5 29t-119 79t-79.5 117t-29 143zM343 189q28 0 49.5 27t36.5 63.5t23 73.5t10 57q2 19 1 37t-6.5 31.5
t-15.5 21.5t-27 8q-19 0 -35 -13t-29 -34t-23.5 -47t-17.5 -52.5t-10.5 -50.5t-3.5 -40q0 -12 1 -26.5t6 -27t14.5 -20.5t26.5 -8z" />
    <glyph glyph-name="A" unicode="A" horiz-adv-x="667" 
d="M-5 -2q-7 0 -7 17q0 6 8.5 9.5t28.5 3.5q14 0 27.5 11t23.5 40q46 134 104 293t131 342q2 7 6 8t13 1q7 0 10 -1.5t7 -10.5q2 -4 16 -41.5t35 -95t47.5 -127.5t53 -139t50.5 -130.5t42 -101.5q12 -28 29.5 -38t46.5 -10q7 0 18.5 -2.5t11.5 -8.5q0 -5 -2 -12t-9 -7
q-4 0 -9 0.5t-19 0.5t-40 0.5t-71 0.5q-51 0 -79.5 -0.5t-43 -0.5t-19 -0.5t-7.5 -0.5t-4 5t-1 13t13.5 10t28.5 2q30 0 41.5 4.5t11.5 17.5q0 9 -9.5 36.5t-22.5 60.5t-25.5 64t-18.5 47h-206q-22 0 -28.5 -2.5t-12.5 -18.5q-16 -41 -26.5 -71t-17 -50.5t-9 -33t-2.5 -18.5
q0 -5 1 -11t5.5 -11.5t15 -9.5t30.5 -4q22 0 35 -1t19.5 -2.5t8 -4t1.5 -6.5q0 -9 -2 -12.5t-10 -3.5q-3 0 -8.5 0.5t-20 0.5t-40.5 0.5t-71 0.5q-23 0 -37 -0.5t-22.5 -0.5t-12.5 -0.5t-7 -0.5zM189 302q0 -8 7 -9.5t31 -1.5h172l-106 293h-2q-2 0 -10 -20t-19.5 -50
t-24 -65.5t-23.5 -67t-18 -54t-7 -25.5z" />
    <glyph glyph-name="B" unicode="B" horiz-adv-x="648" 
d="M35 11q0 8 3.5 12.5t24.5 4.5q24 0 38 3t21 9t9.5 14t2.5 18q1 19 1.5 40l1 42t0.5 40.5v35.5v245v45.5t-0.5 34t-1 30t-0.5 31.5q0 22 -4 35.5t-14 20.5t-27.5 9t-44.5 2q-8 0 -9.5 5t-1.5 12q0 5 2 9t7 4q3 0 17 -0.5t34 -1.5t44 -1.5t48 -0.5q21 0 58.5 2t73.5 2
q42 0 85 -6.5t78.5 -24.5t57.5 -50.5t22 -84.5q0 -48 -27.5 -84.5t-64.5 -53.5q-21 -10 -36.5 -15.5t-25 -8.5t-14.5 -4.5t-5 -4.5t4.5 -4t14.5 -3q40 -8 73.5 -23.5t57.5 -38.5t37.5 -54t13.5 -71q0 -32 -12 -64.5t-38 -59t-67.5 -43.5t-100.5 -17q-9 0 -22 0.5t-33 0.5
t-48 0.5t-67 0.5q-55 0 -85.5 -0.5t-46 -0.5t-19.5 -0.5t-7 -0.5q-6 0 -7 3t-1 10zM314 388q69 0 104 39.5t35 105.5q0 11 -3 35.5t-18 50t-45 45t-84 19.5q-24 0 -37 -1t-20 -8.5t-8.5 -24.5t-1.5 -48v-213h78zM236 85q0 -15 1.5 -26t8 -18t19 -10t35.5 -3q40 0 73 9.5
t57 29.5t37.5 50t13.5 71q0 44 -14 76t-38 53t-56 31t-68 10h-69v-273z" />
    <glyph glyph-name="C" unicode="C" horiz-adv-x="759" 
d="M46 334q0 90 31 162t82.5 122.5t118 77t138.5 26.5q64 0 103.5 -6t63.5 -13t36.5 -13t22.5 -6q14 0 21 8.5t18 8.5q2 0 4.5 -2t2.5 -10q0 -23 3 -49.5t6.5 -50t6.5 -40.5t3 -20q0 -7 -7 -10t-12 -3q-2 0 -5.5 1t-5.5 7q-16 41 -36.5 73t-48.5 54t-65 33.5t-85 11.5
q-47 0 -96 -22t-89 -67t-66 -112t-26 -157q0 -83 27 -144t69.5 -101.5t95 -60.5t103.5 -20q28 0 60 8.5t63 28t59.5 51t49.5 78.5q3 8 16 8q5 0 8 -2t3 -10q0 -5 -2 -23t-5 -39.5t-5 -41.5t-2 -28q0 -14 -14 -18q-38 -12 -103.5 -25t-171.5 -13q-67 0 -120.5 16.5t-95 44
t-70.5 63.5t-48 74.5t-27.5 77t-8.5 72.5z" />
    <glyph glyph-name="D" unicode="D" horiz-adv-x="833" 
d="M35 11q0 8 3.5 12.5t24.5 4.5q35 0 52.5 12t18.5 32q1 19 1.5 40l1 42t0.5 40.5v35.5v245v45.5t-0.5 34t-1 30t-0.5 31.5q0 22 -4 35.5t-14 20.5t-27.5 9t-44.5 2q-8 0 -9.5 5t-1.5 12q0 5 2 9t7 4q3 0 19 -0.5t39 -1.5t49.5 -1.5t50.5 -0.5q39 0 71.5 2t55.5 2
q57 0 101 -2.5t80 -9.5t67.5 -20.5t63.5 -34.5q35 -24 60.5 -56.5t41.5 -69.5t23.5 -75.5t7.5 -72.5q0 -83 -28 -151.5t-80 -117.5q-21 -20 -50.5 -39t-65.5 -33.5t-77.5 -23.5t-87.5 -9q-10 0 -23 0.5t-33.5 0.5t-51 0.5t-75.5 0.5q-55 0 -85.5 -0.5t-46 -0.5t-19.5 -0.5
t-7 -0.5q-6 0 -7 3t-1 10zM236 75q0 -26 23 -36.5t71 -10.5q67 0 127 22.5t104.5 66t69.5 106t23 142.5q-2 60 -15 105.5t-32 79t-41.5 55.5t-42.5 34q-42 27 -91 35.5t-97 8.5q-37 0 -57 -2t-29.5 -9.5t-11 -22.5t-1.5 -41v-533z" />
    <glyph glyph-name="E" unicode="E" horiz-adv-x="685" 
d="M27 11q0 8 2.5 12.5t18.5 4.5q30 0 47 3t25.5 9t11 14t2.5 18q1 19 1.5 40l1 42t0.5 40.5v35.5v245v45.5t-0.5 34t-1 30t-0.5 31.5q0 22 -4.5 35.5t-15 20.5t-29.5 9t-49 2q-8 0 -9.5 5t-1.5 12q0 5 2 9t7 4q3 0 19 -0.5t39 -1.5t49.5 -1.5t50.5 -0.5q44 0 91.5 0.5
t93 1.5t85 1.5t66.5 0.5q17 0 26.5 -1t11.5 -7q20 -69 32 -102.5t12 -38.5q0 -7 -15 -7q-6 0 -12 5.5t-17 18t-30.5 32t-52.5 47.5q-11 10 -28.5 16.5t-40.5 6.5q-10 0 -29 -0.5t-41.5 -1.5t-44 -2t-35.5 -2q-17 -1 -23 -18t-6 -59v-230h67q40 0 63.5 7t35.5 16.5t15 18.5
t4 13q4 28 7.5 43t5.5 22t4 8t5 1q19 0 19 -7v-150q0 -45 2.5 -72.5t2.5 -46.5q0 -5 -4 -6.5t-9 -1.5q-9 0 -11.5 3t-3.5 8q-6 40 -13 63t-21 34.5t-37 14t-59 2.5h-73v-258q0 -29 10.5 -40.5t38.5 -11.5h238q14 0 31 15.5t33.5 36t30.5 41t22 30.5q6 6 13 6q16 0 16 -7
q0 -1 -4 -12.5t-10 -28.5t-13.5 -36.5t-14.5 -36t-12.5 -27.5t-8.5 -11h-413q-55 0 -85.5 -0.5t-46 -0.5t-19.5 -0.5t-7 -0.5q-6 0 -7 3t-1 10z" />
    <glyph glyph-name="F" unicode="F" horiz-adv-x="611" 
d="M27 11q0 8 2.5 12.5t18.5 4.5q30 0 47 3t25.5 9t11 14t2.5 18q1 19 1.5 40l1 42t0.5 40.5v35.5v245v45.5t-0.5 34t-1 30t-0.5 31.5q0 22 -4.5 35.5t-15 20.5t-29.5 9t-49 2q-8 0 -9.5 5t-1.5 12q0 5 2 9t7 4q3 0 19 -0.5t39 -1.5t49.5 -1.5t50.5 -0.5q44 0 91.5 0.5
t93 1.5t85 1.5t66.5 0.5q17 0 26.5 -1t11.5 -7q20 -69 32 -102.5t12 -38.5q0 -7 -15 -7q-6 0 -12 5.5t-17 18t-30.5 32t-52.5 47.5q-11 10 -28.5 16.5t-40.5 6.5q-10 0 -29 -0.5t-41.5 -1.5t-44 -2t-35.5 -2q-17 -1 -23 -18t-6 -59v-236h67q40 0 63.5 7t35.5 16.5t15 18.5
t4 13q4 28 7.5 43t5.5 22t4 8t5 1q19 0 19 -7v-150q0 -45 2.5 -72.5t2.5 -46.5q0 -5 -4 -6.5t-9 -1.5q-9 0 -11.5 3t-3.5 8q-6 40 -13 63t-21 34.5t-37 14t-59 2.5h-73v-104v-35.5t0.5 -40.5l1 -42t1.5 -40q0 -10 2.5 -18t11 -14t25.5 -9t47 -3q28 0 33 -4.5t5 -12.5
q0 -7 -2 -10t-16 -3q-3 0 -7 0.5t-19.5 0.5t-46.5 0.5t-86 0.5q-53 0 -82 -0.5t-43.5 -0.5t-18.5 -0.5t-7 -0.5q-6 0 -7 3t-1 10z" />
    <glyph glyph-name="G" unicode="G" horiz-adv-x="833" 
d="M46 334q0 90 31 162t82.5 122.5t118 77t138.5 26.5q95 0 160 -14.5t116 -50.5q2 -2 7.5 -4.5t9.5 -2.5q5 0 15 9.5t16 9.5q5 0 6 -6.5t1 -37.5q0 -41 1 -64.5t1.5 -37.5t1.5 -20.5t1 -12.5q0 -5 -6.5 -7.5t-14.5 -2.5q-3 0 -11.5 20t-18.5 52q-10 30 -31 56t-53.5 45.5
t-76 31t-98.5 11.5q-47 0 -96 -22t-89 -67t-66 -112t-26 -157q0 -83 27 -144t69.5 -101.5t95 -60.5t103.5 -20q37 0 67.5 2.5t52.5 10.5t33.5 22t11.5 37v152q0 8 -3.5 14t-13 9.5t-27.5 5t-48 1.5q-23 0 -35.5 1t-18 3.5t-6.5 5.5t-1 7q0 7 2 10t16 3q3 0 11 -0.5
t27.5 -0.5t53.5 -0.5t90 -0.5q52 0 81.5 0.5t44 0.5t18.5 0.5t7 0.5q6 0 7 -3t1 -10q0 -8 -2.5 -12.5t-18.5 -4.5q-30 0 -47 -3t-25.5 -9t-11 -14.5t-2.5 -18.5v-137q0 -11 4.5 -17.5t9.5 -11t9.5 -8t4.5 -7.5q0 -6 -2.5 -9t-14.5 -7q-53 -19 -137.5 -28.5t-181.5 -9.5
q-67 0 -120.5 16.5t-95 44t-70.5 63.5t-48 74.5t-27.5 77t-8.5 72.5z" />
    <glyph glyph-name="H" unicode="H" horiz-adv-x="870" 
d="M20 11q0 8 3.5 12.5t24.5 4.5q30 0 47 3t25.5 9t11 14t2.5 18q1 19 1.5 40l1 42t0.5 40.5v35.5v245v45.5t-0.5 34t-1 30t-0.5 31.5q0 22 -4.5 35.5t-16 20.5t-31.5 9t-53 2q-8 0 -9.5 5t-1.5 12q0 5 2 9t7 4q3 0 19 -0.5t39 -1.5t49.5 -1.5t50.5 -0.5t50.5 0.5t50 1.5
t39.5 1.5t19 0.5q5 0 7 -4t2 -9q0 -7 -1.5 -12t-9.5 -5q-33 0 -53 -2t-31.5 -9t-16 -20.5t-4.5 -35.5q0 -17 -0.5 -31.5t-1 -30t-0.5 -34v-45.5v-102h397v102v45.5t-0.5 34t-1 30t-0.5 31.5q0 22 -4.5 35.5t-16 20.5t-31.5 9t-53 2q-8 0 -9.5 5t-1.5 12q0 5 2 9t7 4
q3 0 19 -0.5t39.5 -1.5t50 -1.5t50.5 -0.5t50.5 0.5t49.5 1.5t39 1.5t19 0.5q5 0 7 -4t2 -9q0 -7 -1.5 -12t-9.5 -5q-33 0 -53 -2t-31.5 -9t-16 -20.5t-4.5 -35.5q0 -17 -0.5 -31.5t-1 -30t-0.5 -34v-45.5v-245v-35.5t0.5 -40.5l1 -42t1.5 -40q0 -10 2.5 -18t11 -14t25.5 -9
t47 -3q21 0 24.5 -4.5t3.5 -12.5q0 -7 -1 -10t-7 -3q-3 0 -7 0.5t-19.5 0.5t-46 0.5t-85.5 0.5q-56 0 -86.5 -0.5t-46 -0.5t-19.5 -0.5t-7 -0.5q-6 0 -7 3t-1 10q0 8 3.5 12.5t24.5 4.5q30 0 47 3t25.5 9t11 14t2.5 18q1 19 1.5 40l1 42t0.5 40.5v35.5v113h-397v-113v-35.5
t0.5 -40.5l1 -42t1.5 -40q0 -10 2.5 -18t11 -14t25.5 -9t47 -3q21 0 24.5 -4.5t3.5 -12.5q0 -7 -1 -10t-7 -3q-3 0 -7 0.5t-19.5 0.5t-46.5 0.5t-86 0.5t-85.5 -0.5t-46 -0.5t-19.5 -0.5t-7 -0.5q-6 0 -7 3t-1 10z" />
    <glyph glyph-name="I" unicode="I" horiz-adv-x="370" 
d="M18 11q0 8 3.5 12.5t24.5 4.5q30 0 47 3t25.5 9t11 14t2.5 18q1 19 1.5 40l1 42t0.5 40.5v35.5v245v45.5t-0.5 34t-1 30t-0.5 31.5q0 22 -4.5 35.5t-16 20.5t-31.5 9t-53 2q-8 0 -9.5 5t-1.5 12q0 5 2 9t7 4q3 0 19 -0.5t39 -1.5t49.5 -1.5t50.5 -0.5t50.5 0.5t50 1.5
t39.5 1.5t19 0.5q5 0 7 -4t2 -9q0 -7 -1.5 -12t-9.5 -5q-33 0 -53 -2t-31.5 -9t-16 -20.5t-4.5 -35.5q0 -17 -0.5 -31.5t-1 -30t-0.5 -34v-45.5v-245v-35.5t0.5 -40.5l1 -42t1.5 -40q0 -10 2.5 -18t11 -14t25.5 -9t47 -3q21 0 24.5 -4.5t3.5 -12.5q0 -7 -1 -10t-7 -3
q-3 0 -7 0.5t-19.5 0.5t-46.5 0.5t-86 0.5t-85.5 -0.5t-46 -0.5t-19.5 -0.5t-7 -0.5q-6 0 -7 3t-1 10z" />
    <glyph glyph-name="J" unicode="J" horiz-adv-x="370" 
d="M-40 -83q18 0 33 -9t28.5 -19.5t25.5 -19.5t25 -9q12 0 23.5 5.5t21 23t15 50.5t5.5 88v448v45.5t-0.5 34t-1 30t-0.5 31.5q0 22 -4.5 35.5t-16 20.5t-31.5 9t-53 2q-8 0 -9.5 5t-1.5 12q0 5 2 9t7 4q3 0 19 -0.5t39 -1.5t49.5 -1.5t50.5 -0.5t47 0.5t42 1.5t31.5 1.5
t15.5 0.5q5 0 7 -4t2 -9q0 -7 -1.5 -12t-9.5 -5q-24 0 -39.5 -2t-25 -9t-13.5 -20.5t-4 -35.5q0 -17 -0.5 -31.5t-1 -30t-0.5 -34v-45.5v-355q0 -109 -44 -186.5t-137 -120.5q-26 -12 -44 -16.5t-35 -4.5q-40 0 -57.5 20.5t-17.5 46.5q0 20 14.5 39t44.5 19z" />
    <glyph glyph-name="K" unicode="K" horiz-adv-x="759" 
d="M20 11q0 8 3.5 12.5t24.5 4.5q30 0 47 3t25.5 9t11 14t2.5 18q1 19 1.5 40l1 42t0.5 40.5v35.5v245v45.5t-0.5 34t-1 30t-0.5 31.5q0 22 -4.5 35.5t-16 20.5t-31.5 9t-53 2q-8 0 -9.5 5t-1.5 12q0 5 2 9t7 4q3 0 19 -0.5t39 -1.5t49.5 -1.5t50.5 -0.5t50.5 0.5t50 1.5
t39.5 1.5t19 0.5q5 0 7 -4t2 -9q0 -7 -1.5 -12t-9.5 -5q-33 0 -53 -2t-31.5 -9t-16 -20.5t-4.5 -35.5q0 -17 -0.5 -31.5t-1 -30t-0.5 -34v-45.5v-121q11 0 19 0.5t14.5 2.5t12.5 6.5t14 12.5q88 90 139 141.5t76.5 79t32 39t6.5 20.5q0 6 -1 10.5t-7.5 8.5t-20.5 6t-39 2
q-8 0 -10 3.5t-2 11.5q0 3 2.5 9t7.5 6q8 0 26 -0.5t38 -1.5t37.5 -1.5t23.5 -0.5q9 0 24 0.5t31 1.5t30 1.5t22 0.5q7 0 8.5 -4.5t1.5 -10.5q0 -8 -2 -11.5t-11 -3.5q-19 0 -33.5 -2t-30 -10t-35 -24.5t-47.5 -44.5l-193 -195q-6 -7 -10 -11t-4 -7q0 -4 6 -9.5t16 -16.5
l262 -279q20 -21 36.5 -32.5t31 -16.5t27 -6t24.5 -1q23 0 27 -4.5t4 -12.5q0 -13 -10 -13q-3 0 -8 0.5t-21.5 0.5t-49 0.5t-89.5 0.5q-56 0 -87 -0.5t-47 -0.5t-20.5 -0.5t-6.5 -0.5q-6 0 -7 5.5t-1 14.5q0 4 10.5 7t42.5 3q17 0 23 6.5t6 14.5q0 5 -1.5 11t-11.5 17
q-27 29 -61 67t-67 74t-59.5 63.5t-36.5 35.5q-11 9 -23 10.5t-29 1.5v-99v-35.5t0.5 -40.5l1 -42t1.5 -40q0 -10 2.5 -18t11 -14t25.5 -9t47 -3q21 0 24.5 -4.5t3.5 -12.5q0 -7 -1 -10t-7 -3q-3 0 -7 0.5t-19.5 0.5t-46.5 0.5t-86 0.5t-85.5 -0.5t-46 -0.5t-19.5 -0.5
t-7 -0.5q-6 0 -7 3t-1 10z" />
    <glyph glyph-name="L" unicode="L" horiz-adv-x="685" 
d="M25 11q0 8 3 12.5t20 4.5q30 0 47 3t25.5 9t11 14t2.5 18q1 19 1.5 40l1 42t0.5 40.5v35.5v245v45.5t-0.5 34t-1 30t-0.5 31.5q0 22 -4.5 35.5t-15.5 20.5t-30 9t-50 2q-8 0 -9.5 5t-1.5 12q0 5 2 9t7 4q3 0 18.5 -0.5t37.5 -1.5t47.5 -1.5t49.5 -0.5t50.5 0.5t50 1.5
t39.5 1.5t19 0.5q5 0 7 -4t2 -9q0 -7 -1.5 -12t-9.5 -5q-33 0 -53 -2t-31.5 -9t-16 -20.5t-4.5 -35.5q0 -17 -0.5 -31.5t-1 -30t-0.5 -34v-45.5v-245v-35.5t0.5 -40.5l1 -42t1.5 -40q1 -27 24.5 -34t80.5 -7q58 0 101.5 3t76 17t55.5 44t41 83q5 16 6 22t8 6q14 0 17.5 -2.5
t3.5 -9.5q0 -2 -3.5 -17.5t-9 -40.5t-12.5 -58.5t-13 -71.5q-1 -8 -10 -8h-7.5t-18 0.5t-39 0.5t-70.5 0.5t-113 0.5h-166q-55 0 -85.5 -0.5t-46 -0.5t-19.5 -0.5t-7 -0.5q-6 0 -7 3t-1 10z" />
    <glyph glyph-name="M" unicode="M" horiz-adv-x="963" 
d="M-7 -2q-6 0 -8.5 2.5t-2.5 14.5q0 8 8.5 10.5t44.5 2.5q13 0 21.5 3t14 10.5t9.5 21.5t8 35q20 109 39.5 216.5t42.5 216.5q8 34 10.5 56t2.5 38q0 2 -2.5 9t-6 15.5t-8.5 15.5t-9 10q-3 2 -12.5 3.5t-22 2.5t-26 1.5t-25.5 0.5q-9 0 -10.5 5t-1.5 10q0 6 2 10.5t9 4.5
t24.5 -0.5t36.5 -1.5t35 -1.5t20 -0.5q20 0 45.5 2t35.5 2q8 0 12 -10t12 -37q5 -19 19.5 -62t33.5 -97.5t40 -113.5t40 -110t32.5 -88t18.5 -46q57 134 112.5 270.5t109.5 282.5q4 11 12 11q2 0 14.5 -0.5t29 -1.5t32.5 -1.5t25 -0.5q6 0 23 0.5t35 1.5t33 1.5t18 0.5
q8 0 9.5 -5t1.5 -12q0 -13 -12 -13q-34 0 -54 -2t-30.5 -7.5t-13.5 -16t-3 -27.5q0 -24 2 -74.5t5 -122.5t6.5 -162.5t7.5 -195.5q1 -26 18 -36.5t37 -10.5q21 0 32.5 -1t17 -3t6.5 -4t1 -5q0 -11 -3 -14t-8 -3q-3 0 -9 0.5t-22 0.5t-46 0.5t-82 0.5q-49 0 -76.5 -0.5
t-41.5 -0.5t-18.5 -0.5t-7.5 -0.5q-8 0 -9.5 4.5t-1.5 11.5q0 3 1 5.5t5.5 4.5t14.5 3t27 1q25 0 38.5 3t20 10t7.5 17.5t1 25.5t-1 50t-3 83t-4.5 104.5t-5 115t-5 114.5t-4.5 103h-2q-27 -70 -57.5 -144t-60.5 -147t-59 -142.5t-54 -129.5l-22 -55t-13 -31t-8 -14t-8 -3
t-8 2.5t-7 10.5t-8.5 23.5t-12.5 41.5q-6 18 -21.5 63t-36.5 102t-43.5 119t-41.5 113t-32 84t-14 33q-4 -18 -12 -55.5t-17 -85.5t-18.5 -101.5t-17.5 -103.5t-13 -92t-5 -67q0 -47 50 -47q19 0 36.5 -1.5t17.5 -6.5q0 -14 -1.5 -18t-9.5 -4q-3 0 -8 0.5t-17 0.5t-34.5 0.5
t-61.5 0.5q-34 0 -53.5 -0.5t-30 -0.5t-14.5 -0.5t-6 -0.5z" />
    <glyph glyph-name="N" unicode="N" horiz-adv-x="870" 
d="M10 17q0 3 5.5 5.5t12.5 3.5t14.5 1.5t12.5 0.5q9 0 20 1.5t21.5 6t17.5 13t9 23.5q0 7 2 45t4.5 102.5t4 153t1.5 197.5v26.5t-2 16.5q-3 7 -13 18.5t-23 23t-25.5 20t-20.5 8.5h-37q-7 0 -8 4t-1 12q0 9 2.5 11.5t8.5 2.5q2 0 14.5 -0.5t28.5 -1.5t30.5 -1.5t21.5 -0.5
q6 0 18 0.5t26 1.5t26.5 1.5t18.5 0.5q2 0 8 -6q88 -99 209.5 -239t289.5 -312q2 35 3.5 83t3 99t2.5 100t1 86q0 57 -7.5 89t-22.5 47.5t-38.5 19t-56.5 3.5q-8 0 -10.5 4t-2.5 10q0 16 11 16q6 0 25.5 -0.5t42.5 -1.5t44.5 -1.5t32.5 -0.5q8 0 29 0.5t42.5 1.5t39.5 1.5
t20 0.5q5 0 6.5 -4t1.5 -9q0 -11 -2.5 -14t-6.5 -3q-30 0 -49.5 -2.5t-31.5 -11.5t-18.5 -25.5t-11.5 -43.5q-2 -9 -3.5 -50t-3.5 -100t-4 -127.5t-3.5 -132.5t-2.5 -115t-1 -75q0 -10 -3.5 -12t-11.5 -2q-2 0 -12 10t-33 35.5t-62.5 69.5t-100.5 111t-146.5 160t-200.5 217
q-1 -65 -2 -129t-1 -129q0 -112 2 -175t2 -79q0 -25 18 -37t60 -12q19 0 29.5 -1t15 -3t5.5 -4.5t1 -6.5q0 -9 -2 -12t-8 -3q-3 0 -7.5 0.5t-18 0.5t-39.5 0.5t-72 0.5q-42 0 -66.5 -0.5t-37.5 -0.5t-17.5 -0.5t-7.5 -0.5q-8 0 -9 5t-1 14z" />
    <glyph glyph-name="O" unicode="O" horiz-adv-x="833" 
d="M787 339q0 -52 -20 -113.5t-64.5 -115t-115 -89t-171.5 -35.5q-67 0 -120.5 16.5t-95 44t-70.5 63.5t-48 74.5t-27.5 77t-8.5 72.5q0 90 31 162t82.5 122.5t118 77t138.5 26.5q79 0 147 -24t118 -71.5t78 -119.5t28 -168zM668 354q0 54 -13.5 114t-43.5 110.5t-78 84
t-117 33.5q-58 0 -99.5 -19.5t-69.5 -51t-44 -70.5t-24.5 -77t-11 -71.5t-2.5 -53.5q0 -52 13.5 -111.5t43 -110.5t77.5 -85t117 -34q59 0 100.5 17t69.5 45t44.5 64t24.5 74t10.5 75t2.5 67z" />
    <glyph glyph-name="P" unicode="P" horiz-adv-x="630" 
d="M137 475v45.5t-0.5 34t-1 30t-0.5 31.5q0 22 -4 35.5t-14 20.5t-27.5 9t-44.5 2q-8 0 -9.5 5t-1.5 12q0 5 2 9t7 4q3 0 17 -0.5t34 -1.5t44 -1.5t48 -0.5q3 0 18.5 0.5t36.5 1.5t44 1.5t43 0.5q60 0 102.5 -12t72 -30.5t47 -41t27 -44.5t12.5 -41t3 -29
q0 -54 -17.5 -94.5t-49 -67.5t-74.5 -40.5t-94 -13.5q-30 0 -60 2t-61 8v-97t0.5 -60t1 -36t0.5 -24q1 -15 4 -27t14 -20t32.5 -12.5t60.5 -4.5q21 0 24.5 -4.5t3.5 -12.5q0 -7 -1 -10t-7 -3q-3 0 -11 0.5t-27.5 0.5t-54.5 0.5t-90 0.5t-85.5 -0.5t-46 -0.5t-19.5 -0.5
t-7 -0.5q-6 0 -7 3t-1 10q0 8 3.5 12.5t24.5 4.5q30 0 47 3t25.5 9t11 14t2.5 18q1 19 1.5 40l1 42t0.5 40.5v35.5v245zM236 367q0 -17 9.5 -27.5t47.5 -10.5q41 0 76 11.5t60.5 34t40 56t14.5 76.5q0 39 -12 71t-33.5 55.5t-51.5 36.5t-67 13q-29 0 -45.5 -1.5t-25.5 -9
t-11 -24.5t-2 -48v-233z" />
    <glyph glyph-name="Q" unicode="Q" horiz-adv-x="852" 
d="M801 364q0 -128 -66.5 -217t-193.5 -143q-12 -5 -16.5 -7t-4.5 -8q0 -5 15 -23.5t44.5 -38.5t73.5 -35.5t103 -15.5q6 0 7 -6t1 -10t-1.5 -8t-7.5 -5q-17 -2 -34 -3.5t-40 -1.5q-64 0 -117.5 11.5t-97 32.5t-77.5 50t-59 63q-5 5 -32 15t-78 36q-24 12 -53.5 37.5t-55 62
t-43 84.5t-17.5 107q0 66 17 120t45 96t65.5 73.5t78 51.5t82.5 30t80 10q78 0 147.5 -25.5t121.5 -72.5t82.5 -113t30.5 -147zM433 8q57 0 98 21t68.5 54t44 74t25 81t11 74.5t2.5 55.5q0 73 -14 125.5t-36 89t-50 59t-56.5 34.5t-55 16t-44.5 4q-74 0 -123.5 -30.5
t-79 -79t-41.5 -109t-12 -120.5q0 -95 22.5 -161.5t59.5 -108t84.5 -60.5t96.5 -19z" />
    <glyph glyph-name="R" unicode="R" horiz-adv-x="704" 
d="M137 475v45.5t-0.5 34t-1 30t-0.5 31.5q0 22 -4 35.5t-14 20.5t-27.5 9t-44.5 2q-8 0 -9.5 5t-1.5 12q0 5 2 9t7 4q3 0 17 -0.5t34 -1.5t44 -1.5t48 -0.5q20 0 60.5 2t85.5 2q43 0 89 -8.5t83.5 -29t61.5 -56t24 -89.5q0 -36 -9.5 -63.5t-29.5 -49.5t-50.5 -40t-71.5 -34
q-4 -2 -7.5 -3.5t-3.5 -4.5q0 -2 9.5 -19.5t27.5 -46t44.5 -65.5t61.5 -79q27 -33 44 -52.5t31 -30t28.5 -14t37.5 -3.5q5 0 6 -3.5t1 -8.5q0 -15 -12 -15q-2 0 -4.5 0.5t-11 0.5t-24 0.5t-42.5 0.5q-23 0 -36 -0.5t-20.5 -0.5t-10 -0.5t-4.5 -0.5q-7 0 -10 1t-8 7
q-31 40 -59 82.5t-51.5 80t-42.5 66t-32 42.5q-15 15 -28 23.5t-25 12t-24.5 4t-27.5 0.5v-87v-35.5t0.5 -40.5l1 -42t1.5 -40q0 -10 2.5 -18t11 -14t25.5 -9t47 -3q21 0 24.5 -4.5t3.5 -12.5q0 -7 -1 -10t-7 -3q-3 0 -7 0.5t-19.5 0.5t-46.5 0.5t-86 0.5q-50 0 -77.5 -0.5
t-41 -0.5t-17.5 -0.5t-7 -0.5q-6 0 -7 3t-1 10q0 8 3.5 12.5t24.5 4.5q24 0 38 3t21 9t9.5 14t2.5 18q1 19 1.5 40l1 42t0.5 40.5v35.5v245zM318 347q45 0 76 14t50.5 37t28.5 54t9 65t-10.5 64.5t-32 53t-53.5 35.5t-75 13q-23 0 -37.5 -2t-23 -9t-11.5 -21t-3 -39v-265h82
z" />
    <glyph glyph-name="S" unicode="S" horiz-adv-x="556" 
d="M264 12q69 0 104 39t35 99q0 28 -8.5 49.5t-29 42t-55.5 41.5t-87 49q-31 16 -58.5 33t-48.5 38t-33 49t-12 67t13 76t40 65t68 45t97 17q53 0 85.5 -9t49.5 -9q8 0 14.5 9t12.5 9q9 0 9 -13q0 -29 2.5 -57.5t5 -51t5 -37t2.5 -17.5q0 -10 -10 -10q-8 0 -11.5 0.5
t-5.5 5.5q-11 29 -24.5 57t-32.5 49.5t-45 34.5t-62 13q-26 0 -50 -9t-42 -25.5t-29 -40t-11 -52.5q0 -25 7 -43.5t18 -32.5t25 -24.5t28 -19.5q43 -27 90.5 -49.5t87 -49.5t65 -63.5t25.5 -92.5q0 -55 -18.5 -94.5t-51.5 -64.5t-77 -37t-95 -12q-54 0 -99 4.5t-77 9.5
q-5 1 -6.5 2.5t-2.5 9.5q-5 80 -9.5 114t-4.5 38q0 10 20 10q6 0 7.5 -2.5t3.5 -10.5q9 -30 23 -57t35 -47.5t50 -32.5t68 -12z" />
    <glyph glyph-name="T" unicode="T" horiz-adv-x="778" 
d="M659 709q14 0 23 4t16 8.5t12 8.5t11 4q5 0 7 -6t10 -32q12 -43 20.5 -69t14 -40.5t7.5 -20t2 -6.5q0 -2 -5 -5t-10 -3q-9 0 -14 7q-36 65 -75 92.5t-94 27.5h-122q-13 0 -18.5 -12t-5.5 -51v-386v-35.5t0.5 -40.5l1 -42t1.5 -40q0 -10 2.5 -18t11 -14t25.5 -9t47 -3
q21 0 24.5 -4.5t3.5 -12.5q0 -7 -1 -10t-7 -3q-3 0 -7 0.5t-19.5 0.5t-46.5 0.5t-86 0.5t-85.5 -0.5t-46 -0.5t-19.5 -0.5t-7 -0.5q-6 0 -7 3t-1 10q0 8 3.5 12.5t24.5 4.5q30 0 47 3t25.5 9t11 14t2.5 18q1 19 1.5 40l1 42t0.5 40.5v35.5v386q0 24 -2 36.5t-7 18.5t-13.5 7
t-21.5 1h-109q-28 0 -51.5 -10.5t-43.5 -27.5t-36.5 -38.5t-31.5 -43.5q-3 -5 -6.5 -5.5t-10.5 -0.5q-14 0 -14 7q0 1 1.5 4.5t6.5 16t14.5 39t25.5 74.5q1 4 2.5 11t3 13.5t4 11t5.5 4.5q8 0 13.5 -4t12 -8.5t16 -8.5t24.5 -4h538z" />
    <glyph glyph-name="U" unicode="U" horiz-adv-x="833" 
d="M236 294q0 -50 11.5 -95.5t37.5 -80t69 -55t106 -20.5q44 0 83.5 14t69.5 48.5t47.5 93t17.5 147.5v198q0 52 -6 80.5t-21 41.5t-40.5 15t-64.5 2q-6 0 -7 4t-1 11q0 9 2 12t6 3q13 0 55.5 -2t91.5 -2q12 0 31.5 0.5t40 1.5t37 1.5t21.5 0.5q8 0 11 -3t3 -14
q0 -3 -1.5 -8t-7.5 -5q-36 0 -58.5 -2t-35.5 -13t-17.5 -35t-4.5 -68v-237q0 -67 -13.5 -119t-35.5 -90t-51.5 -63.5t-61.5 -41t-64.5 -22t-61.5 -6.5q-84 0 -139.5 25t-88 63.5t-46 84.5t-13.5 87v229v45.5t-0.5 34t-1 30t-0.5 31.5q0 22 -4.5 35.5t-16 20.5t-31.5 9t-53 2
q-8 0 -9.5 5t-1.5 12q0 5 2 9t7 4q3 0 19 -0.5t39 -1.5t49.5 -1.5t50.5 -0.5t50.5 0.5t50 1.5t39.5 1.5t19 0.5q5 0 7 -4t2 -9q0 -7 -1.5 -12t-9.5 -5q-33 0 -53 -2t-31.5 -9t-16 -20.5t-4.5 -35.5q0 -17 -0.5 -31.5t-1 -30t-0.5 -34v-45.5v-181z" />
    <glyph glyph-name="V" unicode="V" horiz-adv-x="741" 
d="M297 96q-20 51 -42 109.5t-43 118t-40.5 115t-36 100.5t-28.5 74.5t-17 36.5q-8 10 -14.5 16.5t-16 10.5t-25 5t-41.5 1q-10 0 -11.5 5t-1.5 11q0 5 2.5 9.5t10.5 4.5q21 0 56.5 -2t98.5 -2q16 0 40.5 0.5t48.5 1.5t43.5 1.5t25.5 0.5q8 0 9.5 -3.5t1.5 -12.5
q0 -8 -1.5 -11t-9.5 -3q-52 0 -74 -5.5t-22 -31.5q0 -6 8 -32t20.5 -63.5t29 -83.5t34.5 -92q5 -12 13.5 -35t18.5 -50.5t20.5 -57t20 -53t16.5 -39t10 -15.5q1 0 5 5.5t14 24t27.5 55.5t46.5 100q17 37 37.5 83t38.5 90t30 82t12 60t-9.5 33.5t-24 17t-32.5 6.5t-35 1
q-8 0 -9.5 5t-1.5 10q0 11 4 13t10 2t25 -0.5t41 -1.5t41.5 -1.5t26.5 -0.5q15 0 32.5 0.5t34.5 1.5t32 1.5t25 0.5q11 0 11 -14q0 -2 -1 -9t-7 -7q-27 0 -44.5 -3.5t-30.5 -12.5t-23 -24.5t-21 -38.5q-21 -46 -42.5 -95t-42.5 -97t-40.5 -93t-37.5 -81q-23 -45 -43 -91
t-37 -83t-30.5 -60t-21.5 -23q-5 0 -9 2t-10.5 12.5t-17 34t-27.5 66.5z" />
    <glyph glyph-name="W" unicode="W" horiz-adv-x="1093" 
d="M325 7q-3 -7 -8.5 -14.5t-15.5 -7.5q-13 0 -17 15t-13 45q-47 152 -77 254.5t-48.5 169t-28 103.5t-16.5 60q-6 19 -12 29.5t-16 15t-26 5.5t-41 1q-8 0 -8 15q0 11 2 13t10 2q6 0 21.5 -0.5t35.5 -1.5t41 -1.5t38 -0.5q12 0 32 0.5t40.5 1.5t38.5 1.5t28 0.5q7 0 8 -6
t1 -11q0 -4 -1 -8.5t-9 -4.5q-42 0 -60 -3.5t-18 -24.5q0 -11 2.5 -26t12 -51.5t27.5 -104.5t50 -184q13 -47 22 -76.5t15 -46.5t10 -23.5t7 -6.5q6 0 14.5 14.5t27.5 53.5t52.5 106.5t89.5 173.5q11 21 14.5 32.5t3.5 19.5t-2.5 21.5t-13.5 49.5q-8 28 -16 43.5t-19.5 23
t-28.5 8.5t-43 1q-5 0 -6.5 5t-1.5 10t1.5 10t3.5 5q36 0 73 -2t75 -2q36 0 72.5 2t72.5 2q11 0 11 -12q0 -5 -1 -11.5t-8 -6.5q-44 0 -64 -4.5t-20 -30.5q0 -11 4 -31.5t17 -67.5t37.5 -128.5t64.5 -212.5q11 -35 16 -53t11 -18q2 0 11 21.5t23.5 56.5t32 79.5t35.5 91.5
t34.5 92t28.5 80q5 16 12.5 39t7.5 41q0 30 -17 37.5t-46 7.5q-23 0 -28.5 2t-5.5 14q0 5 2.5 9.5t6.5 4.5q9 0 24 -0.5t32.5 -1.5t35 -1.5t29.5 -0.5q10 0 26.5 0.5t33.5 1.5t32 1.5t24 0.5t11 -5t2 -10q0 -6 -2 -10.5t-7 -4.5q-16 0 -32 -1.5t-31.5 -9.5t-29.5 -25.5
t-27 -49.5q-33 -84 -67 -167.5t-65 -159t-57 -141t-43 -114.5q-11 -30 -21 -30t-14 3t-7 12q-42 112 -79 230t-71 226q-5 14 -6 19t-6 5q-4 0 -12 -15.5t-30 -59.5z" />
    <glyph glyph-name="X" unicode="X" horiz-adv-x="722" 
d="M601 71q17 -27 36.5 -35t52.5 -8q3 0 8 -0.5t10.5 -1t9.5 -2.5t4 -5q0 -14 -1 -17.5t-8 -3.5q-3 0 -8 0.5t-20 0.5t-44 0.5t-80 0.5q-48 0 -75 -0.5t-41.5 -0.5t-20 -0.5t-8.5 -0.5q-8 0 -9 5t-1 16q0 3 6.5 5t14.5 3t15.5 1h10.5q10 0 18 6.5t8 23.5q0 7 -7.5 22t-23 42
t-40.5 67.5t-60 100.5q-11 19 -16 19q-3 0 -10 -10.5t-19 -24.5l-18 -24t-26.5 -37t-30 -44t-28 -44t-20.5 -37.5t-8 -23.5q0 -4 1 -10t7 -12t18.5 -10t35.5 -4q24 0 33.5 -2t9.5 -10q0 -18 -10 -18q-3 0 -8 0.5t-20 0.5t-43 0.5t-76 0.5q-40 0 -62.5 -0.5t-34 -0.5
t-15.5 -0.5t-6 -0.5q-7 0 -8 4.5t-1 8.5q0 10 3.5 13.5t18.5 3.5q34 0 55 8t42 35l186 241q5 7 10.5 14.5t5.5 11.5q0 3 -9.5 20.5t-24.5 43.5t-34 56.5t-38 61.5t-36.5 58t-29.5 46q-14 22 -27 34t-27 17.5t-30 6.5t-37 1q-5 0 -6 4.5t-1 9.5q0 6 2 11t10 5q33 0 69.5 -2
t62.5 -2q20 0 44.5 0.5t47.5 1.5t42 1.5t28 0.5q5 0 7 -4.5t2 -9.5q0 -12 -4 -14t-15 -2q-31 0 -45.5 -3.5t-14.5 -23.5q0 -8 6.5 -19t18.5 -31q32 -52 53 -86t33.5 -54.5t18 -29t6.5 -8.5q6 0 34.5 38.5t69.5 96.5q19 26 26 44.5t7 31.5q0 21 -10.5 32.5t-35.5 11.5
q-23 0 -29 2t-6 13q0 10 4 12.5t7 2.5q6 0 21 -0.5t33 -1.5t35.5 -1.5t29.5 -0.5q14 0 36.5 0.5t44.5 1.5t39 1.5t20 0.5q8 0 9 -4.5t1 -11.5q0 -3 -1 -8.5t-8 -5.5q-27 0 -44.5 -2.5t-30.5 -8.5t-22.5 -15t-21.5 -21q-25 -28 -50 -58.5t-47.5 -58.5t-40.5 -52t-29 -38
q-21 -27 -21 -32q0 -2 2.5 -8t13.5 -26t35 -60t68 -110z" />
    <glyph glyph-name="Y" unicode="Y" horiz-adv-x="667" 
d="M88 648q-13 25 -29 30t-39 5q-20 0 -24.5 2.5t-4.5 13.5q0 10 4.5 12t12.5 2q32 0 63 -2t63 -2q34 0 68 2t68 2q12 0 16 -2.5t4 -12.5q0 -9 -3.5 -12t-21.5 -3q-27 0 -41 -6.5t-14 -24.5q0 -5 4.5 -17t19 -41.5t41 -81t71.5 -135.5q12 -23 16 -31t9 -8t14 16.5t28 51.5
q40 74 63.5 119t35.5 70.5t15.5 36t3.5 16.5q0 14 -8 24.5t-37 10.5q-16 0 -24.5 0.5t-13 2.5t-5.5 5t-1 8q0 14 13 14q4 0 19 -0.5t33 -1.5t34 -1.5t21 -0.5q9 0 23.5 0.5t31.5 1.5t35 1.5t34 0.5q13 0 13 -14q0 -9 -6 -12.5t-31 -3.5q-23 0 -38.5 -5.5t-26.5 -15
t-18.5 -21.5t-14.5 -25l-158 -287q-8 -14 -12.5 -23.5t-7 -19t-3 -22.5t-0.5 -34v-35.5t0.5 -40.5l1 -42t1.5 -40q0 -10 2.5 -18t11 -14t25.5 -9t47 -3q21 0 24.5 -4.5t3.5 -12.5q0 -7 -1 -10t-7 -3q-3 0 -7 0.5t-19.5 0.5t-46.5 0.5t-86 0.5t-85.5 -0.5t-46 -0.5
t-19.5 -0.5t-7 -0.5q-6 0 -7 3t-1 10q0 8 3.5 12.5t24.5 4.5q30 0 47 3t25.5 9t11 14t2.5 18q1 19 1.5 40l1 42t0.5 40.5v35.5q0 34 -2.5 46t-6.5 18z" />
    <glyph glyph-name="Z" unicode="Z" horiz-adv-x="685" 
d="M633 709q7 0 11 -1t4 -6t-2.5 -9.5t-12 -17t-27.5 -37t-49 -67.5q-37 -52 -79 -108.5t-81.5 -109t-73 -96t-52.5 -69.5q-40 -53 -62 -82t-32 -43t-12 -18t-2 -7q0 -6 9 -7t20 -1h30.5t48 0.5t58 1t59 1t52.5 1.5t38 3q18 2 35 7.5t35.5 18.5t39 36t46.5 59
q11 16 15.5 20.5t16.5 4.5q3 0 6.5 -2t3.5 -6q0 -2 -6 -20t-15 -43t-19 -52t-17 -46q-5 -14 -16 -14h-435q-30 0 -47.5 -0.5t-30.5 -0.5t-24 -0.5t-27 -0.5q-15 0 -20 1t-5 8q0 9 12 25.5t39.5 51t73 91.5t112.5 146q70 94 119 158t79.5 104.5t44 60.5t13.5 25q0 4 -1.5 6
t-7.5 3t-18 1h-34q-60 0 -100.5 -0.5t-69 -2t-48 -5t-35.5 -10.5q-22 -9 -38.5 -23t-29.5 -31t-23 -36.5t-19 -39.5q-6 -12 -18 -12q-5 0 -9.5 1.5t-4.5 5.5q0 3 7 28t16 59t18.5 70t14.5 62q2 10 10 10q4 0 8.5 -1t5.5 -7q2 -14 6.5 -22t13 -11.5t22 -4t33.5 -0.5h427z" />
    <glyph glyph-name="bracketleft" unicode="[" horiz-adv-x="315" 
d="M173 -18v-29t1 -25.5t2.5 -26t3.5 -29.5q1 -12 5.5 -20t15 -13t28 -7t45.5 -2q27 0 31.5 -2.5t4.5 -11.5q0 -5 -1.5 -8.5t-7.5 -3.5h-182q-13 0 -13 11q0 51 1 106.5t1 132.5v409q0 77 -1 132.5t-1 106.5q0 11 13 11h182q6 0 7.5 -3.5t1.5 -8.5q0 -9 -4.5 -11.5
t-31.5 -2.5q-28 0 -45.5 -2t-28 -7t-15 -13t-5.5 -20q-5 -33 -6 -56t-1 -54v-553z" />
    <glyph glyph-name="backslash" unicode="\" 
d="M108 709l377 -709h-75l-376 709h74z" />
    <glyph glyph-name="bracketright" unicode="]" horiz-adv-x="315" 
d="M142 535q0 31 -1.5 54t-5.5 56q-2 12 -6 20t-14.5 13t-28 7t-45.5 2q-27 0 -31.5 2.5t-4.5 11.5q0 5 1.5 8.5t7.5 3.5h182q13 0 13 -11q0 -51 -1 -106.5t-1 -132.5v-409q0 -77 1 -132.5t1 -106.5q0 -11 -13 -11h-182q-6 0 -7.5 3.5t-1.5 8.5q0 9 4.5 11.5t31.5 2.5
q28 0 45.5 2t28 7t14.5 13t6 20q2 16 3.5 29.5t2 26t1 25.5t0.5 29v553z" />
    <glyph glyph-name="asciicircum" unicode="^" 
d="M44 280l177 410h78l176 -410h-72l-143 349l-144 -349h-72z" />
    <glyph glyph-name="underscore" unicode="_" horiz-adv-x="500" 
d="M0 -125v50h500v-50h-500z" />
    <glyph glyph-name="grave" unicode="`" horiz-adv-x="278" 
d="M165 530l-155 97q-8 5 -18.5 15.5t-10.5 21.5q0 37 35 37q10 0 22.5 -8t18.5 -15l147 -148h-39z" />
    <glyph glyph-name="a" unicode="a" horiz-adv-x="444" 
d="M350 54q0 -12 4.5 -16t12.5 -4q7 0 14 3.5t12 8t9.5 8t7.5 3.5q4 0 8.5 -4t4.5 -7q0 -5 -10.5 -14.5t-26 -20t-33 -18t-30.5 -7.5q-27 0 -37 16t-18 42q-22 -17 -39 -28.5t-32 -18t-28.5 -9t-29.5 -2.5q-29 0 -48 9.5t-29.5 23t-14.5 29t-4 27.5q0 19 7.5 37t31.5 37.5
t68.5 42t118.5 49.5v91q0 19 -10 34t-23.5 25t-27.5 15t-23 5t-21 -6t-23 -13.5t-19 -15t-8 -11.5q0 -11 6.5 -22t6.5 -28q0 -4 -2 -10.5t-7.5 -12.5t-15 -10.5t-24.5 -4.5q-13 0 -21 4t-12.5 10t-6.5 12.5t-2 10.5q0 10 2.5 18.5t10.5 18t24.5 22t44.5 31.5
q28 18 45.5 28.5t28.5 15t18.5 5.5t15.5 1q12 0 33 -5t41 -18t35 -35.5t15 -56.5v-285zM269 202q0 10 -7 10q-2 0 -15 -5.5t-29 -13t-32 -16t-23 -14.5q-21 -16 -27 -30.5t-6 -42.5q0 -23 10.5 -42.5t36.5 -19.5q14 0 30.5 5.5t30 14t22.5 17.5t9 16v121z" />
    <glyph glyph-name="b" unicode="b" horiz-adv-x="537" 
d="M169 409q27 24 53.5 35.5t67.5 11.5q37 0 74.5 -12.5t68 -40.5t49.5 -72t19 -108t-20.5 -109t-52 -73.5t-69.5 -41.5t-72 -13q-29 0 -52 6t-42 13.5t-34 13.5t-26 6q-10 0 -15 -4.5t-9 -10t-7 -10t-8 -4.5q-6 0 -7 4.5t-1 8.5q0 11 1 22t1 29v522q0 33 -1.5 52.5t-7 30.5
t-17 15t-32.5 6q-9 1 -9 12q0 12 8 14q30 5 54.5 12.5t42 14t28 11.5t14.5 5q6 0 6 -11q0 -2 -1 -6t-1.5 -18.5t-1.5 -42.5t-1 -77v-191zM169 145q0 -63 25 -98t85 -35q41 0 66 18.5t38.5 47t18 63.5t4.5 68q0 27 -3.5 64.5t-17 71t-40 57.5t-72.5 24q-48 0 -76 -26t-28 -73
v-182z" />
    <glyph glyph-name="c" unicode="c" horiz-adv-x="444" 
d="M293 42q28 0 57 14.5t44 27.5q6 5 9.5 10.5t7.5 5.5q2 0 8.5 -4.5t6.5 -9.5q0 -7 -8 -15q-75 -85 -175 -85q-44 0 -81.5 15t-65.5 44t-44 71t-16 96q0 55 17.5 99.5t48 75t72 47t89.5 16.5q51 0 83 -12t50 -27.5t24 -31.5t6 -24q0 -5 -3 -12t-9.5 -14t-16.5 -12t-24 -5
q-12 0 -19.5 2.5t-12 9.5t-8 19.5t-7.5 33.5q-1 6 -3.5 14t-9 15.5t-18.5 12.5t-31 5q-24 0 -49 -10t-45.5 -34.5t-33.5 -65.5t-13 -102q0 -17 5 -45.5t22.5 -56.5t51.5 -48t91 -20z" />
    <glyph glyph-name="d" unicode="d" horiz-adv-x="537" 
d="M368 582q0 33 -1.5 52.5t-7 30.5t-17 15t-32.5 6q-9 1 -9 12q0 12 8 14q30 5 54.5 12.5t42 14t28 11.5t14.5 5q6 0 6 -11q0 -2 -1 -6t-1.5 -18.5t-1.5 -42.5t-1 -77v-515q0 -10 1 -18.5t6 -14.5t15.5 -9.5t30.5 -3.5q2 0 5 -3t3 -8t-1.5 -9.5t-5.5 -5.5l-58.5 -13
t-35.5 -8t-19 -4.5t-9 -1.5q-11 0 -11 10q0 11 1.5 20.5t1.5 22.5q-29 -25 -64 -39t-73 -14q-47 0 -83 17t-61 46t-37.5 68t-12.5 83q0 62 20.5 109t52.5 78.5t71.5 47.5t77.5 16q15 0 27 -1t23 -3t24 -6.5t30 -11.5v153zM368 342q0 9 -3 23t-13.5 27.5t-30.5 23t-55 9.5
q-43 0 -69.5 -20t-41.5 -49t-20.5 -61t-5.5 -55q0 -81 18 -125.5t42 -65t47 -24.5t34 -4q15 0 32.5 4.5t32 14.5t24 26.5t9.5 41.5v234z" />
    <glyph glyph-name="e" unicode="e" horiz-adv-x="463" 
d="M124 270q-2 -14 -3 -28.5t-1 -28.5q0 -24 10.5 -53t31 -54t51 -41.5t71.5 -16.5q35 0 64 12.5t53 47.5q5 6 8 11.5t7 5.5q5 0 10.5 -5t5.5 -7q0 -1 -8.5 -21t-28 -43.5t-53 -43t-82.5 -19.5q-107 0 -162.5 61.5t-55.5 166.5q0 54 17 98t44.5 75.5t63.5 49t75 17.5
q62 0 98 -23t54 -52.5t22.5 -58t4.5 -39.5q0 -8 -3 -9.5t-9 -1.5h-285zM296 300q15 0 24.5 6.5t9.5 26.5q0 29 -9 47.5t-22.5 29t-28.5 14.5t-28 4q-27 0 -46.5 -10.5t-33 -28t-21 -41t-11.5 -48.5h166z" />
    <glyph glyph-name="f" unicode="f" horiz-adv-x="315" 
d="M192 83q0 -14 1 -25t5.5 -18.5t14.5 -11.5t29 -4q28 0 34.5 -2t6.5 -10q0 -10 -3.5 -12t-11.5 -2q-27 0 -53 1t-61 1q-30 0 -49 -0.5t-30.5 -0.5t-17.5 -0.5t-9 -0.5q-9 0 -9 13q0 8 3.5 10.5t17.5 2.5q32 0 41.5 9.5t9.5 41.5v279q0 9 -2.5 20.5t-16.5 11.5h-55
q-5 0 -8.5 1.5t-3.5 11.5q0 6 6.5 9.5t24.5 7.5q15 3 24.5 6t15 8.5t8.5 15t4 26.5q4 57 15 101.5t31 77.5t51.5 54.5t75.5 33.5q12 3 29.5 5.5t31.5 2.5q10 0 21 -2t20.5 -7t15.5 -13.5t6 -20.5q0 -22 -12 -35.5t-35 -13.5q-7 0 -22 4t-33 19q-13 11 -25 17t-19 6
q-21 0 -34.5 -14t-20.5 -35.5t-9.5 -47t-2.5 -48.5v-129h124q10 0 10 -21q0 -10 -5.5 -17.5t-21.5 -7.5q-3 0 -16.5 1t-31 1.5t-34 1.5t-25.5 1v-303z" />
    <glyph glyph-name="g" unicode="g" 
d="M320 42q51 0 79 -14.5t40.5 -34t14.5 -39.5t2 -31q0 -57 -28 -94.5t-71 -60t-93.5 -31.5t-96.5 -9q-24 0 -47.5 4t-41.5 14.5t-29 28.5t-11 47q0 23 8 43.5t20.5 38.5t28 34t30.5 31q-23 2 -41.5 19.5t-18.5 41.5q0 22 5.5 39t16 30.5t24.5 24.5t31 23q-44 23 -61 58.5
t-17 83.5q0 35 15 65t39.5 52t56.5 34.5t66 12.5q31 0 63.5 -10t57.5 -29q31 20 49.5 25t35.5 5q24 0 38.5 -6t23 -14.5t11 -18t2.5 -17.5q0 -11 -11 -23t-27 -12q-10 0 -19 9t-18 19.5t-16.5 19.5t-14.5 9q-13 0 -20 -4t-18 -9q7 -8 14 -20t12 -26t8.5 -27.5t3.5 -23.5
q0 -81 -47.5 -126.5t-130.5 -45.5q-5 0 -14 0.5t-19.5 1.5t-21 3.5t-17.5 5.5q-12 -7 -26.5 -22.5t-14.5 -41.5q0 -22 15 -27.5t32 -5.5h148zM241 154q31 0 48.5 17.5t26.5 42t11 50.5t2 42q0 6 -1.5 25.5t-9 40.5t-25 38t-48.5 17q-35 0 -54 -19t-28 -44.5t-10.5 -51.5
t-1.5 -39q0 -22 4 -43.5t14.5 -38t28 -27t43.5 -10.5zM160 -34q-2 0 -12.5 -8t-22 -21.5t-21 -31.5t-9.5 -39q0 -5 3 -20t16.5 -31t42.5 -28.5t82 -12.5q86 0 126.5 27t40.5 86q0 46 -26.5 62.5t-75.5 16.5h-144z" />
    <glyph glyph-name="h" unicode="h" horiz-adv-x="556" 
d="M174 390q39 26 75 43t82 17q13 0 35 -3.5t43.5 -18t37.5 -44.5t16 -84v-240q0 -6 1.5 -12.5t8 -12t19.5 -8.5t36 -3q8 0 9 -4t1 -9t-1.5 -9t-12.5 -4t-21 0.5t-21 0.5t-25 0.5t-34 0.5q-30 0 -49.5 -0.5t-30.5 -0.5t-16.5 -0.5t-8.5 -0.5q-5 0 -6 4t-1 8t2.5 9t11.5 5
q36 0 46.5 6t10.5 31v179q0 35 -3 63.5t-14 49t-33.5 31.5t-61.5 11q-16 0 -32.5 -3.5t-30 -8.5t-23 -12t-10.5 -13v-265q0 -21 1 -34.5t5.5 -21t13.5 -10.5t26 -3q20 0 24.5 -2t4.5 -11q0 -5 -1 -9t-9 -4q-2 0 -6 0.5t-13.5 0.5t-26 0.5t-42.5 0.5q-35 0 -58.5 -0.5
t-38 -0.5t-22 -0.5t-11.5 -0.5q-6 0 -7 3.5t-1 7.5q0 10 5 12.5t33 2.5q16 0 23.5 6.5t12.5 17.5q1 3 2.5 26.5t2 53l1 59t0.5 45.5v350q0 33 -1.5 52.5t-7 30.5t-17 15t-32.5 6q-9 1 -9 12q0 12 8 14q30 5 54.5 12.5t42 14t28 11.5t14.5 5q6 0 6 -11q0 -2 -1 -6t-1.5 -18.5
t-1.5 -42.5t-1 -77v-210z" />
    <glyph glyph-name="i" unicode="i" horiz-adv-x="278" 
d="M138 603q-23 0 -37.5 16.5t-14.5 36.5t14.5 36.5t37.5 16.5t37.5 -16.5t14.5 -36.5t-14.5 -36.5t-37.5 -16.5zM179 93q0 -21 1 -34.5t5.5 -21t13.5 -10.5t26 -3t20.5 -2t3.5 -11q0 -5 -1 -9t-9 -4q-2 0 -6 0.5t-13 0.5t-24.5 0.5t-39.5 0.5q-35 0 -58.5 -0.5t-38.5 -0.5
t-23.5 -0.5t-14.5 -0.5t-7 3.5t-1 7.5q0 10 5 12.5t33 2.5q20 0 28 6.5t13 17.5q1 3 2.5 17t2 34.5t1 44.5t0.5 48v137q0 26 -10.5 41t-48.5 19q-6 1 -7.5 4t-1.5 8q0 12 8 14q43 9 68.5 17.5t40 15.5t20.5 11.5t11 4.5q6 0 6 -11q0 -2 -1 -6t-1.5 -18.5t-1.5 -42.5t-1 -77
v-216z" />
    <glyph glyph-name="j" unicode="j" horiz-adv-x="259" 
d="M138 603q-23 0 -37.5 16.5t-14.5 36.5t14.5 36.5t37.5 16.5t37.5 -16.5t14.5 -36.5t-14.5 -36.5t-37.5 -16.5zM98 329q0 26 -10.5 41t-48.5 19q-6 1 -7.5 4t-1.5 8q0 12 8 14q43 9 68.5 17.5t40 15.5t20.5 11.5t11 4.5q6 0 6 -11q0 -2 -1 -6t-1.5 -18.5t-1.5 -42.5
t-1 -77v-323q0 -33 -12.5 -65t-31 -60.5t-40 -53t-40.5 -42t-32.5 -27.5t-15.5 -10q-8 0 -11.5 7t-3.5 11q0 10 15.5 19.5t27.5 21.5q24 23 36.5 47.5t18.5 52.5t7 58.5t1 65.5v318z" />
    <glyph glyph-name="k" unicode="k" horiz-adv-x="500" 
d="M174 226q11 0 24.5 6t31.5 20.5t42.5 37.5t56.5 56q5 5 12 14t7 20q0 19 -14.5 23t-37.5 4q-8 0 -10 2.5t-2 10.5q0 13 10 13q26 0 50.5 -1t50.5 -1q23 0 46.5 1t46.5 1q3 0 6 -1t3 -9q0 -12 -4.5 -14t-27.5 -2q-6 0 -23.5 -7t-49.5 -35q-45 -39 -71 -62.5t-39 -36
t-16.5 -17t-3.5 -6.5t3 -7t17.5 -22t43.5 -50t81 -92q15 -17 25 -26.5t20.5 -14.5t23.5 -6t34 -1q8 0 11 -3t3 -13t-11 -10q-8 0 -16.5 0.5t-21.5 0.5t-33 0.5t-50 0.5q-12 0 -27 -0.5t-29 -0.5t-25 -0.5t-14 -0.5q-7 0 -8 3t-1 11q0 12 11 12q1 0 6.5 0.5t11.5 2t11 3.5
t5 5q0 4 -4.5 10t-18 21.5t-38 44t-65.5 76.5q-8 9 -16.5 11t-16.5 2v-131q0 -11 2 -19t9 -14t21.5 -9t38.5 -3q5 0 5 -13q0 -5 -1.5 -9t-9.5 -4q-2 0 -6 0.5t-13.5 0.5t-26 0.5t-42.5 0.5q-35 0 -58.5 -0.5t-38 -0.5t-21.5 -0.5t-10 -0.5q-6 0 -7 3.5t-1 7.5q0 10 1 12.5
t4 2.5q1 0 10.5 0.5t20.5 2t21 4t13 7.5q3 4 4.5 16t2.5 34.5t1 57.5v86v350q0 33 -1.5 52.5t-7 30.5t-17 15t-32.5 6q-9 1 -9 12q0 12 8 14q30 5 54.5 12.5t42 14t28 11.5t14.5 5q6 0 6 -11q0 -2 -1 -6t-1.5 -18.5t-1.5 -42.5t-1 -77v-374z" />
    <glyph glyph-name="l" unicode="l" horiz-adv-x="278" 
d="M179 93q0 -21 1 -34.5t5.5 -21t13.5 -10.5t26 -3q20 0 24.5 -2t4.5 -11q0 -5 -1 -9t-9 -4q-2 0 -6 0.5t-13.5 0.5t-26 0.5t-42.5 0.5q-35 0 -58.5 -0.5t-38 -0.5t-22 -0.5t-11.5 -0.5q-6 0 -7 3.5t-1 7.5q0 10 5 12.5t33 2.5q16 0 23.5 6.5t12.5 17.5q1 3 2.5 26.5t2 53
l1 59t0.5 45.5v350q0 33 -1.5 52.5t-7 30.5t-17 15t-32.5 6q-9 1 -9 12q0 12 8 14q30 5 54.5 12.5t42 14t28 11.5t14.5 5q6 0 6 -11q0 -2 -1 -6t-1.5 -18.5t-1.5 -42.5t-1 -77v-507z" />
    <glyph glyph-name="m" unicode="m" horiz-adv-x="833" 
d="M91 329q0 26 -10.5 41t-48.5 19q-6 1 -7.5 4t-1.5 8q0 12 8 14q43 9 68.5 17.5t40 15.5t20.5 11.5t11 4.5q3 0 3 -11q0 -5 -1 -21.5t-1 -45.5q10 7 31 18t46.5 21.5t51.5 17.5t47 7q37 0 63.5 -17t45.5 -48q20 12 38 23.5t36 21t37 15t42 5.5q13 0 35 -2.5t43.5 -14.5
t37.5 -36.5t16 -68.5v-266q0 -6 1.5 -12.5t8 -12t19.5 -8.5t36 -3q8 0 9 -4t1 -9t-1.5 -9t-12.5 -4t-21 0.5t-21 0.5t-25 0.5t-34 0.5q-30 0 -49.5 -0.5t-30.5 -0.5t-16.5 -0.5t-8.5 -0.5q-5 0 -6 4t-1 8t2.5 9t11.5 5q36 0 46.5 6t10.5 31v259q0 5 -2.5 18.5t-13 27.5
t-31 25t-55.5 11q-17 0 -35 -7t-33 -16.5t-24.5 -18.5t-9.5 -13v-256q0 -21 1 -34.5t5.5 -21t13.5 -10.5t26 -3q20 0 24.5 -2t4.5 -11q0 -5 -1 -9t-9 -4q-2 0 -6.5 0.5t-15.5 0.5t-30.5 0.5t-52.5 0.5q-30 0 -49.5 -0.5t-30.5 -0.5t-16.5 -0.5t-8.5 -0.5q-5 0 -6 4t-1 8
t2.5 9t11.5 5q36 0 46.5 6.5t10.5 32.5v259q0 14 -2.5 28.5t-13 26.5t-31 19.5t-55.5 7.5q-17 0 -35 -7t-33 -16.5t-24.5 -18.5t-9.5 -13v-256q0 -21 1 -34.5t5.5 -21t13.5 -10.5t26 -3q20 0 24.5 -2t4.5 -11q0 -5 -1 -9t-9 -4q-2 0 -6 0.5t-13.5 0.5t-26 0.5t-42.5 0.5
q-35 0 -57 -0.5t-35 -0.5t-20 -0.5t-13 -0.5t-7 3.5t-1 7.5q0 10 4 12.5t24 2.5t28 6.5t13 17.5q1 3 2.5 17t2 34.5t1 44.5t0.5 48v137z" />
    <glyph glyph-name="n" unicode="n" horiz-adv-x="556" 
d="M174 93q0 -21 1 -34.5t5.5 -21t13.5 -10.5t26 -3q20 0 24.5 -2t4.5 -11q0 -5 -1 -9t-9 -4q-2 0 -6 0.5t-13.5 0.5t-26 0.5t-42.5 0.5q-35 0 -58.5 -0.5t-38.5 -0.5t-23.5 -0.5t-14.5 -0.5t-7 3.5t-1 7.5q0 10 5 12.5t33 2.5q20 0 28 6.5t13 17.5q1 3 2.5 17t2 34.5
t1 44.5t0.5 48v137q0 26 -10.5 41t-48.5 19q-6 1 -7.5 4t-1.5 8q0 12 8 14q43 9 68.5 17.5t40 15.5t20.5 11.5t11 4.5q3 0 3 -11q0 -5 -1 -22t-1 -50q39 26 77.5 47.5t79.5 21.5q13 0 35 -3.5t43.5 -18t37.5 -44.5t16 -84v-240q0 -6 1.5 -12.5t8 -12t19.5 -8.5t36 -3
q8 0 9 -4t1 -9t-1.5 -9t-12.5 -4t-21 0.5t-21 0.5t-25 0.5t-34 0.5q-30 0 -49.5 -0.5t-30.5 -0.5t-16.5 -0.5t-8.5 -0.5q-5 0 -6 4t-1 8t2.5 9t11.5 5q36 0 46.5 6t10.5 31v179q0 35 -3 63.5t-14 49t-33.5 31.5t-61.5 11q-14 0 -30.5 -5.5t-30.5 -13t-24 -15.5t-11 -12v-256
z" />
    <glyph glyph-name="o" unicode="o" horiz-adv-x="537" 
d="M501 218q0 -53 -16.5 -95.5t-47.5 -73t-74 -47t-95 -16.5q-51 0 -94 17.5t-73.5 48.5t-47.5 73.5t-17 92.5q0 49 17.5 91.5t48.5 74t73.5 49t92.5 17.5t93 -17.5t74 -48t48.5 -73t17.5 -93.5zM406 218q0 37 -7 73.5t-23 66t-42.5 48t-65.5 18.5t-65.5 -18.5t-42 -48
t-22.5 -66t-7 -73.5q0 -32 5 -68t19.5 -67t41.5 -51t71 -20t71 20t42 51t20 67t5 68z" />
    <glyph glyph-name="p" unicode="p" horiz-adv-x="537" 
d="M88 289q0 33 -1.5 52.5t-7 30.5t-17 15t-32.5 6q-9 1 -9 12q0 12 8 14q30 5 54.5 12.5t42 14t28 11.5t14.5 5q3 0 3.5 -4.5t0.5 -9.5q0 -10 -1.5 -26t-1.5 -34q33 23 65 41.5t77 18.5q48 0 83.5 -20t59.5 -53t35.5 -74t11.5 -83q0 -53 -13 -95.5t-40.5 -73t-69.5 -47
t-99 -16.5q-24 0 -39 1.5t-26.5 3.5t-21.5 5.5t-23 6.5v-182q0 -18 1.5 -29t9 -17.5t24 -8.5t46.5 -2q5 0 5 -11q0 -8 -1.5 -11.5t-8.5 -3.5q-6 0 -34.5 1.5t-72.5 1.5q-29 0 -57.5 -1.5t-53.5 -1.5q-10 0 -10 12q0 9 2 11.5t7 2.5q23 0 35.5 2t18.5 8t7 16.5t1 28.5v470z
M169 89q0 -13 6 -26.5t20 -25t36.5 -18.5t54.5 -7q35 0 58.5 16.5t37 42t19 56t5.5 59.5q0 33 -5.5 71.5t-20.5 72.5t-41.5 56.5t-68.5 22.5q-17 0 -35 -6.5t-32.5 -17.5t-24 -25.5t-9.5 -29.5v-241z" />
    <glyph glyph-name="q" unicode="q" horiz-adv-x="537" 
d="M449 -180q0 -18 1 -29.5t7 -17.5t19.5 -8.5t38.5 -2.5q5 0 5 -12q0 -5 -2 -9.5t-13 -4.5q-17 0 -46.5 1.5t-82.5 1.5q-25 0 -41 -0.5t-25.5 -1t-14.5 -1t-8 -0.5t-4 5.5t-1 9.5q0 11 4 11q30 0 47 1.5t24.5 6.5t9 14.5t1.5 26.5v195q-8 -3 -23.5 -6.5t-33.5 -6.5t-36 -5
t-31 -2q-30 0 -51 4t-34.5 9.5t-21 10.5t-11.5 8q-23 18 -39 41.5t-26 49t-14.5 52.5t-4.5 51q0 49 15.5 92.5t44 75.5t69.5 51t92 19q29 0 51.5 -3.5t40 -7t30 -7t21.5 -3.5q13 0 24 10.5t15 10.5q5 0 7 -2.5t2 -11.5q0 -15 -1 -43t-1.5 -77.5t-1.5 -126.5t-1 -189v-180z
M368 306q0 32 -13 54.5t-31.5 36.5t-38.5 20.5t-34 6.5q-41 0 -64 -21.5t-34 -50t-13.5 -57t-2.5 -41.5q0 -41 6 -83t23.5 -76t49 -55t82.5 -21q6 0 17.5 0.5t23.5 3t20.5 6.5t8.5 11v266z" />
    <glyph glyph-name="r" unicode="r" horiz-adv-x="389" 
d="M98 329q0 26 -10.5 41t-48.5 19q-6 1 -7.5 4t-1.5 8q0 12 8 14q43 9 68.5 17.5t40 15.5t20.5 11.5t11 4.5q2 0 3 -3.5t1 -6.5q0 -9 -2.5 -29.5t-2.5 -61.5q12 14 28 29.5t34.5 28t38 21t39.5 8.5q26 0 45 -14t19 -42q0 -20 -13.5 -35t-35.5 -15q-15 0 -25 6t-17.5 13
t-15.5 13t-19 6q-13 0 -31.5 -11t-37.5 -32q-5 -6 -6 -13.5t-1 -15.5v-227q0 -14 1 -25t5.5 -18.5t14.5 -11.5t29 -4q28 0 34.5 -2t6.5 -10q0 -10 -3.5 -12t-11.5 -2q-27 0 -53 1t-61 1q-30 0 -49 -0.5t-31.5 -0.5t-20.5 -0.5t-15 -0.5q-9 0 -9 13t31 13q32 0 41.5 9.5
t9.5 41.5v254z" />
    <glyph glyph-name="s" unicode="s" horiz-adv-x="370" 
d="M156 282q39 -19 72 -30.5t56 -26t36 -38t13 -65.5q0 -18 -6 -41.5t-24 -44.5t-50 -35.5t-83 -14.5q-7 0 -20 1t-29.5 2.5t-33.5 3t-32 1.5q-5 0 -5 5q0 4 -4 20t-8 34t-7.5 34t-3.5 20q0 5 7.5 5.5t10.5 0.5q9 0 16.5 -16t19.5 -34.5t33 -34.5t57 -16q27 0 44.5 9
t28 22.5t14.5 29t4 28.5q0 26 -16.5 42t-41.5 28t-54 22.5t-54 25.5t-41.5 37t-16.5 58q0 31 12 56t32.5 43t48 27.5t59.5 9.5q17 0 35.5 -1.5t34 -3t26 -3t12.5 -1.5q10 -2 12.5 -12.5t2.5 -15.5q2 -31 6.5 -50.5t4.5 -29.5q0 -5 -3.5 -6.5t-7.5 -1.5q-7 0 -11.5 2t-8.5 12
q-3 6 -9.5 20.5t-18.5 28.5t-30.5 25t-45.5 11q-35 0 -57.5 -19.5t-22.5 -55.5q0 -26 15 -42.5t32 -24.5z" />
    <glyph glyph-name="t" unicode="t" horiz-adv-x="333" 
d="M172 176q0 -40 2.5 -67.5t11.5 -44.5t26.5 -24.5t47.5 -7.5q13 0 24.5 3.5t20.5 8t15 8t8 3.5q3 0 7 -5.5t4 -10.5q0 -2 -8 -10.5t-24.5 -18t-41.5 -17t-59 -7.5q-43 0 -66.5 16t-34 37t-12.5 41.5t-2 29.5v263q0 13 -10 13h-50q-6 0 -6 9q0 3 1 7t5 7q35 26 57 48.5
t36.5 39t22.5 26t16 9.5q5 0 8.5 -3t3.5 -10t-0.5 -14t-1 -17.5t-1 -25t-0.5 -35.5h154q10 0 10 -21q0 -10 -5.5 -17.5t-21.5 -7.5q-5 0 -39.5 2.5t-97.5 2.5v-210z" />
    <glyph glyph-name="u" unicode="u" horiz-adv-x="537" 
d="M89 310q0 33 -2.5 52t-9 28t-19 11.5t-31.5 2.5q-6 0 -14 1t-8 9q0 6 1.5 13t9.5 7t21 -1.5t38 -1.5q26 0 51 1.5t36 1.5q5 0 6.5 -1.5t1.5 -12.5v-270q0 -57 21 -87.5t77 -30.5q13 0 30.5 4t32.5 11t25.5 16.5t10.5 21.5v259q0 20 -2.5 32t-9 18t-19 8t-31.5 2
q-14 0 -23 1t-9 9q0 11 1 15.5t6 4.5t11 -0.5t15 -1t23.5 -1t37.5 -0.5q19 0 38 1.5t38 1.5q14 0 14 -14q0 -2 -1.5 -15.5t-3 -35t-3 -48t-1.5 -53.5v-188q0 -12 3 -24.5t22 -12.5q11 0 24.5 2t18.5 2q3 0 4.5 -2.5t1.5 -16.5q0 -5 -4.5 -7t-28.5 -6q-32 -5 -53 -10
t-34 -8.5t-19.5 -5.5t-8.5 -2q-5 0 -8.5 4.5t-3.5 9.5q0 9 1 19.5t2 18.5q-38 -28 -79 -41.5t-70 -13.5q-37 0 -61.5 11.5t-39 33.5t-20.5 53t-6 70v156z" />
    <glyph glyph-name="v" unicode="v" horiz-adv-x="463" 
d="M250 104q35 78 56.5 127t33.5 78t16 44t4 25q0 11 -8.5 17t-19.5 8.5t-22 3t-17 0.5q-9 0 -9 14q0 4 3 8t10 4q20 0 42.5 -1t43.5 -1q22 0 44 1t44 1q5 0 7 -4t2 -8q0 -5 -1.5 -7.5t-8.5 -3.5q-22 -3 -34.5 -7t-21.5 -13t-17 -25.5t-20 -45.5q-13 -32 -30 -70t-33 -73.5
t-29.5 -65t-20.5 -45.5q-11 -25 -18 -40.5t-12 -24t-8.5 -11.5t-6.5 -3q-8 0 -15.5 16l-22.5 48q-9 19 -21 50t-25.5 67t-27.5 73t-25.5 68.5t-20.5 53.5t-12 27q-8 11 -16 13.5t-19 2.5q-20 0 -25.5 3t-5.5 14t11 11q24 0 47.5 -1t47.5 -1q7 0 24 0.5t35.5 0.5t35 0.5
t24.5 0.5q5 0 6.5 -5t1.5 -9t-2.5 -8t-7.5 -4q-23 0 -40.5 -4t-17.5 -20q0 -8 6 -29t15.5 -48.5t21.5 -58t23.5 -59t21 -51t14.5 -33.5z" />
    <glyph glyph-name="w" unicode="w" horiz-adv-x="704" 
d="M287 107q-16 -33 -25.5 -56t-16.5 -37.5t-11.5 -21t-10.5 -6.5q-5 0 -8 3.5t-8 14.5t-12.5 31t-20.5 53q-33 87 -54 142t-33.5 87.5t-18 46.5t-8.5 18q-8 14 -20.5 19.5t-34.5 5.5q-5 0 -9 1t-4 9v8q0 8 11 8q24 0 47.5 -1t47.5 -1q4 0 18.5 0.5t32 0.5t34 0.5t24.5 0.5
q5 0 6.5 -5t1.5 -9t-2.5 -8t-7.5 -4q-3 0 -11.5 -0.5t-18 -2.5t-16.5 -6.5t-7 -13.5q0 -4 7 -24t17.5 -47.5t22.5 -59.5t23.5 -61t19.5 -51.5t10 -30.5h2q2 6 9.5 21.5t18 36t21.5 42.5t20.5 41.5t15.5 33.5t6 18q0 7 -3.5 20.5t-8 28.5t-10 28t-8.5 19q-2 4 -7.5 6t-18.5 2
q-14 0 -18 3t-4 11q0 12 13 12q14 0 28.5 -1t49.5 -1q28 0 51 1t45 1q5 0 7 -4t2 -8q0 -5 -2 -9.5t-10 -4.5q-16 0 -25 -2t-13.5 -4t-5.5 -5t-1 -4q0 -7 5.5 -27.5t14.5 -48t19.5 -59.5t20 -61t17 -52t9.5 -34h2q4 13 13 35.5t20.5 49.5t23 56t21.5 55t16 46t6 30
q0 11 -11 15.5t-32 9.5q-5 1 -9 3.5t-4 10.5q0 12 13 12q5 0 11 -0.5t15.5 -0.5t23.5 -0.5t36 -0.5q28 0 43 1t22 1q5 0 7 -4t2 -8q0 -5 -3.5 -9.5t-11.5 -4.5q-18 0 -29.5 -2.5t-19.5 -10t-15 -21t-17 -36.5q-6 -14 -18 -43.5t-26.5 -67t-30.5 -77.5t-29.5 -73.5
t-23.5 -56.5t-12 -26q-5 -7 -12 -7t-10 4.5t-5 9.5q-23 66 -43 131.5t-43 132.5z" />
    <glyph glyph-name="x" unicode="x" horiz-adv-x="444" 
d="M245 262q6 8 18.5 24t24.5 34t21.5 35t9.5 26q0 10 -5.5 15t-13 7.5t-14.5 3t-10 0.5q-5 0 -7 5t-2 8q0 13 10 13q18 0 38 -1t46 -1q33 0 47 1t22 1q4 0 6.5 -5t2.5 -8q0 -7 -5 -9.5l-7 -3.5q-20 -4 -33.5 -9t-28.5 -21t-37 -47t-59 -86q-1 -2 -2 -5t-1 -8q0 -2 4.5 -9.5
t16 -27t31.5 -53.5t52 -88q8 -12 25 -20.5t45 -8.5q5 0 6.5 -6t1.5 -9q0 -8 -3 -9.5t-8 -1.5q-26 0 -53 1t-53 1q-23 0 -47 -1t-47 -1q-13 0 -13 13t11 13q3 0 9 0.5t12 3t10.5 6.5t4.5 11q0 6 -2.5 14t-10 22.5t-21 37.5t-34.5 59q-49 -60 -69.5 -89.5t-20.5 -45.5
q0 -6 5.5 -9.5t13 -5.5t14.5 -3t11 -1q9 0 12 -3.5t3 -11.5q0 -11 -10 -11q-22 0 -43.5 1t-43.5 1q-20 0 -39 -1t-35 -1q-4 0 -5 4.5t-1 8.5q0 13 17 13q7 0 22.5 4.5t23.5 13.5q6 6 33 40.5t81 97.5q8 8 10.5 12.5t2.5 10.5q0 3 -2 6t-4 8q-33 59 -53 92.5t-31.5 51
t-16.5 22.5l-7 7q-9 9 -20 13t-31 4q-7 0 -8.5 4t-1.5 11q0 11 14 11q23 0 47 -1t47 -1t45 1t45 1q6 0 7.5 -5t1.5 -10q0 -10 -10 -11q-21 -6 -25.5 -9t-4.5 -10q0 -4 1.5 -9t8.5 -18t20.5 -36t37.5 -63z" />
    <glyph glyph-name="y" unicode="y" horiz-adv-x="481" 
d="M253 71q17 36 39.5 83t42.5 92t33.5 80t13.5 47t-8 19t-19.5 10.5t-25 4t-24.5 0.5q-7 0 -8.5 3.5t-1.5 9.5q0 13 9 13q24 0 48.5 -1t48.5 -1q23 0 46.5 1t46.5 1q5 0 6 -5t1 -8q0 -7 -3 -9.5t-14 -3.5q-26 -2 -39 -10t-24 -34q-9 -21 -25.5 -57t-36.5 -79t-41.5 -89
t-40 -86.5t-33 -72t-19.5 -45.5q-29 -72 -50.5 -113.5t-38 -62t-29.5 -25.5t-25 -5q-24 0 -40 18t-16 41t18 38.5t40 15.5q19 0 30 -8.5t20 -8.5q7 0 18 15.5t21.5 38t18 47t7.5 42.5q0 9 -4 24t-9.5 31t-11.5 31t-10 26q-24 61 -40 108t-27.5 84t-19.5 64.5t-16 48.5
q-3 9 -13 13.5t-21.5 6.5t-22 2.5t-15.5 0.5t-7 4.5t-2 9.5q0 12 11 12q4 0 17 -0.5t29.5 -0.5t33.5 -0.5t31 -0.5q26 0 51 1t48 1q8 0 10 -4t2 -9q0 -4 -2.5 -8.5t-7.5 -4.5q-2 0 -10 -0.5t-16.5 -2.5t-15.5 -6.5t-7 -12.5q0 -36 25 -112t74 -202z" />
    <glyph glyph-name="z" unicode="z" horiz-adv-x="444" 
d="M272 30q37 0 58 4.5t36 31.5l33 55q9 15 13 20t13 5q11 0 11 -11q0 -2 -3 -12t-7.5 -26.5t-10.5 -37.5t-11 -44q-3 -13 -11 -15t-18 -2t-36.5 1t-68.5 1h-218q-13 0 -13 8q0 3 2 6t4 7q53 94 116.5 189.5t130.5 190.5q-26 1 -43.5 1.5t-34.5 0.5q-21 0 -40.5 -1t-37 -7
t-32 -18.5t-24.5 -34.5q-9 -21 -14 -25.5t-13 -4.5q-4 0 -7.5 2t-3.5 7t3 17.5t7.5 29t8.5 36.5t6 41q0 2 2.5 6t7.5 4q8 0 14 -7.5t11 -11.5q3 -2 10.5 -3t18.5 -1.5t24 -0.5h25q41 0 78 1t66 1.5t47.5 1.5t23.5 1q2 0 5.5 -1.5t3.5 -3.5q0 -3 -6.5 -12t-20.5 -28
t-36 -49.5t-52 -78.5q-6 -10 -23 -34.5t-38.5 -57t-46 -69.5t-46.5 -72h137z" />
    <glyph glyph-name="braceleft" unicode="{" horiz-adv-x="315" 
d="M38 258q0 10 11.5 11t28.5 8q16 6 29.5 28.5t13.5 60.5v191q0 49 9 79.5t28 47.5t48 23t69 6q8 0 11.5 -1.5t3.5 -11.5t-3.5 -11.5t-11.5 -1.5q-43 0 -62 -24.5t-19 -77.5v-193q0 -28 -3 -50t-12.5 -38t-26.5 -27t-45 -17v-4q29 -7 46 -19.5t26 -30t12 -40.5t3 -52v-182
q0 -53 19 -77.5t62 -24.5q8 0 11.5 -1.5t3.5 -11.5t-3.5 -11.5t-11.5 -1.5q-40 0 -69 6t-48 23t-28 47.5t-9 79.5v186q0 40 -13.5 62.5t-29.5 29.5q-17 8 -28.5 9t-11.5 11z" />
    <glyph glyph-name="bar" unicode="|" 
d="M227 701h65v-701h-65v701z" />
    <glyph glyph-name="braceright" unicode="}" horiz-adv-x="315" 
d="M277 259q0 -10 -11.5 -11t-28.5 -8q-16 -6 -29.5 -28.5t-13.5 -60.5v-191q0 -49 -9 -79.5t-28 -47.5t-48 -23t-69 -6q-8 0 -11.5 1.5t-3.5 11.5t3.5 11.5t11.5 1.5q43 0 62 24.5t19 77.5v193q0 28 3 50t12.5 38t26.5 27t45 17v4q-29 7 -46 19.5t-26 30t-12 40.5t-3 52
v182q0 53 -19 77.5t-62 24.5q-8 0 -11.5 1.5t-3.5 11.5t3.5 11.5t11.5 1.5q40 0 69 -6t48 -23t28 -47.5t9 -79.5v-186q0 -40 13.5 -62.5t29.5 -29.5q17 -8 28.5 -9t11.5 -11z" />
    <glyph glyph-name="asciitilde" unicode="~" 
d="M475 300q-11 -20 -23.5 -39.5t-28.5 -35t-36.5 -25t-47.5 -9.5q-22 0 -44 10.5t-42 23.5t-38 23.5t-32 10.5t-26.5 -8.5t-23 -21.5t-20 -29.5t-18.5 -31.5l-51 47q11 20 23.5 39.5t28.5 35t36.5 25t47.5 9.5q22 0 44 -10.5t42 -23.5t38 -23.5t32 -10.5t26.5 8.5t23 21.5
t20 29.5t18.5 31.5z" />
    <glyph glyph-name="uni00A0" unicode="&#xa0;" horiz-adv-x="259" 
 />
    <glyph glyph-name="exclamdown" unicode="&#xa1;" horiz-adv-x="296" 
d="M92 400q0 26 18 41t38 15t38 -15t18 -41t-18 -41t-38 -15t-38 15t-18 41zM132 177q0 20 5 24t11 4t11 -4t5 -24q0 -30 2 -72t5.5 -89.5t7.5 -96.5t9 -92q2 -17 5.5 -34.5t3.5 -34.5t-16 -20t-33 -3q-20 0 -36.5 3t-16.5 20t3.5 34.5t5.5 34.5q4 43 9 92t9.5 96.5t7 89.5
t2.5 72z" />
    <glyph glyph-name="cent" unicode="&#xa2;" 
d="M244 58q34 -16 81 -16q28 0 57 14.5t44 27.5q6 5 9.5 10.5t7.5 5.5q2 0 8.5 -4.5t6.5 -9.5q0 -7 -8 -15q-75 -85 -175 -85q-28 0 -53 7l-12 -34l-12.5 -37.5t-8.5 -10.5q-4 0 -16 3.5t-12 7.5q0 1 1 5t4 12.5t9 24t15 40.5q-54 23 -88 76t-34 133q0 55 17.5 99.5t48 75
t72 47t89.5 16.5q13 0 24 -1t22 -3l6 18l8 24t7 21.5t4 11.5q2 5 8 5q2 0 13 -4t11 -8q0 -7 -5.5 -20.5t-19.5 -53.5q27 -8 43.5 -20t26 -24.5t13 -23.5t3.5 -17q0 -2 -2.5 -9t-8.5 -14.5t-16.5 -13.5t-25.5 -6q-24 0 -33 15t-16 62h-2zM331 418q-6 3 -14.5 5t-20.5 2
q-24 0 -49 -10t-45.5 -34.5t-33.5 -65.5t-13 -103q0 -12 2 -29t8.5 -36t18 -38t31.5 -34z" />
    <glyph glyph-name="sterling" unicode="&#xa3;" 
d="M424 348q8 0 9.5 -2t1.5 -9v-31q0 -5 -1.5 -7.5t-7.5 -2.5h-160q2 -10 2.5 -19t0.5 -18q0 -17 -4.5 -36t-12 -38.5t-16 -38.5t-17.5 -35q55 -33 121 -33q52 0 80.5 22t43.5 48.5t20 48.5t9 22q1 0 5.5 -0.5t9 -2t8 -3t3.5 -2.5q0 -6 -3 -25t-11 -44t-21 -52t-32 -49.5
t-45.5 -37.5t-61.5 -15q-48 0 -85 17.5t-75 46.5q-12 -15 -23 -26t-23 -18.5t-26.5 -11.5t-34.5 -4q-18 0 -34 6t-28 17t-19.5 26t-7.5 34q0 18 6 34t17.5 28t27 19.5t33.5 7.5q32 0 55 -11t51 -25q3 6 6 16.5t5.5 22t4 21.5t1.5 16q0 23 -3.5 47.5t-14.5 44.5h-139
q-7 0 -9 1.5t-2 9.5v33q0 8 9 8h112q-13 18 -28 40t-27.5 45t-21 47t-8.5 46q0 41 19.5 75.5t51 59.5t71 39t78.5 14q53 0 90.5 -15t61.5 -38t35 -49.5t11 -49.5q0 -15 -3.5 -31.5t-12 -29.5t-21.5 -21.5t-31 -8.5q-21 0 -39.5 13.5t-18.5 36.5q0 17 7 28t15.5 20t15.5 18.5
t7 22.5q0 16 -9.5 29.5t-24.5 23.5t-34.5 15.5t-39.5 5.5q-28 0 -52.5 -9t-42.5 -25t-28.5 -39.5t-10.5 -51.5q0 -23 12 -50.5t28 -56t31.5 -55.5t23.5 -49h170zM155 76q-17 14 -38.5 30.5t-44.5 16.5q-21 0 -35 -13t-14 -34q0 -23 17.5 -37t39.5 -14q24 0 43 16t32 35z" />
    <glyph glyph-name="currency" unicode="&#xa4;" 
d="M61 199q-49 66 -49 144q0 40 12 78.5t38 69.5l-54 54l51 52l54 -55q32 26 71.5 38.5t79.5 12.5q39 0 76.5 -12.5t67.5 -36.5l53 53l51 -52l-54 -52q26 -31 39.5 -69.5t13.5 -78.5q0 -39 -12.5 -77t-38.5 -69l52 -53l-49 -51l-53 53q-31 -26 -69 -39t-78 -13
q-42 0 -80.5 13t-70.5 39l-53 -53l-51 51zM93 343q0 -37 13.5 -68t36.5 -54t54 -36t66 -13t65.5 13.5t53 37t35.5 55t13 67.5q0 35 -13 66.5t-35.5 55t-53 37t-64.5 13.5q-35 0 -66.5 -13t-54.5 -36.5t-36.5 -55.5t-13.5 -69z" />
    <glyph glyph-name="yen" unicode="&#xa5;" 
d="M62 173v46h150q0 16 -0.5 27t-2 19t-4.5 16t-9 19h-134v46h117l-123 302q-6 14 -21 24.5t-53 10.5q-5 0 -6.5 5t-1.5 11q0 10 4.5 12t12.5 2q20 0 49.5 -2t61.5 -2q34 0 67 2t59 2q12 0 16 -2.5t4 -12.5q0 -3 -1 -9t-5 -6q-40 0 -60.5 -6.5t-20.5 -24.5q0 -3 3 -14
t12.5 -38t27.5 -74t47 -122q10 -24 17 -45t12 -21q2 0 7 8t12 21.5t14.5 31t15.5 36.5q25 64 40.5 103t24 62t11 33t2.5 15t-1.5 11t-7.5 11.5t-17.5 9t-32.5 3.5q-14 0 -17 4t-3 12q0 14 13 14q4 0 17.5 -0.5t29.5 -1.5t30.5 -1.5t19.5 -0.5q9 0 23 0.5t28 1.5t26 1.5
t17 0.5q13 0 13 -14q0 -16 -14 -16q-35 0 -52.5 -16t-27.5 -39l-116 -282h122v-46h-140q-6 -17 -8 -32.5t-2 -48.5h150v-46h-150v-101q0 -10 3.5 -18t13 -14t27.5 -9t48 -3q21 0 24.5 -4.5t3.5 -12.5q0 -7 -1 -10t-7 -3q-3 0 -7 0.5t-19.5 0.5t-46.5 0.5t-86 0.5t-85.5 -0.5
t-46 -0.5t-19.5 -0.5t-7 -0.5q-6 0 -7 3t-1 10q0 8 3.5 12.5t24.5 4.5q30 0 47.5 3t27 9t12.5 14t3 18v101h-150z" />
    <glyph glyph-name="brokenbar" unicode="&#xa6;" 
d="M227 701h65v-284h-65v284zM227 284h65v-284h-65v284z" />
    <glyph glyph-name="section" unicode="&#xa7;" 
d="M144 578q7 41 27.5 67t47 41t56 20.5t55.5 5.5q14 0 31.5 -3.5t33 -11t26 -19t10.5 -28.5q0 -15 -10.5 -26.5t-26.5 -11.5q-21 0 -35 10t-26.5 22.5t-25.5 22.5t-32 10q-34 0 -52 -23t-18 -55q0 -34 19.5 -65.5t48 -62.5t62.5 -64t62.5 -70.5t48 -81t19.5 -96.5
q0 -19 -3.5 -47t-14.5 -60.5t-31 -68t-52 -68.5q-12 -33 -31.5 -56t-44 -37t-52.5 -20t-56 -6q-14 0 -29.5 3.5t-29 10.5t-22.5 18t-9 27q0 17 14 26.5t30 9.5q18 0 32.5 -8t27.5 -18t25.5 -18t27.5 -8q16 0 29.5 8t23.5 20t16 27.5t6 30.5q0 38 -20 74t-49.5 71.5t-64.5 72
t-64.5 74.5t-49.5 79t-20 86q0 54 22.5 100t67.5 96zM150 546q-20 -26 -32 -57t-12 -64q0 -42 26.5 -84.5t64 -85.5t77.5 -87t66 -87q8 -14 19.5 -45t8.5 -76l2 -2q20 32 35.5 68t15.5 76q0 43 -18 81.5t-45.5 74t-60 69.5t-63 69t-53.5 71.5t-31 78.5z" />
    <glyph glyph-name="dieresis" unicode="&#xa8;" horiz-adv-x="278" 
d="M238 546q-20 0 -34.5 15t-14.5 35q0 19 15 34t34 15q20 0 35 -14.5t15 -34.5t-15 -35t-35 -15zM39 546q-20 0 -34.5 15t-14.5 35q0 19 15 34t34 15q20 0 35 -14.5t15 -34.5t-15 -35t-35 -15z" />
    <glyph glyph-name="copyright" unicode="&#xa9;" horiz-adv-x="840" 
d="M419 -14q-80 0 -148.5 29t-119 79t-79.5 117t-29 143t29 143.5t79.5 117.5t119 79t148.5 29q79 0 148 -29t120 -79t80 -117.5t29 -143.5t-29 -143t-80 -117t-120 -79t-148 -29zM419 38q65 0 122 25t99 68.5t66.5 100.5t24.5 122t-24.5 122.5t-66.5 101t-99 68.5t-122 25
t-122 -25t-99 -68.5t-66 -101t-24 -122.5t24 -122t66 -100.5t99 -68.5t122 -25zM577 424h-32q-5 47 -30.5 76t-74.5 29q-36 0 -62 -14.5t-42.5 -38t-24.5 -54t-8 -61.5q0 -33 8.5 -66t26.5 -58.5t45 -41.5t65 -16t65.5 20t43.5 55l31 -11q-21 -51 -67 -75t-103 -24
q-44 0 -80 15.5t-62 43t-40 65.5t-14 82q0 47 15 85.5t43 66t66 42.5t85 15q37 0 74 -8t72 -19v-108z" />
    <glyph glyph-name="ordfeminine" unicode="&#xaa;" horiz-adv-x="300" 
d="M239 493q0 -13 2.5 -22.5t12.5 -9.5q12 0 19 6.5t12 6.5q10 0 10 -10q0 -3 -7.5 -10t-18 -14.5t-21 -13t-16.5 -5.5q-24 0 -37.5 9t-21.5 26q-19 -12 -42 -23.5t-53 -11.5q-10 0 -20 4.5t-18 12t-13 17.5t-5 20q0 11 5.5 23.5t22 26.5t46.5 28.5t78 30.5v46q0 7 -6.5 14
t-15 11.5t-17.5 7.5t-13 3q-12 0 -26 -8t-14 -16q0 -4 5 -13t5 -17q0 -28 -42 -28q-10 0 -19 6.5t-9 26.5t20.5 35.5t50.5 32.5q14 8 26.5 12t29.5 4q22 0 39 -6.5t28.5 -15.5t17 -19t5.5 -17v-150zM174 558q-3 0 -11 -3.5t-18 -8t-19 -9.5t-14 -9q-12 -9 -16 -19.5
t-4 -23.5q0 -14 8.5 -20t17.5 -6q21 0 38.5 12t17.5 23v64z" />
    <glyph glyph-name="guillemotleft" unicode="&#xab;" horiz-adv-x="556" 
d="M350 230q28 -18 58 -44t55 -51t41 -46.5t16 -30.5q0 -4 -4.5 -7t-8.5 -3q-7 0 -18.5 11t-34 30.5t-61 47.5t-99.5 62q-22 12 -38.5 19t-16.5 12t16.5 12t38.5 19q61 34 101.5 61t64.5 46.5t34.5 30t12.5 10.5q4 0 8.5 -3t4.5 -7q0 -11 -19 -34t-46 -49t-56 -50t-49 -36z
M127 230q28 -18 58 -44t55 -51t41 -46.5t16 -30.5q0 -4 -4.5 -7t-8.5 -3q-7 0 -18.5 11t-34 30.5t-61 47.5t-99.5 62q-22 12 -38.5 19t-16.5 12t16.5 12t38.5 19q61 34 101.5 61t64.5 46.5t34.5 30t12.5 10.5q4 0 8.5 -3t4.5 -7q0 -11 -19 -34t-46 -49t-56 -50t-49 -36z" />
    <glyph glyph-name="logicalnot" unicode="&#xac;" 
d="M410 270h-366v65h431v-230h-65v165z" />
    <glyph glyph-name="uni00AD" unicode="&#xad;" horiz-adv-x="389" 
d="M59 198q-10 0 -11.5 9t-1.5 23q0 10 1.5 21.5t10.5 11.5h272q10 0 11.5 -8.5t1.5 -28.5q0 -17 -2 -22.5t-13 -5.5h-269z" />
    <glyph glyph-name="registered" unicode="&#xae;" horiz-adv-x="840" 
d="M419 -14q-80 0 -148.5 29t-119 79t-79.5 117t-29 143t29 143.5t79.5 117.5t119 79t148.5 29q79 0 148 -29t120 -79t80 -117.5t29 -143.5t-29 -143t-80 -117t-120 -79t-148 -29zM419 38q65 0 122 25t99 68.5t66.5 100.5t24.5 122t-24.5 122.5t-66.5 101t-99 68.5t-122 25
t-122 -25t-99 -68.5t-66 -101t-24 -122.5t24 -122t66 -100.5t99 -68.5t122 -25zM366 223q1 -18 7.5 -24.5t21.5 -7.5h18v-26h-160v26h19q19 2 24 7t5 26v279q0 23 -8 29.5t-22 7.5h-18v26h160q26 0 54 -2.5t51.5 -12.5t38.5 -30t15 -54q0 -24 -9 -42t-24 -31.5t-35 -21
t-41 -10.5v-2q17 -3 31 -13t25.5 -24t20 -29.5t14.5 -29.5q10 -25 17.5 -39.5t13.5 -22t11.5 -9.5t13.5 -2h10v-26h-29q-29 0 -44.5 3t-25.5 12.5t-18 26.5t-21 46q-14 32 -22 51t-17.5 29t-22.5 13t-37 3h-17v-126zM366 375h23q23 0 43 3t35 12t23.5 25.5t8.5 44.5
q0 24 -8.5 39.5t-23.5 24.5t-35.5 12.5t-43.5 3.5q-14 0 -18 -10t-4 -15v-140z" />
    <glyph glyph-name="macron" unicode="&#xaf;" horiz-adv-x="278" 
d="M1 571v52h276v-52h-276z" />
    <glyph glyph-name="degree" unicode="&#xb0;" horiz-adv-x="400" 
d="M352 551q0 -31 -12 -58.5t-32.5 -47.5t-48.5 -32t-59 -12q-32 0 -59.5 12t-48 32t-32.5 47.5t-12 58.5t11.5 58t32 47.5t48.5 32.5t60 12q31 0 59 -12t48.5 -32.5t32.5 -47.5t12 -58zM300 551q0 48 -29.5 76t-71.5 28q-41 0 -70.5 -28t-28.5 -76q0 -49 29 -76.5t71 -27.5
t71 27.5t29 76.5z" />
    <glyph glyph-name="plusminus" unicode="&#xb1;" 
d="M227 431h65v-131h183v-65h-183v-131h-65v131h-183v65h183v131zM44 65h431v-65h-431v65z" />
    <glyph glyph-name="uni00B2" unicode="&#xb2;" horiz-adv-x="311" 
d="M20 309q52 50 85.5 90t53.5 72.5t28 57t8 44.5q0 25 -7 41t-17 25t-22.5 12.5t-22.5 3.5q-18 0 -31 -5t-22 -10.5t-14.5 -10.5t-9.5 -5t-7 3.5t-3 8.5q0 2 7.5 12.5t22.5 22t38 21t54 9.5q50 0 78.5 -27t28.5 -72q0 -35 -16 -69t-41.5 -67.5t-57.5 -66.5t-63 -67h112
q14 0 23 5t15 11.5t11 11.5t11 5q11 0 11 -8q0 -3 -6 -18t-21 -59h-226v29z" />
    <glyph glyph-name="uni00B3" unicode="&#xb3;" horiz-adv-x="311" 
d="M88 487q-7 0 -7 11q0 6 1.5 8t3.5 3q16 4 31 13t27 21t19 27.5t7 32.5q0 22 -16 39t-48 17q-15 0 -26 -4t-18.5 -8.5t-12.5 -8t-8 -3.5q-6 0 -6 13q0 4 9 13t24 18t35 15.5t43 6.5q31 0 50 -8.5t29.5 -20.5t14 -24.5t3.5 -19.5q0 -37 -23 -59t-54 -41q35 -10 62.5 -37.5
t27.5 -67.5q0 -30 -17 -57.5t-43.5 -49t-58 -34t-60.5 -12.5q-13 0 -27.5 6.5t-14.5 21.5q0 18 8 25.5t18 7.5q9 0 16 -3.5t13.5 -8t14 -8t17.5 -3.5q23 0 42 22t19 61q0 45 -24.5 70.5t-70.5 25.5z" />
    <glyph glyph-name="acute" unicode="&#xb4;" horiz-adv-x="278" 
d="M63 530l147 148q6 7 18.5 15t22.5 8q35 0 35 -37q0 -11 -10.5 -21.5t-18.5 -15.5l-155 -97h-39z" />
    <glyph glyph-name="uni00B5" unicode="&#xb5;" 
d="M80 310q0 33 -2.5 52t-9 28t-19 11.5t-31.5 2.5q-6 0 -14 1t-8 9q0 6 1.5 13t9.5 7t21 -1.5t38 -1.5q26 0 51 1.5t36 1.5q5 0 6.5 -1.5t1.5 -12.5v-270q0 -57 21 -87.5t77 -30.5q13 0 30.5 4t32.5 11t25.5 16.5t10.5 21.5v259q0 20 -2.5 32t-9 18t-19 8t-31.5 2
q-14 0 -23 1t-9 9q0 11 1 15.5t6 4.5t11 -0.5t15 -1t23.5 -1t37.5 -0.5q19 0 38 1.5t38 1.5q14 0 14 -14q0 -2 -1.5 -15.5t-3 -35t-3 -48t-1.5 -53.5v-188q0 -12 3 -24.5t22 -12.5q11 0 24.5 2t18.5 2q3 0 4.5 -2.5t1.5 -16.5q0 -5 -4.5 -7t-28.5 -6q-32 -5 -53 -10
t-34 -8.5t-19.5 -5.5t-8.5 -2q-5 0 -8.5 4.5t-3.5 9.5q0 9 1 19.5t2 18.5q-38 -28 -79 -41.5t-70 -13.5q-26 0 -40 4t-21 8q-2 -5 -4.5 -19.5t-2.5 -48.5q0 -54 6 -85.5t12.5 -49.5t12.5 -27t6 -18q0 -15 -10 -18.5t-25 -3.5q-9 0 -22.5 7.5t-26 19t-21 24t-8.5 21.5
q0 15 2.5 31.5t6 38.5t6 49.5t2.5 65.5v325z" />
    <glyph glyph-name="paragraph" unicode="&#xb6;" horiz-adv-x="606" 
d="M490 -90q0 -45 6 -60.5t27 -15.5h31v-30h-348v30h41q21 0 27 15.5t6 60.5v414h-38q-85 0 -137.5 48.5t-52.5 146.5q0 96 52.5 145t137.5 49h312v-30h-31q-21 0 -27 -15.5t-6 -60.5v-697zM345 683v-849h80v849h-80zM280 683q-29 1 -48 -6.5t-29.5 -23.5t-14.5 -41.5
t-4 -59.5v-67q0 -31 4 -55.5t14.5 -41.5t29.5 -26t48 -8v329z" />
    <glyph glyph-name="periodcentered" unicode="&#xb7;" horiz-adv-x="259" 
d="M190 215q0 -26 -17 -43.5t-44 -17.5t-44 17.5t-17 43.5t17 43.5t44 17.5t44 -17.5t17 -43.5z" />
    <glyph glyph-name="cedilla" unicode="&#xb8;" horiz-adv-x="278" 
d="M84 -99l42 99h35l-26 -65q13 3 29 3t31 -4t27 -12.5t19 -21.5t7 -31q0 -32 -16 -49t-37 -24.5t-42 -9t-31 -1.5q-23 0 -43.5 4.5t-39.5 11.5l14 31q15 -5 31 -8.5t33 -3.5q20 0 39 9t19 33q0 19 -12 29t-30 10q-20 0 -42 -5z" />
    <glyph glyph-name="uni00B9" unicode="&#xb9;" horiz-adv-x="311" 
d="M119 597q0 12 -2 18.5t-8 9.5t-17 3.5t-30 0.5q-7 0 -8.5 4t-1.5 9q0 8 2 10t8 3q27 5 56.5 14t48.5 28q3 3 7 3.5t8 0.5q5 0 10.5 -2t5.5 -7q0 -17 -3 -43.5t-3 -56.5v-244q0 -9 1 -17t6 -14t16.5 -9.5t32.5 -3.5q6 0 6 -18q0 -4 -0.5 -6t-5.5 -2q-2 0 -7 0.5t-16.5 0.5
t-29.5 0.5t-46 0.5q-22 0 -36 -0.5t-23 -0.5t-15 -0.5t-10 -0.5q-8 0 -8 13t7 13q20 0 31 2t16.5 8.5t6.5 18t1 31.5v233z" />
    <glyph glyph-name="ordmasculine" unicode="&#xba;" horiz-adv-x="340" 
d="M170 421q-34 0 -62.5 10.5t-48.5 29t-31.5 44.5t-11.5 56t11.5 55.5t32.5 44.5t49 29.5t61 10.5t61 -10.5t49 -29t32.5 -44t11.5 -56.5q0 -64 -42.5 -102t-111.5 -38zM170 447q25 0 39.5 11t22 27.5t9.5 37t2 38.5q0 21 -3.5 41.5t-11.5 36.5t-22.5 26t-35.5 10
t-35.5 -10t-22.5 -26t-11.5 -36.5t-3.5 -41.5q0 -18 2 -38.5t9.5 -37t22 -27.5t39.5 -11z" />
    <glyph glyph-name="guillemotright" unicode="&#xbb;" horiz-adv-x="556" 
d="M429 230q-28 18 -58 44t-55 51t-41 46.5t-16 30.5q0 4 4.5 7t8.5 3q7 0 18.5 -11t34 -30.5t61 -47.5t99.5 -62q22 -12 38.5 -19t16.5 -12t-16.5 -12t-38.5 -19q-61 -34 -101.5 -61t-64.5 -46.5t-34.5 -30t-12.5 -10.5q-4 0 -8.5 3t-4.5 7q0 10 19 33.5t46 49.5t56 50
t49 36zM206 230q-28 18 -58 44t-55 51t-41 46.5t-16 30.5q0 4 4.5 7t8.5 3q7 0 18.5 -11t34 -30.5t61 -47.5t99.5 -62q22 -12 38.5 -19t16.5 -12t-16.5 -12t-38.5 -19q-61 -34 -101.5 -61t-64.5 -46.5t-34.5 -30t-12.5 -10.5q-4 0 -8.5 3t-4.5 7q0 10 19 33.5t46 49.5t56 50
t49 36z" />
    <glyph glyph-name="onequarter" unicode="&#xbc;" horiz-adv-x="778" 
d="M105 597q0 12 -2 18.5t-8 9.5t-17 3.5t-30 0.5q-7 0 -8.5 4t-1.5 9q0 8 2 10t8 3q27 5 56.5 14t48.5 28q3 3 7 3.5t8 0.5q5 0 10.5 -2t5.5 -7q0 -17 -3 -43.5t-3 -56.5v-244q0 -9 1 -17t6 -14t16.5 -9.5t32.5 -3.5q6 0 6 -18q0 -4 -0.5 -6t-5.5 -2q-2 0 -7 0.5t-16.5 0.5
t-29.5 0.5t-46 0.5q-22 0 -36 -0.5t-23 -0.5t-15 -0.5t-10 -0.5q-8 0 -8 13t7 13q20 0 31 2t16.5 8.5t6.5 18t1 31.5v233zM117 0l430 690h55l-430 -690h-55zM659 177h71q9 0 9 -8v-38q0 -6 -12 -6h-68v-132q0 -5 -1.5 -8t-7.5 -3h-47q-9 0 -9 11v132h-192q-5 1 -5.5 4
t-0.5 22q0 10 16 36.5t43.5 62.5t64 78t78.5 81q10 9 17 15.5t21 6.5q26 0 26 -29q0 -13 -1.5 -22t-1.5 -25v-178zM594 177v183q-16 -13 -40 -39t-46 -54t-38 -51.5t-16 -31.5q0 -5 4 -6t8 -1h128z" />
    <glyph glyph-name="onehalf" unicode="&#xbd;" horiz-adv-x="778" 
d="M113 597q0 12 -2 18.5t-8 9.5t-17 3.5t-30 0.5q-7 0 -8.5 4t-1.5 9q0 8 2 10t8 3q27 5 56.5 14t48.5 28q3 3 7 3.5t8 0.5q5 0 10.5 -2t5.5 -7q0 -17 -3 -43.5t-3 -56.5v-244q0 -9 1 -17t6 -14t16.5 -9.5t32.5 -3.5q6 0 6 -18q0 -4 -0.5 -6t-5.5 -2q-2 0 -7 0.5t-16.5 0.5
t-29.5 0.5t-46 0.5q-22 0 -36 -0.5t-23 -0.5t-15 -0.5t-10 -0.5q-8 0 -8 13t7 13q20 0 31 2t16.5 8.5t6.5 18t1 31.5v233zM140 0l430 690h55l-430 -690h-55zM479 29q52 50 85.5 90t53.5 72.5t28 57t8 44.5q0 25 -7 41t-17 25t-22.5 12.5t-22.5 3.5q-18 0 -31 -5t-22 -10.5
t-14.5 -10.5t-9.5 -5t-7 3.5t-3 8.5q0 2 7.5 12.5t22.5 22t38 21t54 9.5q50 0 78.5 -27t28.5 -72q0 -35 -16 -69t-41.5 -67.5t-57.5 -66.5t-63 -67h112q14 0 23 5t15 11.5t11 11.5t11 5q11 0 11 -8q0 -3 -6 -18t-21 -59h-226v29z" />
    <glyph glyph-name="threequarters" unicode="&#xbe;" horiz-adv-x="778" 
d="M83 487q-7 0 -7 11q0 6 1.5 8t3.5 3q16 4 31 13t27 21t19 27.5t7 32.5q0 22 -16 39t-48 17q-15 0 -26 -4t-18.5 -8.5t-12.5 -8t-8 -3.5q-6 0 -6 13q0 4 9 13t24 18t35 15.5t43 6.5q31 0 50 -8.5t29.5 -20.5t14 -24.5t3.5 -19.5q0 -37 -23 -59t-54 -41q35 -10 62.5 -37.5
t27.5 -67.5q0 -30 -17 -57.5t-43.5 -49t-58 -34t-60.5 -12.5q-13 0 -27.5 6.5t-14.5 21.5q0 18 8 25.5t18 7.5q9 0 16 -3.5t13.5 -8t14 -8t17.5 -3.5q23 0 42 22t19 61q0 45 -24.5 70.5t-70.5 25.5zM106 0l430 690h55l-430 -690h-55zM668 177h71q9 0 9 -8v-38q0 -6 -12 -6
h-68v-132q0 -5 -1.5 -8t-7.5 -3h-47q-9 0 -9 11v132h-192q-5 1 -5.5 4t-0.5 22q0 10 16 36.5t43.5 62.5t64 78t78.5 81q10 9 17 15.5t21 6.5q26 0 26 -29q0 -13 -1.5 -22t-1.5 -25v-178zM603 177v183q-16 -13 -40 -39t-46 -54t-38 -51.5t-16 -31.5q0 -5 4 -6t8 -1h128z" />
    <glyph glyph-name="questiondown" unicode="&#xbf;" horiz-adv-x="426" 
d="M229 400q0 26 18 41t38 15t38 -15t18 -41t-18 -41t-38 -15t-38 15t-18 41zM307 89q0 -10 -4.5 -11.5t-21.5 -1.5h-80q-27 0 -43.5 -5.5t-25.5 -16t-11.5 -25.5t-2.5 -33q0 -35 8 -59t17.5 -40.5t19 -25.5t12.5 -13q4 -5 27 -8t50 -5t49.5 -3t25.5 -1q9 0 14.5 -4.5
t8.5 -15.5t4 -31.5t1 -51.5q0 -7 -3.5 -8.5t-13.5 -1.5q-4 0 -6.5 5t-4.5 10.5t-5 10.5t-8 5q-35 0 -61 1t-46.5 6t-36 16.5t-28.5 32.5q-18 27 -28 59.5t-15.5 62t-7 52t-1.5 29.5q0 36 8 60.5t18.5 39.5t20 22t11.5 8q14 3 31.5 5t34 3.5t29 3t17.5 4.5q11 6 15 26.5
t4 63.5q0 8 14 8q10 0 12 -4t2 -6v-163z" />
    <glyph glyph-name="Agrave" unicode="&#xc0;" horiz-adv-x="667" 
d="M-5 -2q-7 0 -7 17q0 6 8.5 9.5t28.5 3.5q14 0 27.5 11t23.5 40q46 134 104 293t131 342q2 7 6 8t13 1q7 0 10 -1.5t7 -10.5q2 -4 16 -41.5t35 -95t47.5 -127.5t53 -139t50.5 -130.5t42 -101.5q12 -28 29.5 -38t46.5 -10q7 0 18.5 -2.5t11.5 -8.5q0 -5 -2 -12t-9 -7
q-4 0 -9 0.5t-19 0.5t-40 0.5t-71 0.5q-51 0 -79.5 -0.5t-43 -0.5t-19 -0.5t-7.5 -0.5t-4 5t-1 13t13.5 10t28.5 2q30 0 41.5 4.5t11.5 17.5q0 9 -9.5 36.5t-22.5 60.5t-25.5 64t-18.5 47h-206q-22 0 -28.5 -2.5t-12.5 -18.5q-16 -41 -26.5 -71t-17 -50.5t-9 -33t-2.5 -18.5
q0 -5 1 -11t5.5 -11.5t15 -9.5t30.5 -4q22 0 35 -1t19.5 -2.5t8 -4t1.5 -6.5q0 -9 -2 -12.5t-10 -3.5q-3 0 -8.5 0.5t-20 0.5t-40.5 0.5t-71 0.5q-23 0 -37 -0.5t-22.5 -0.5t-12.5 -0.5t-7 -0.5zM189 302q0 -8 7 -9.5t31 -1.5h172l-106 293h-2q-2 0 -10 -20t-19.5 -50
t-24 -65.5t-23.5 -67t-18 -54t-7 -25.5zM360 810l-155 97q-8 5 -18.5 15.5t-10.5 21.5q0 37 35 37q10 0 22.5 -8t18.5 -15l147 -148h-39z" />
    <glyph glyph-name="Aacute" unicode="&#xc1;" horiz-adv-x="667" 
d="M-5 -2q-7 0 -7 17q0 6 8.5 9.5t28.5 3.5q14 0 27.5 11t23.5 40q46 134 104 293t131 342q2 7 6 8t13 1q7 0 10 -1.5t7 -10.5q2 -4 16 -41.5t35 -95t47.5 -127.5t53 -139t50.5 -130.5t42 -101.5q12 -28 29.5 -38t46.5 -10q7 0 18.5 -2.5t11.5 -8.5q0 -5 -2 -12t-9 -7
q-4 0 -9 0.5t-19 0.5t-40 0.5t-71 0.5q-51 0 -79.5 -0.5t-43 -0.5t-19 -0.5t-7.5 -0.5t-4 5t-1 13t13.5 10t28.5 2q30 0 41.5 4.5t11.5 17.5q0 9 -9.5 36.5t-22.5 60.5t-25.5 64t-18.5 47h-206q-22 0 -28.5 -2.5t-12.5 -18.5q-16 -41 -26.5 -71t-17 -50.5t-9 -33t-2.5 -18.5
q0 -5 1 -11t5.5 -11.5t15 -9.5t30.5 -4q22 0 35 -1t19.5 -2.5t8 -4t1.5 -6.5q0 -9 -2 -12.5t-10 -3.5q-3 0 -8.5 0.5t-20 0.5t-40.5 0.5t-71 0.5q-23 0 -37 -0.5t-22.5 -0.5t-12.5 -0.5t-7 -0.5zM189 302q0 -8 7 -9.5t31 -1.5h172l-106 293h-2q-2 0 -10 -20t-19.5 -50
t-24 -65.5t-23.5 -67t-18 -54t-7 -25.5zM258 810l147 148q6 7 18.5 15t22.5 8q35 0 35 -37q0 -11 -10.5 -21.5t-18.5 -15.5l-155 -97h-39z" />
    <glyph glyph-name="Acircumflex" unicode="&#xc2;" horiz-adv-x="667" 
d="M-5 -2q-7 0 -7 17q0 6 8.5 9.5t28.5 3.5q14 0 27.5 11t23.5 40q46 134 104 293t131 342q2 7 6 8t13 1q7 0 10 -1.5t7 -10.5q2 -4 16 -41.5t35 -95t47.5 -127.5t53 -139t50.5 -130.5t42 -101.5q12 -28 29.5 -38t46.5 -10q7 0 18.5 -2.5t11.5 -8.5q0 -5 -2 -12t-9 -7
q-4 0 -9 0.5t-19 0.5t-40 0.5t-71 0.5q-51 0 -79.5 -0.5t-43 -0.5t-19 -0.5t-7.5 -0.5t-4 5t-1 13t13.5 10t28.5 2q30 0 41.5 4.5t11.5 17.5q0 9 -9.5 36.5t-22.5 60.5t-25.5 64t-18.5 47h-206q-22 0 -28.5 -2.5t-12.5 -18.5q-16 -41 -26.5 -71t-17 -50.5t-9 -33t-2.5 -18.5
q0 -5 1 -11t5.5 -11.5t15 -9.5t30.5 -4q22 0 35 -1t19.5 -2.5t8 -4t1.5 -6.5q0 -9 -2 -12.5t-10 -3.5q-3 0 -8.5 0.5t-20 0.5t-40.5 0.5t-71 0.5q-23 0 -37 -0.5t-22.5 -0.5t-12.5 -0.5t-7 -0.5zM189 302q0 -8 7 -9.5t31 -1.5h172l-106 293h-2q-2 0 -10 -20t-19.5 -50
t-24 -65.5t-23.5 -67t-18 -54t-7 -25.5zM205 811h-33l124 166h62l125 -166h-35l-121 103z" />
    <glyph glyph-name="Atilde" unicode="&#xc3;" horiz-adv-x="667" 
d="M-5 -2q-7 0 -7 17q0 6 8.5 9.5t28.5 3.5q14 0 27.5 11t23.5 40q46 134 104 293t131 342q2 7 6 8t13 1q7 0 10 -1.5t7 -10.5q2 -4 16 -41.5t35 -95t47.5 -127.5t53 -139t50.5 -130.5t42 -101.5q12 -28 29.5 -38t46.5 -10q7 0 18.5 -2.5t11.5 -8.5q0 -5 -2 -12t-9 -7
q-4 0 -9 0.5t-19 0.5t-40 0.5t-71 0.5q-51 0 -79.5 -0.5t-43 -0.5t-19 -0.5t-7.5 -0.5t-4 5t-1 13t13.5 10t28.5 2q30 0 41.5 4.5t11.5 17.5q0 9 -9.5 36.5t-22.5 60.5t-25.5 64t-18.5 47h-206q-22 0 -28.5 -2.5t-12.5 -18.5q-16 -41 -26.5 -71t-17 -50.5t-9 -33t-2.5 -18.5
q0 -5 1 -11t5.5 -11.5t15 -9.5t30.5 -4q22 0 35 -1t19.5 -2.5t8 -4t1.5 -6.5q0 -9 -2 -12.5t-10 -3.5q-3 0 -8.5 0.5t-20 0.5t-40.5 0.5t-71 0.5q-23 0 -37 -0.5t-22.5 -0.5t-12.5 -0.5t-7 -0.5zM189 302q0 -8 7 -9.5t31 -1.5h172l-106 293h-2q-2 0 -10 -20t-19.5 -50
t-24 -65.5t-23.5 -67t-18 -54t-7 -25.5zM491 928q-4 -18 -11 -37.5t-19 -35t-28 -25.5t-38 -10q-17 0 -38 7.5t-41 15.5q-21 9 -41 16.5t-35 7.5q-21 0 -33 -14t-14 -34h-30q4 18 11 37.5t19 35t28 25.5t38 10q17 0 38 -7.5t41 -15.5q21 -9 41 -16.5t35 -7.5q21 0 33 14
t14 34h30z" />
    <glyph glyph-name="Adieresis" unicode="&#xc4;" horiz-adv-x="667" 
d="M-5 -2q-7 0 -7 17q0 6 8.5 9.5t28.5 3.5q14 0 27.5 11t23.5 40q46 134 104 293t131 342q2 7 6 8t13 1q7 0 10 -1.5t7 -10.5q2 -4 16 -41.5t35 -95t47.5 -127.5t53 -139t50.5 -130.5t42 -101.5q12 -28 29.5 -38t46.5 -10q7 0 18.5 -2.5t11.5 -8.5q0 -5 -2 -12t-9 -7
q-4 0 -9 0.5t-19 0.5t-40 0.5t-71 0.5q-51 0 -79.5 -0.5t-43 -0.5t-19 -0.5t-7.5 -0.5t-4 5t-1 13t13.5 10t28.5 2q30 0 41.5 4.5t11.5 17.5q0 9 -9.5 36.5t-22.5 60.5t-25.5 64t-18.5 47h-206q-22 0 -28.5 -2.5t-12.5 -18.5q-16 -41 -26.5 -71t-17 -50.5t-9 -33t-2.5 -18.5
q0 -5 1 -11t5.5 -11.5t15 -9.5t30.5 -4q22 0 35 -1t19.5 -2.5t8 -4t1.5 -6.5q0 -9 -2 -12.5t-10 -3.5q-3 0 -8.5 0.5t-20 0.5t-40.5 0.5t-71 0.5q-23 0 -37 -0.5t-22.5 -0.5t-12.5 -0.5t-7 -0.5zM189 302q0 -8 7 -9.5t31 -1.5h172l-106 293h-2q-2 0 -10 -20t-19.5 -50
t-24 -65.5t-23.5 -67t-18 -54t-7 -25.5zM426 826q-20 0 -34.5 15t-14.5 35q0 19 15 34t34 15q20 0 35 -14.5t15 -34.5t-15 -35t-35 -15zM227 826q-20 0 -34.5 15t-14.5 35q0 19 15 34t34 15q20 0 35 -14.5t15 -34.5t-15 -35t-35 -15z" />
    <glyph glyph-name="Aring" unicode="&#xc5;" horiz-adv-x="667" 
d="M-5 -2q-7 0 -7 17q0 6 8.5 9.5t28.5 3.5q14 0 27.5 11t23.5 40q46 134 104 293t131 342q2 7 6 8t13 1q7 0 10 -1.5t7 -10.5q2 -4 16 -41.5t35 -95t47.5 -127.5t53 -139t50.5 -130.5t42 -101.5q12 -28 29.5 -38t46.5 -10q7 0 18.5 -2.5t11.5 -8.5q0 -5 -2 -12t-9 -7
q-4 0 -9 0.5t-19 0.5t-40 0.5t-71 0.5q-51 0 -79.5 -0.5t-43 -0.5t-19 -0.5t-7.5 -0.5t-4 5t-1 13t13.5 10t28.5 2q30 0 41.5 4.5t11.5 17.5q0 9 -9.5 36.5t-22.5 60.5t-25.5 64t-18.5 47h-206q-22 0 -28.5 -2.5t-12.5 -18.5q-16 -41 -26.5 -71t-17 -50.5t-9 -33t-2.5 -18.5
q0 -5 1 -11t5.5 -11.5t15 -9.5t30.5 -4q22 0 35 -1t19.5 -2.5t8 -4t1.5 -6.5q0 -9 -2 -12.5t-10 -3.5q-3 0 -8.5 0.5t-20 0.5t-40.5 0.5t-71 0.5q-23 0 -37 -0.5t-22.5 -0.5t-12.5 -0.5t-7 -0.5zM189 302q0 -8 7 -9.5t31 -1.5h172l-106 293h-2q-2 0 -10 -20t-19.5 -50
t-24 -65.5t-23.5 -67t-18 -54t-7 -25.5zM328 764q-44 0 -73 29t-29 70q0 20 8 37.5t21.5 31t32.5 21.5t40 8t40 -7.5t33 -21t22 -31.5t8 -38q0 -42 -29 -70.5t-74 -28.5zM328 794q13 0 25 5.5t21.5 15t15 22t5.5 26.5q0 28 -20.5 48t-46.5 20q-27 0 -46.5 -19.5t-19.5 -48.5
q0 -28 20 -48.5t46 -20.5z" />
    <glyph glyph-name="AE" unicode="&#xc6;" horiz-adv-x="1000" 
d="M301 340q-11 0 -18.5 -8t-18.5 -26q-27 -44 -50.5 -84.5t-41.5 -74t-28.5 -57t-10.5 -33.5q0 -12 7.5 -18t19 -9t26 -3.5t28.5 -0.5q6 0 7 -4t1 -9q0 -6 -1.5 -10.5t-9.5 -4.5q-5 0 -10 0.5t-15.5 0.5t-29.5 0.5t-52 0.5q-30 0 -49 -0.5t-30.5 -0.5t-17 -0.5t-9.5 -0.5
q-8 0 -9 4t-1 9q0 10 5.5 13.5t22.5 3.5q15 0 26 1t21 6.5t20 18t23 35.5q93 163 155.5 271t100.5 173t54 93.5t16 34.5q0 5 -2 9t-10 7t-25 4.5t-48 1.5q-7 0 -8 4t-1 8q0 8 2 13t11 5q4 0 13 -0.5t30.5 -1.5t59.5 -1.5t101 -0.5q44 0 91.5 0.5t91 1.5t80 1.5t58.5 0.5
q17 0 26.5 -1t11.5 -7q20 -69 32 -102.5t12 -38.5q0 -7 -15 -7q-6 0 -12 5.5t-17 18t-30.5 32t-52.5 47.5q-11 10 -29.5 16.5t-47.5 6.5q-58 0 -89.5 -1t-46.5 -8t-17.5 -22t-2.5 -42v-240h52q40 0 63.5 7t35.5 16.5t15 18.5t4 13q4 28 7.5 43t5.5 22t4 8t5 1q19 0 19 -7
v-150q0 -45 2.5 -72.5t2.5 -46.5q0 -5 -4 -6.5t-9 -1.5q-9 0 -11.5 3t-3.5 8q-6 40 -13 63t-21 34.5t-37 14t-59 2.5h-58v-258q0 -29 10.5 -40.5t38.5 -11.5h191q14 0 31 15.5t33.5 36t30.5 41t22 30.5q6 6 13 6q16 0 16 -7q0 -1 -4 -12.5t-10 -28.5t-13.5 -36.5t-14.5 -36
t-12.5 -27.5t-8.5 -11h-366q-55 0 -85.5 -0.5t-46 -0.5t-19.5 -0.5t-7 -0.5q-6 0 -7 3t-1 10q0 8 2.5 12.5t18.5 4.5q30 0 47 3t25.5 9t11 14t2.5 18q1 19 1.5 40l1 42t0.5 40.5v35.5v110h-198zM499 683h-4q-7 -8 -17 -22t-28.5 -44t-49 -80t-78.5 -128q-11 -19 -14 -25.5
t-3 -10.5q0 -3 14 -3h180v313z" />
    <glyph glyph-name="Ccedilla" unicode="&#xc7;" horiz-adv-x="759" 
d="M375 -99l36 85q-99 1 -168.5 37t-113 88.5t-63.5 112.5t-20 110q0 90 31 162t82.5 122.5t118 77t138.5 26.5q64 0 103.5 -6t63.5 -13t36.5 -13t22.5 -6q14 0 21 8.5t18 8.5q2 0 4.5 -2t2.5 -10q0 -23 3 -49.5t6.5 -50t6.5 -40.5t3 -20q0 -7 -7 -10t-12 -3q-2 0 -5.5 1
t-5.5 7q-16 41 -36.5 73t-48.5 54t-65 33.5t-85 11.5q-47 0 -96 -22t-89 -67t-66 -112t-26 -157q0 -83 27 -144t69.5 -101.5t95 -60.5t103.5 -20q28 0 60 8.5t63 28t59.5 51t49.5 78.5q3 8 16 8q5 0 8 -2t3 -10q0 -5 -2 -23t-5 -39.5t-5 -41.5t-2 -28q0 -14 -14 -18
q-35 -11 -93.5 -23.5t-151.5 -14.5l-20 -51q13 3 29 3t31 -4t27 -12.5t19 -21.5t7 -31q0 -32 -16 -49t-37 -24.5t-42 -9t-31 -1.5q-23 0 -43.5 4.5t-39.5 11.5l14 31q15 -5 31 -8.5t33 -3.5q20 0 39 9t19 33q0 19 -12 29t-30 10q-20 0 -42 -5z" />
    <glyph glyph-name="Egrave" unicode="&#xc8;" horiz-adv-x="685" 
d="M27 11q0 8 2.5 12.5t18.5 4.5q30 0 47 3t25.5 9t11 14t2.5 18q1 19 1.5 40l1 42t0.5 40.5v35.5v245v45.5t-0.5 34t-1 30t-0.5 31.5q0 22 -4.5 35.5t-15 20.5t-29.5 9t-49 2q-8 0 -9.5 5t-1.5 12q0 5 2 9t7 4q3 0 19 -0.5t39 -1.5t49.5 -1.5t50.5 -0.5q44 0 91.5 0.5
t93 1.5t85 1.5t66.5 0.5q17 0 26.5 -1t11.5 -7q20 -69 32 -102.5t12 -38.5q0 -7 -15 -7q-6 0 -12 5.5t-17 18t-30.5 32t-52.5 47.5q-11 10 -28.5 16.5t-40.5 6.5q-10 0 -29 -0.5t-41.5 -1.5t-44 -2t-35.5 -2q-17 -1 -23 -18t-6 -59v-230h67q40 0 63.5 7t35.5 16.5t15 18.5
t4 13q4 28 7.5 43t5.5 22t4 8t5 1q19 0 19 -7v-150q0 -45 2.5 -72.5t2.5 -46.5q0 -5 -4 -6.5t-9 -1.5q-9 0 -11.5 3t-3.5 8q-6 40 -13 63t-21 34.5t-37 14t-59 2.5h-73v-258q0 -29 10.5 -40.5t38.5 -11.5h238q14 0 31 15.5t33.5 36t30.5 41t22 30.5q6 6 13 6q16 0 16 -7
q0 -1 -4 -12.5t-10 -28.5t-13.5 -36.5t-14.5 -36t-12.5 -27.5t-8.5 -11h-413q-55 0 -85.5 -0.5t-46 -0.5t-19.5 -0.5t-7 -0.5q-6 0 -7 3t-1 10zM359 810l-155 97q-8 5 -18.5 15.5t-10.5 21.5q0 37 35 37q10 0 22.5 -8t18.5 -15l147 -148h-39z" />
    <glyph glyph-name="Eacute" unicode="&#xc9;" horiz-adv-x="685" 
d="M27 11q0 8 2.5 12.5t18.5 4.5q30 0 47 3t25.5 9t11 14t2.5 18q1 19 1.5 40l1 42t0.5 40.5v35.5v245v45.5t-0.5 34t-1 30t-0.5 31.5q0 22 -4.5 35.5t-15 20.5t-29.5 9t-49 2q-8 0 -9.5 5t-1.5 12q0 5 2 9t7 4q3 0 19 -0.5t39 -1.5t49.5 -1.5t50.5 -0.5q44 0 91.5 0.5
t93 1.5t85 1.5t66.5 0.5q17 0 26.5 -1t11.5 -7q20 -69 32 -102.5t12 -38.5q0 -7 -15 -7q-6 0 -12 5.5t-17 18t-30.5 32t-52.5 47.5q-11 10 -28.5 16.5t-40.5 6.5q-10 0 -29 -0.5t-41.5 -1.5t-44 -2t-35.5 -2q-17 -1 -23 -18t-6 -59v-230h67q40 0 63.5 7t35.5 16.5t15 18.5
t4 13q4 28 7.5 43t5.5 22t4 8t5 1q19 0 19 -7v-150q0 -45 2.5 -72.5t2.5 -46.5q0 -5 -4 -6.5t-9 -1.5q-9 0 -11.5 3t-3.5 8q-6 40 -13 63t-21 34.5t-37 14t-59 2.5h-73v-258q0 -29 10.5 -40.5t38.5 -11.5h238q14 0 31 15.5t33.5 36t30.5 41t22 30.5q6 6 13 6q16 0 16 -7
q0 -1 -4 -12.5t-10 -28.5t-13.5 -36.5t-14.5 -36t-12.5 -27.5t-8.5 -11h-413q-55 0 -85.5 -0.5t-46 -0.5t-19.5 -0.5t-7 -0.5q-6 0 -7 3t-1 10zM247 810l147 148q6 7 18.5 15t22.5 8q35 0 35 -37q0 -11 -10.5 -21.5t-18.5 -15.5l-155 -97h-39z" />
    <glyph glyph-name="Ecircumflex" unicode="&#xca;" horiz-adv-x="685" 
d="M27 11q0 8 2.5 12.5t18.5 4.5q30 0 47 3t25.5 9t11 14t2.5 18q1 19 1.5 40l1 42t0.5 40.5v35.5v245v45.5t-0.5 34t-1 30t-0.5 31.5q0 22 -4.5 35.5t-15 20.5t-29.5 9t-49 2q-8 0 -9.5 5t-1.5 12q0 5 2 9t7 4q3 0 19 -0.5t39 -1.5t49.5 -1.5t50.5 -0.5q44 0 91.5 0.5
t93 1.5t85 1.5t66.5 0.5q17 0 26.5 -1t11.5 -7q20 -69 32 -102.5t12 -38.5q0 -7 -15 -7q-6 0 -12 5.5t-17 18t-30.5 32t-52.5 47.5q-11 10 -28.5 16.5t-40.5 6.5q-10 0 -29 -0.5t-41.5 -1.5t-44 -2t-35.5 -2q-17 -1 -23 -18t-6 -59v-230h67q40 0 63.5 7t35.5 16.5t15 18.5
t4 13q4 28 7.5 43t5.5 22t4 8t5 1q19 0 19 -7v-150q0 -45 2.5 -72.5t2.5 -46.5q0 -5 -4 -6.5t-9 -1.5q-9 0 -11.5 3t-3.5 8q-6 40 -13 63t-21 34.5t-37 14t-59 2.5h-73v-258q0 -29 10.5 -40.5t38.5 -11.5h238q14 0 31 15.5t33.5 36t30.5 41t22 30.5q6 6 13 6q16 0 16 -7
q0 -1 -4 -12.5t-10 -28.5t-13.5 -36.5t-14.5 -36t-12.5 -27.5t-8.5 -11h-413q-55 0 -85.5 -0.5t-46 -0.5t-19.5 -0.5t-7 -0.5q-6 0 -7 3t-1 10zM191 811h-33l124 166h62l125 -166h-35l-121 103z" />
    <glyph glyph-name="Edieresis" unicode="&#xcb;" horiz-adv-x="685" 
d="M27 11q0 8 2.5 12.5t18.5 4.5q30 0 47 3t25.5 9t11 14t2.5 18q1 19 1.5 40l1 42t0.5 40.5v35.5v245v45.5t-0.5 34t-1 30t-0.5 31.5q0 22 -4.5 35.5t-15 20.5t-29.5 9t-49 2q-8 0 -9.5 5t-1.5 12q0 5 2 9t7 4q3 0 19 -0.5t39 -1.5t49.5 -1.5t50.5 -0.5q44 0 91.5 0.5
t93 1.5t85 1.5t66.5 0.5q17 0 26.5 -1t11.5 -7q20 -69 32 -102.5t12 -38.5q0 -7 -15 -7q-6 0 -12 5.5t-17 18t-30.5 32t-52.5 47.5q-11 10 -28.5 16.5t-40.5 6.5q-10 0 -29 -0.5t-41.5 -1.5t-44 -2t-35.5 -2q-17 -1 -23 -18t-6 -59v-230h67q40 0 63.5 7t35.5 16.5t15 18.5
t4 13q4 28 7.5 43t5.5 22t4 8t5 1q19 0 19 -7v-150q0 -45 2.5 -72.5t2.5 -46.5q0 -5 -4 -6.5t-9 -1.5q-9 0 -11.5 3t-3.5 8q-6 40 -13 63t-21 34.5t-37 14t-59 2.5h-73v-258q0 -29 10.5 -40.5t38.5 -11.5h238q14 0 31 15.5t33.5 36t30.5 41t22 30.5q6 6 13 6q16 0 16 -7
q0 -1 -4 -12.5t-10 -28.5t-13.5 -36.5t-14.5 -36t-12.5 -27.5t-8.5 -11h-413q-55 0 -85.5 -0.5t-46 -0.5t-19.5 -0.5t-7 -0.5q-6 0 -7 3t-1 10zM412 826q-20 0 -34.5 15t-14.5 35q0 19 15 34t34 15q20 0 35 -14.5t15 -34.5t-15 -35t-35 -15zM213 826q-20 0 -34.5 15
t-14.5 35q0 19 15 34t34 15q20 0 35 -14.5t15 -34.5t-15 -35t-35 -15z" />
    <glyph glyph-name="Igrave" unicode="&#xcc;" horiz-adv-x="370" 
d="M18 11q0 8 3.5 12.5t24.5 4.5q30 0 47 3t25.5 9t11 14t2.5 18q1 19 1.5 40l1 42t0.5 40.5v35.5v245v45.5t-0.5 34t-1 30t-0.5 31.5q0 22 -4.5 35.5t-16 20.5t-31.5 9t-53 2q-8 0 -9.5 5t-1.5 12q0 5 2 9t7 4q3 0 19 -0.5t39 -1.5t49.5 -1.5t50.5 -0.5t50.5 0.5t50 1.5
t39.5 1.5t19 0.5q5 0 7 -4t2 -9q0 -7 -1.5 -12t-9.5 -5q-33 0 -53 -2t-31.5 -9t-16 -20.5t-4.5 -35.5q0 -17 -0.5 -31.5t-1 -30t-0.5 -34v-45.5v-245v-35.5t0.5 -40.5l1 -42t1.5 -40q0 -10 2.5 -18t11 -14t25.5 -9t47 -3q21 0 24.5 -4.5t3.5 -12.5q0 -7 -1 -10t-7 -3
q-3 0 -7 0.5t-19.5 0.5t-46.5 0.5t-86 0.5t-85.5 -0.5t-46 -0.5t-19.5 -0.5t-7 -0.5q-6 0 -7 3t-1 10zM211 810l-155 97q-8 5 -18.5 15.5t-10.5 21.5q0 37 35 37q10 0 22.5 -8t18.5 -15l147 -148h-39z" />
    <glyph glyph-name="Iacute" unicode="&#xcd;" horiz-adv-x="370" 
d="M18 11q0 8 3.5 12.5t24.5 4.5q30 0 47 3t25.5 9t11 14t2.5 18q1 19 1.5 40l1 42t0.5 40.5v35.5v245v45.5t-0.5 34t-1 30t-0.5 31.5q0 22 -4.5 35.5t-16 20.5t-31.5 9t-53 2q-8 0 -9.5 5t-1.5 12q0 5 2 9t7 4q3 0 19 -0.5t39 -1.5t49.5 -1.5t50.5 -0.5t50.5 0.5t50 1.5
t39.5 1.5t19 0.5q5 0 7 -4t2 -9q0 -7 -1.5 -12t-9.5 -5q-33 0 -53 -2t-31.5 -9t-16 -20.5t-4.5 -35.5q0 -17 -0.5 -31.5t-1 -30t-0.5 -34v-45.5v-245v-35.5t0.5 -40.5l1 -42t1.5 -40q0 -10 2.5 -18t11 -14t25.5 -9t47 -3q21 0 24.5 -4.5t3.5 -12.5q0 -7 -1 -10t-7 -3
q-3 0 -7 0.5t-19.5 0.5t-46.5 0.5t-86 0.5t-85.5 -0.5t-46 -0.5t-19.5 -0.5t-7 -0.5q-6 0 -7 3t-1 10zM119 810l147 148q6 7 18.5 15t22.5 8q35 0 35 -37q0 -11 -10.5 -21.5t-18.5 -15.5l-155 -97h-39z" />
    <glyph glyph-name="Icircumflex" unicode="&#xce;" horiz-adv-x="370" 
d="M18 11q0 8 3.5 12.5t24.5 4.5q30 0 47 3t25.5 9t11 14t2.5 18q1 19 1.5 40l1 42t0.5 40.5v35.5v245v45.5t-0.5 34t-1 30t-0.5 31.5q0 22 -4.5 35.5t-16 20.5t-31.5 9t-53 2q-8 0 -9.5 5t-1.5 12q0 5 2 9t7 4q3 0 19 -0.5t39 -1.5t49.5 -1.5t50.5 -0.5t50.5 0.5t50 1.5
t39.5 1.5t19 0.5q5 0 7 -4t2 -9q0 -7 -1.5 -12t-9.5 -5q-33 0 -53 -2t-31.5 -9t-16 -20.5t-4.5 -35.5q0 -17 -0.5 -31.5t-1 -30t-0.5 -34v-45.5v-245v-35.5t0.5 -40.5l1 -42t1.5 -40q0 -10 2.5 -18t11 -14t25.5 -9t47 -3q21 0 24.5 -4.5t3.5 -12.5q0 -7 -1 -10t-7 -3
q-3 0 -7 0.5t-19.5 0.5t-46.5 0.5t-86 0.5t-85.5 -0.5t-46 -0.5t-19.5 -0.5t-7 -0.5q-6 0 -7 3t-1 10zM59 811h-33l124 166h62l125 -166h-35l-121 103z" />
    <glyph glyph-name="Idieresis" unicode="&#xcf;" horiz-adv-x="370" 
d="M18 11q0 8 3.5 12.5t24.5 4.5q30 0 47 3t25.5 9t11 14t2.5 18q1 19 1.5 40l1 42t0.5 40.5v35.5v245v45.5t-0.5 34t-1 30t-0.5 31.5q0 22 -4.5 35.5t-16 20.5t-31.5 9t-53 2q-8 0 -9.5 5t-1.5 12q0 5 2 9t7 4q3 0 19 -0.5t39 -1.5t49.5 -1.5t50.5 -0.5t50.5 0.5t50 1.5
t39.5 1.5t19 0.5q5 0 7 -4t2 -9q0 -7 -1.5 -12t-9.5 -5q-33 0 -53 -2t-31.5 -9t-16 -20.5t-4.5 -35.5q0 -17 -0.5 -31.5t-1 -30t-0.5 -34v-45.5v-245v-35.5t0.5 -40.5l1 -42t1.5 -40q0 -10 2.5 -18t11 -14t25.5 -9t47 -3q21 0 24.5 -4.5t3.5 -12.5q0 -7 -1 -10t-7 -3
q-3 0 -7 0.5t-19.5 0.5t-46.5 0.5t-86 0.5t-85.5 -0.5t-46 -0.5t-19.5 -0.5t-7 -0.5q-6 0 -7 3t-1 10zM280 826q-20 0 -34.5 15t-14.5 35q0 19 15 34t34 15q20 0 35 -14.5t15 -34.5t-15 -35t-35 -15zM81 826q-20 0 -34.5 15t-14.5 35q0 19 15 34t34 15q20 0 35 -14.5
t15 -34.5t-15 -35t-35 -15z" />
    <glyph glyph-name="Eth" unicode="&#xd0;" horiz-adv-x="833" 
d="M137 358h-122v30h122v87v45.5t-0.5 34t-1 30t-0.5 31.5q0 22 -4 35.5t-14 20.5t-27.5 9t-44.5 2q-8 0 -9.5 5t-1.5 12q0 5 2 9t7 4q3 0 19 -0.5t39 -1.5t49.5 -1.5t50.5 -0.5q39 0 71.5 2t55.5 2q57 0 101 -2.5t80 -9.5t67.5 -20.5t63.5 -34.5q35 -24 60.5 -56.5
t41.5 -69.5t23.5 -75.5t7.5 -72.5q0 -83 -28 -151.5t-80 -117.5q-21 -20 -50.5 -39t-65.5 -33.5t-77.5 -23.5t-87.5 -9q-10 0 -23 0.5t-33.5 0.5t-51 0.5t-75.5 0.5q-55 0 -85.5 -0.5t-46 -0.5t-19.5 -0.5t-7 -0.5q-6 0 -7 3t-1 10q0 8 3.5 12.5t24.5 4.5q35 0 52.5 12
t18.5 32q1 19 1.5 40l1 42t0.5 40.5v35.5v128zM236 388h164v-30h-164v-283q0 -26 23 -36.5t71 -10.5q67 0 127 22.5t104.5 66t69.5 106t23 142.5q-2 60 -15 105.5t-32 79t-41.5 55.5t-42.5 34q-42 27 -91 35.5t-97 8.5q-37 0 -57 -2t-29.5 -9.5t-11 -22.5t-1.5 -41v-220z
" />
    <glyph glyph-name="Ntilde" unicode="&#xd1;" horiz-adv-x="870" 
d="M10 17q0 3 5.5 5.5t12.5 3.5t14.5 1.5t12.5 0.5q9 0 20 1.5t21.5 6t17.5 13t9 23.5q0 7 2 45t4.5 102.5t4 153t1.5 197.5v26.5t-2 16.5q-3 7 -13 18.5t-23 23t-25.5 20t-20.5 8.5h-37q-7 0 -8 4t-1 12q0 9 2.5 11.5t8.5 2.5q2 0 14.5 -0.5t28.5 -1.5t30.5 -1.5t21.5 -0.5
q6 0 18 0.5t26 1.5t26.5 1.5t18.5 0.5q2 0 8 -6q88 -99 209.5 -239t289.5 -312q2 35 3.5 83t3 99t2.5 100t1 86q0 57 -7.5 89t-22.5 47.5t-38.5 19t-56.5 3.5q-8 0 -10.5 4t-2.5 10q0 16 11 16q6 0 25.5 -0.5t42.5 -1.5t44.5 -1.5t32.5 -0.5q8 0 29 0.5t42.5 1.5t39.5 1.5
t20 0.5q5 0 6.5 -4t1.5 -9q0 -11 -2.5 -14t-6.5 -3q-30 0 -49.5 -2.5t-31.5 -11.5t-18.5 -25.5t-11.5 -43.5q-2 -9 -3.5 -50t-3.5 -100t-4 -127.5t-3.5 -132.5t-2.5 -115t-1 -75q0 -10 -3.5 -12t-11.5 -2q-2 0 -12 10t-33 35.5t-62.5 69.5t-100.5 111t-146.5 160t-200.5 217
q-1 -65 -2 -129t-1 -129q0 -112 2 -175t2 -79q0 -25 18 -37t60 -12q19 0 29.5 -1t15 -3t5.5 -4.5t1 -6.5q0 -9 -2 -12t-8 -3q-3 0 -7.5 0.5t-18 0.5t-39.5 0.5t-72 0.5q-42 0 -66.5 -0.5t-37.5 -0.5t-17.5 -0.5t-7.5 -0.5q-8 0 -9 5t-1 14zM603 928q-4 -18 -11 -37.5
t-19 -35t-28 -25.5t-38 -10q-17 0 -38 7.5t-41 15.5q-21 9 -41 16.5t-35 7.5q-21 0 -33 -14t-14 -34h-30q4 18 11 37.5t19 35t28 25.5t38 10q17 0 38 -7.5t41 -15.5q21 -9 41 -16.5t35 -7.5q21 0 33 14t14 34h30z" />
    <glyph glyph-name="Ograve" unicode="&#xd2;" horiz-adv-x="833" 
d="M787 339q0 -52 -20 -113.5t-64.5 -115t-115 -89t-171.5 -35.5q-67 0 -120.5 16.5t-95 44t-70.5 63.5t-48 74.5t-27.5 77t-8.5 72.5q0 90 31 162t82.5 122.5t118 77t138.5 26.5q79 0 147 -24t118 -71.5t78 -119.5t28 -168zM668 354q0 54 -13.5 114t-43.5 110.5t-78 84
t-117 33.5q-58 0 -99.5 -19.5t-69.5 -51t-44 -70.5t-24.5 -77t-11 -71.5t-2.5 -53.5q0 -52 13.5 -111.5t43 -110.5t77.5 -85t117 -34q59 0 100.5 17t69.5 45t44.5 64t24.5 74t10.5 75t2.5 67zM463 810l-155 97q-8 5 -18.5 15.5t-10.5 21.5q0 37 35 37q10 0 22.5 -8t18.5 -15
l147 -148h-39z" />
    <glyph glyph-name="Oacute" unicode="&#xd3;" horiz-adv-x="833" 
d="M787 339q0 -52 -20 -113.5t-64.5 -115t-115 -89t-171.5 -35.5q-67 0 -120.5 16.5t-95 44t-70.5 63.5t-48 74.5t-27.5 77t-8.5 72.5q0 90 31 162t82.5 122.5t118 77t138.5 26.5q79 0 147 -24t118 -71.5t78 -119.5t28 -168zM668 354q0 54 -13.5 114t-43.5 110.5t-78 84
t-117 33.5q-58 0 -99.5 -19.5t-69.5 -51t-44 -70.5t-24.5 -77t-11 -71.5t-2.5 -53.5q0 -52 13.5 -111.5t43 -110.5t77.5 -85t117 -34q59 0 100.5 17t69.5 45t44.5 64t24.5 74t10.5 75t2.5 67zM341 810l147 148q6 7 18.5 15t22.5 8q35 0 35 -37q0 -11 -10.5 -21.5
t-18.5 -15.5l-155 -97h-39z" />
    <glyph glyph-name="Ocircumflex" unicode="&#xd4;" horiz-adv-x="833" 
d="M787 339q0 -52 -20 -113.5t-64.5 -115t-115 -89t-171.5 -35.5q-67 0 -120.5 16.5t-95 44t-70.5 63.5t-48 74.5t-27.5 77t-8.5 72.5q0 90 31 162t82.5 122.5t118 77t138.5 26.5q79 0 147 -24t118 -71.5t78 -119.5t28 -168zM668 354q0 54 -13.5 114t-43.5 110.5t-78 84
t-117 33.5q-58 0 -99.5 -19.5t-69.5 -51t-44 -70.5t-24.5 -77t-11 -71.5t-2.5 -53.5q0 -52 13.5 -111.5t43 -110.5t77.5 -85t117 -34q59 0 100.5 17t69.5 45t44.5 64t24.5 74t10.5 75t2.5 67zM293 811h-33l124 166h62l125 -166h-35l-121 103z" />
    <glyph glyph-name="Otilde" unicode="&#xd5;" horiz-adv-x="833" 
d="M787 339q0 -52 -20 -113.5t-64.5 -115t-115 -89t-171.5 -35.5q-67 0 -120.5 16.5t-95 44t-70.5 63.5t-48 74.5t-27.5 77t-8.5 72.5q0 90 31 162t82.5 122.5t118 77t138.5 26.5q79 0 147 -24t118 -71.5t78 -119.5t28 -168zM668 354q0 54 -13.5 114t-43.5 110.5t-78 84
t-117 33.5q-58 0 -99.5 -19.5t-69.5 -51t-44 -70.5t-24.5 -77t-11 -71.5t-2.5 -53.5q0 -52 13.5 -111.5t43 -110.5t77.5 -85t117 -34q59 0 100.5 17t69.5 45t44.5 64t24.5 74t10.5 75t2.5 67zM579 928q-4 -18 -11 -37.5t-19 -35t-28 -25.5t-38 -10q-17 0 -38 7.5t-41 15.5
q-21 9 -41 16.5t-35 7.5q-21 0 -33 -14t-14 -34h-30q4 18 11 37.5t19 35t28 25.5t38 10q17 0 38 -7.5t41 -15.5q21 -9 41 -16.5t35 -7.5q21 0 33 14t14 34h30z" />
    <glyph glyph-name="Odieresis" unicode="&#xd6;" horiz-adv-x="833" 
d="M787 339q0 -52 -20 -113.5t-64.5 -115t-115 -89t-171.5 -35.5q-67 0 -120.5 16.5t-95 44t-70.5 63.5t-48 74.5t-27.5 77t-8.5 72.5q0 90 31 162t82.5 122.5t118 77t138.5 26.5q79 0 147 -24t118 -71.5t78 -119.5t28 -168zM668 354q0 54 -13.5 114t-43.5 110.5t-78 84
t-117 33.5q-58 0 -99.5 -19.5t-69.5 -51t-44 -70.5t-24.5 -77t-11 -71.5t-2.5 -53.5q0 -52 13.5 -111.5t43 -110.5t77.5 -85t117 -34q59 0 100.5 17t69.5 45t44.5 64t24.5 74t10.5 75t2.5 67zM514 826q-20 0 -34.5 15t-14.5 35q0 19 15 34t34 15q20 0 35 -14.5t15 -34.5
t-15 -35t-35 -15zM315 826q-20 0 -34.5 15t-14.5 35q0 19 15 34t34 15q20 0 35 -14.5t15 -34.5t-15 -35t-35 -15z" />
    <glyph glyph-name="multiply" unicode="&#xd7;" 
d="M430 0l-171 173l-171 -173l-44 45l171 171l-171 172l45 43l171 -170l170 170l44 -42l-170 -173l171 -171z" />
    <glyph glyph-name="Oslash" unicode="&#xd8;" horiz-adv-x="833" 
d="M793 699l-95 -91q42 -48 65.5 -114.5t23.5 -154.5q0 -52 -20 -113.5t-64.5 -115t-115 -89t-171.5 -35.5q-85 0 -147 25t-106 65l-94 -94l-30 27l98 94q-48 54 -69.5 116.5t-21.5 114.5q0 90 31 162t82.5 122.5t118 77t138.5 26.5q77 0 142 -21.5t114 -65.5l89 91z
M204 167q114 110 216 212.5t193 195.5q-30 53 -78 87t-119 34q-58 0 -99.5 -19.5t-69.5 -51t-44 -70.5t-24.5 -77t-11 -71.5t-2.5 -53.5q0 -43 9.5 -92t29.5 -94zM629 541q-98 -97 -201.5 -200.5l-206.5 -206.5q29 -53 77 -87.5t118 -34.5q59 0 100.5 17t69.5 45t44.5 64
t24.5 74t10.5 75t2.5 67q0 45 -9 93.5t-30 93.5z" />
    <glyph glyph-name="Ugrave" unicode="&#xd9;" horiz-adv-x="833" 
d="M236 294q0 -50 11.5 -95.5t37.5 -80t69 -55t106 -20.5q44 0 83.5 14t69.5 48.5t47.5 93t17.5 147.5v198q0 52 -6 80.5t-21 41.5t-40.5 15t-64.5 2q-6 0 -7 4t-1 11q0 9 2 12t6 3q13 0 55.5 -2t91.5 -2q12 0 31.5 0.5t40 1.5t37 1.5t21.5 0.5q8 0 11 -3t3 -14
q0 -3 -1.5 -8t-7.5 -5q-36 0 -58.5 -2t-35.5 -13t-17.5 -35t-4.5 -68v-237q0 -67 -13.5 -119t-35.5 -90t-51.5 -63.5t-61.5 -41t-64.5 -22t-61.5 -6.5q-84 0 -139.5 25t-88 63.5t-46 84.5t-13.5 87v229v45.5t-0.5 34t-1 30t-0.5 31.5q0 22 -4.5 35.5t-16 20.5t-31.5 9t-53 2
q-8 0 -9.5 5t-1.5 12q0 5 2 9t7 4q3 0 19 -0.5t39 -1.5t49.5 -1.5t50.5 -0.5t50.5 0.5t50 1.5t39.5 1.5t19 0.5q5 0 7 -4t2 -9q0 -7 -1.5 -12t-9.5 -5q-33 0 -53 -2t-31.5 -9t-16 -20.5t-4.5 -35.5q0 -17 -0.5 -31.5t-1 -30t-0.5 -34v-45.5v-181zM493 810l-155 97
q-8 5 -18.5 15.5t-10.5 21.5q0 37 35 37q10 0 22.5 -8t18.5 -15l147 -148h-39z" />
    <glyph glyph-name="Uacute" unicode="&#xda;" horiz-adv-x="833" 
d="M236 294q0 -50 11.5 -95.5t37.5 -80t69 -55t106 -20.5q44 0 83.5 14t69.5 48.5t47.5 93t17.5 147.5v198q0 52 -6 80.5t-21 41.5t-40.5 15t-64.5 2q-6 0 -7 4t-1 11q0 9 2 12t6 3q13 0 55.5 -2t91.5 -2q12 0 31.5 0.5t40 1.5t37 1.5t21.5 0.5q8 0 11 -3t3 -14
q0 -3 -1.5 -8t-7.5 -5q-36 0 -58.5 -2t-35.5 -13t-17.5 -35t-4.5 -68v-237q0 -67 -13.5 -119t-35.5 -90t-51.5 -63.5t-61.5 -41t-64.5 -22t-61.5 -6.5q-84 0 -139.5 25t-88 63.5t-46 84.5t-13.5 87v229v45.5t-0.5 34t-1 30t-0.5 31.5q0 22 -4.5 35.5t-16 20.5t-31.5 9t-53 2
q-8 0 -9.5 5t-1.5 12q0 5 2 9t7 4q3 0 19 -0.5t39 -1.5t49.5 -1.5t50.5 -0.5t50.5 0.5t50 1.5t39.5 1.5t19 0.5q5 0 7 -4t2 -9q0 -7 -1.5 -12t-9.5 -5q-33 0 -53 -2t-31.5 -9t-16 -20.5t-4.5 -35.5q0 -17 -0.5 -31.5t-1 -30t-0.5 -34v-45.5v-181zM371 810l147 148
q6 7 18.5 15t22.5 8q35 0 35 -37q0 -11 -10.5 -21.5t-18.5 -15.5l-155 -97h-39z" />
    <glyph glyph-name="Ucircumflex" unicode="&#xdb;" horiz-adv-x="833" 
d="M236 294q0 -50 11.5 -95.5t37.5 -80t69 -55t106 -20.5q44 0 83.5 14t69.5 48.5t47.5 93t17.5 147.5v198q0 52 -6 80.5t-21 41.5t-40.5 15t-64.5 2q-6 0 -7 4t-1 11q0 9 2 12t6 3q13 0 55.5 -2t91.5 -2q12 0 31.5 0.5t40 1.5t37 1.5t21.5 0.5q8 0 11 -3t3 -14
q0 -3 -1.5 -8t-7.5 -5q-36 0 -58.5 -2t-35.5 -13t-17.5 -35t-4.5 -68v-237q0 -67 -13.5 -119t-35.5 -90t-51.5 -63.5t-61.5 -41t-64.5 -22t-61.5 -6.5q-84 0 -139.5 25t-88 63.5t-46 84.5t-13.5 87v229v45.5t-0.5 34t-1 30t-0.5 31.5q0 22 -4.5 35.5t-16 20.5t-31.5 9t-53 2
q-8 0 -9.5 5t-1.5 12q0 5 2 9t7 4q3 0 19 -0.5t39 -1.5t49.5 -1.5t50.5 -0.5t50.5 0.5t50 1.5t39.5 1.5t19 0.5q5 0 7 -4t2 -9q0 -7 -1.5 -12t-9.5 -5q-33 0 -53 -2t-31.5 -9t-16 -20.5t-4.5 -35.5q0 -17 -0.5 -31.5t-1 -30t-0.5 -34v-45.5v-181zM307 811h-33l124 166h62
l125 -166h-35l-121 103z" />
    <glyph glyph-name="Udieresis" unicode="&#xdc;" horiz-adv-x="833" 
d="M236 294q0 -50 11.5 -95.5t37.5 -80t69 -55t106 -20.5q44 0 83.5 14t69.5 48.5t47.5 93t17.5 147.5v198q0 52 -6 80.5t-21 41.5t-40.5 15t-64.5 2q-6 0 -7 4t-1 11q0 9 2 12t6 3q13 0 55.5 -2t91.5 -2q12 0 31.5 0.5t40 1.5t37 1.5t21.5 0.5q8 0 11 -3t3 -14
q0 -3 -1.5 -8t-7.5 -5q-36 0 -58.5 -2t-35.5 -13t-17.5 -35t-4.5 -68v-237q0 -67 -13.5 -119t-35.5 -90t-51.5 -63.5t-61.5 -41t-64.5 -22t-61.5 -6.5q-84 0 -139.5 25t-88 63.5t-46 84.5t-13.5 87v229v45.5t-0.5 34t-1 30t-0.5 31.5q0 22 -4.5 35.5t-16 20.5t-31.5 9t-53 2
q-8 0 -9.5 5t-1.5 12q0 5 2 9t7 4q3 0 19 -0.5t39 -1.5t49.5 -1.5t50.5 -0.5t50.5 0.5t50 1.5t39.5 1.5t19 0.5q5 0 7 -4t2 -9q0 -7 -1.5 -12t-9.5 -5q-33 0 -53 -2t-31.5 -9t-16 -20.5t-4.5 -35.5q0 -17 -0.5 -31.5t-1 -30t-0.5 -34v-45.5v-181zM528 826q-20 0 -34.5 15
t-14.5 35q0 19 15 34t34 15q20 0 35 -14.5t15 -34.5t-15 -35t-35 -15zM329 826q-20 0 -34.5 15t-14.5 35q0 19 15 34t34 15q20 0 35 -14.5t15 -34.5t-15 -35t-35 -15z" />
    <glyph glyph-name="Yacute" unicode="&#xdd;" horiz-adv-x="667" 
d="M88 648q-13 25 -29 30t-39 5q-20 0 -24.5 2.5t-4.5 13.5q0 10 4.5 12t12.5 2q32 0 63 -2t63 -2q34 0 68 2t68 2q12 0 16 -2.5t4 -12.5q0 -9 -3.5 -12t-21.5 -3q-27 0 -41 -6.5t-14 -24.5q0 -5 4.5 -17t19 -41.5t41 -81t71.5 -135.5q12 -23 16 -31t9 -8t14 16.5t28 51.5
q40 74 63.5 119t35.5 70.5t15.5 36t3.5 16.5q0 14 -8 24.5t-37 10.5q-16 0 -24.5 0.5t-13 2.5t-5.5 5t-1 8q0 14 13 14q4 0 19 -0.5t33 -1.5t34 -1.5t21 -0.5q9 0 23.5 0.5t31.5 1.5t35 1.5t34 0.5q13 0 13 -14q0 -9 -6 -12.5t-31 -3.5q-23 0 -38.5 -5.5t-26.5 -15
t-18.5 -21.5t-14.5 -25l-158 -287q-8 -14 -12.5 -23.5t-7 -19t-3 -22.5t-0.5 -34v-35.5t0.5 -40.5l1 -42t1.5 -40q0 -10 2.5 -18t11 -14t25.5 -9t47 -3q21 0 24.5 -4.5t3.5 -12.5q0 -7 -1 -10t-7 -3q-3 0 -7 0.5t-19.5 0.5t-46.5 0.5t-86 0.5t-85.5 -0.5t-46 -0.5
t-19.5 -0.5t-7 -0.5q-6 0 -7 3t-1 10q0 8 3.5 12.5t24.5 4.5q30 0 47 3t25.5 9t11 14t2.5 18q1 19 1.5 40l1 42t0.5 40.5v35.5q0 34 -2.5 46t-6.5 18zM288 810l147 148q6 7 18.5 15t22.5 8q35 0 35 -37q0 -11 -10.5 -21.5t-18.5 -15.5l-155 -97h-39z" />
    <glyph glyph-name="Thorn" unicode="&#xde;" horiz-adv-x="630" 
d="M137 475v45.5t-0.5 34t-1 30t-0.5 31.5q0 22 -4 35.5t-14 20.5t-27.5 9t-44.5 2q-8 0 -9.5 5t-1.5 12q0 5 2 9t7 4q3 0 17 -0.5t34 -1.5t44 -1.5t48 -0.5t50.5 0.5t50 1.5t39.5 1.5t19 0.5q5 0 7 -4t2 -9q0 -7 -1.5 -12t-9.5 -5q-33 0 -53.5 -2t-32.5 -9t-16.5 -20.5
t-4.5 -35.5q0 -29 4 -47.5t15 -18.5q4 0 8 1t11.5 1.5t20 1.5t33.5 1q90 0 142.5 -17t79.5 -41.5t34.5 -51t7.5 -45.5q0 -56 -17.5 -94t-49 -61.5t-74.5 -34t-94 -10.5q-42 0 -71.5 5t-49.5 5v-104q0 -26 3 -41.5t14.5 -23.5t34 -10.5t61.5 -2.5q21 0 24.5 -4.5t3.5 -12.5
q0 -7 -1 -10t-7 -3q-3 0 -11 0.5t-27.5 0.5t-54.5 0.5t-90 0.5t-85.5 -0.5t-46 -0.5t-19.5 -0.5t-7 -0.5q-6 0 -7 3t-1 10q0 8 3.5 12.5t24.5 4.5q30 0 47 3t25.5 9t11 14t2.5 18q1 19 1.5 40l1 42t0.5 40.5v35.5v245zM236 256q0 -4 1.5 -8.5t7.5 -8.5t17.5 -6.5t30.5 -2.5
q41 0 76 8.5t60.5 27.5t40 49.5t14.5 74.5q0 60 -46 97.5t-126 37.5q-15 0 -29 -1t-24.5 -5.5t-16.5 -14.5t-6 -28v-220z" />
    <glyph glyph-name="germandbls" unicode="&#xdf;" horiz-adv-x="537" 
d="M98 342q0 16 -2 25t-9 13t-19 4.5t-32 0.5q-7 0 -8 3t-1 11q0 5 4 7t11 5q20 8 32 29.5t20.5 49t15 58.5t15.5 58q20 63 66 102t114 39q45 0 73 -12.5t43.5 -30.5t20.5 -37t5 -32q0 -32 -12.5 -55.5t-32 -39.5t-43 -26t-45.5 -16q-8 -2 -14 -3t-6 -3q0 -5 16 -9t49 -27
q63 -43 95 -111.5t32 -143.5q0 -51 -13.5 -91t-33.5 -67.5t-44.5 -42t-45.5 -14.5q-39 0 -63.5 25t-24.5 67q0 40 17 54.5t35 14.5q9 0 21 -9.5t12 -28.5q0 -15 -5.5 -22t-11.5 -12.5t-11.5 -11.5t-5.5 -18q0 -18 11.5 -25.5t28.5 -7.5q7 0 17.5 4.5t20 16t16 31.5t6.5 52
q0 41 -11 93.5t-32 104.5t-51.5 95.5t-70.5 66.5q-2 1 -4 3.5t-2 8.5q0 10 6 13q12 4 31 12t37 22.5t31.5 37.5t13.5 58q0 37 -17.5 61.5t-55.5 24.5q-56 0 -82 -57.5t-26 -189.5v-403q0 -11 1.5 -19t7.5 -13.5t18 -8t33 -2.5q2 0 3.5 -5t1.5 -9q0 -12 -12 -12q-23 0 -46 1
t-46 1q-21 0 -35.5 -0.5t-25.5 -0.5t-20.5 -0.5t-19.5 -0.5q-8 0 -10 2t-2 10q0 9 2.5 11.5t12.5 2.5q18 0 29 2t17 11t8 27.5t2 51.5v226z" />
    <glyph glyph-name="agrave" unicode="&#xe0;" horiz-adv-x="444" 
d="M350 54q0 -12 4.5 -16t12.5 -4q7 0 14 3.5t12 8t9.5 8t7.5 3.5q4 0 8.5 -4t4.5 -7q0 -5 -10.5 -14.5t-26 -20t-33 -18t-30.5 -7.5q-27 0 -37 16t-18 42q-22 -17 -39 -28.5t-32 -18t-28.5 -9t-29.5 -2.5q-29 0 -48 9.5t-29.5 23t-14.5 29t-4 27.5q0 19 7.5 37t31.5 37.5
t68.5 42t118.5 49.5v91q0 19 -10 34t-23.5 25t-27.5 15t-23 5t-21 -6t-23 -13.5t-19 -15t-8 -11.5q0 -11 6.5 -22t6.5 -28q0 -4 -2 -10.5t-7.5 -12.5t-15 -10.5t-24.5 -4.5q-13 0 -21 4t-12.5 10t-6.5 12.5t-2 10.5q0 10 2.5 18.5t10.5 18t24.5 22t44.5 31.5
q28 18 45.5 28.5t28.5 15t18.5 5.5t15.5 1q12 0 33 -5t41 -18t35 -35.5t15 -56.5v-285zM269 202q0 10 -7 10q-2 0 -15 -5.5t-29 -13t-32 -16t-23 -14.5q-21 -16 -27 -30.5t-6 -42.5q0 -23 10.5 -42.5t36.5 -19.5q14 0 30.5 5.5t30 14t22.5 17.5t9 16v121zM268 530l-155 97
q-8 5 -18.5 15.5t-10.5 21.5q0 37 35 37q10 0 22.5 -8t18.5 -15l147 -148h-39z" />
    <glyph glyph-name="aacute" unicode="&#xe1;" horiz-adv-x="444" 
d="M350 54q0 -12 4.5 -16t12.5 -4q7 0 14 3.5t12 8t9.5 8t7.5 3.5q4 0 8.5 -4t4.5 -7q0 -5 -10.5 -14.5t-26 -20t-33 -18t-30.5 -7.5q-27 0 -37 16t-18 42q-22 -17 -39 -28.5t-32 -18t-28.5 -9t-29.5 -2.5q-29 0 -48 9.5t-29.5 23t-14.5 29t-4 27.5q0 19 7.5 37t31.5 37.5
t68.5 42t118.5 49.5v91q0 19 -10 34t-23.5 25t-27.5 15t-23 5t-21 -6t-23 -13.5t-19 -15t-8 -11.5q0 -11 6.5 -22t6.5 -28q0 -4 -2 -10.5t-7.5 -12.5t-15 -10.5t-24.5 -4.5q-13 0 -21 4t-12.5 10t-6.5 12.5t-2 10.5q0 10 2.5 18.5t10.5 18t24.5 22t44.5 31.5
q28 18 45.5 28.5t28.5 15t18.5 5.5t15.5 1q12 0 33 -5t41 -18t35 -35.5t15 -56.5v-285zM269 202q0 10 -7 10q-2 0 -15 -5.5t-29 -13t-32 -16t-23 -14.5q-21 -16 -27 -30.5t-6 -42.5q0 -23 10.5 -42.5t36.5 -19.5q14 0 30.5 5.5t30 14t22.5 17.5t9 16v121zM136 530l147 148
q6 7 18.5 15t22.5 8q35 0 35 -37q0 -11 -10.5 -21.5t-18.5 -15.5l-155 -97h-39z" />
    <glyph glyph-name="acircumflex" unicode="&#xe2;" horiz-adv-x="444" 
d="M350 54q0 -12 4.5 -16t12.5 -4q7 0 14 3.5t12 8t9.5 8t7.5 3.5q4 0 8.5 -4t4.5 -7q0 -5 -10.5 -14.5t-26 -20t-33 -18t-30.5 -7.5q-27 0 -37 16t-18 42q-22 -17 -39 -28.5t-32 -18t-28.5 -9t-29.5 -2.5q-29 0 -48 9.5t-29.5 23t-14.5 29t-4 27.5q0 19 7.5 37t31.5 37.5
t68.5 42t118.5 49.5v91q0 19 -10 34t-23.5 25t-27.5 15t-23 5t-21 -6t-23 -13.5t-19 -15t-8 -11.5q0 -11 6.5 -22t6.5 -28q0 -4 -2 -10.5t-7.5 -12.5t-15 -10.5t-24.5 -4.5q-13 0 -21 4t-12.5 10t-6.5 12.5t-2 10.5q0 10 2.5 18.5t10.5 18t24.5 22t44.5 31.5
q28 18 45.5 28.5t28.5 15t18.5 5.5t15.5 1q12 0 33 -5t41 -18t35 -35.5t15 -56.5v-285zM269 202q0 10 -7 10q-2 0 -15 -5.5t-29 -13t-32 -16t-23 -14.5q-21 -16 -27 -30.5t-6 -42.5q0 -23 10.5 -42.5t36.5 -19.5q14 0 30.5 5.5t30 14t22.5 17.5t9 16v121zM111 531h-33
l124 166h62l125 -166h-35l-121 103z" />
    <glyph glyph-name="atilde" unicode="&#xe3;" horiz-adv-x="444" 
d="M350 54q0 -12 4.5 -16t12.5 -4q7 0 14 3.5t12 8t9.5 8t7.5 3.5q4 0 8.5 -4t4.5 -7q0 -5 -10.5 -14.5t-26 -20t-33 -18t-30.5 -7.5q-27 0 -37 16t-18 42q-22 -17 -39 -28.5t-32 -18t-28.5 -9t-29.5 -2.5q-29 0 -48 9.5t-29.5 23t-14.5 29t-4 27.5q0 19 7.5 37t31.5 37.5
t68.5 42t118.5 49.5v91q0 19 -10 34t-23.5 25t-27.5 15t-23 5t-21 -6t-23 -13.5t-19 -15t-8 -11.5q0 -11 6.5 -22t6.5 -28q0 -4 -2 -10.5t-7.5 -12.5t-15 -10.5t-24.5 -4.5q-13 0 -21 4t-12.5 10t-6.5 12.5t-2 10.5q0 10 2.5 18.5t10.5 18t24.5 22t44.5 31.5
q28 18 45.5 28.5t28.5 15t18.5 5.5t15.5 1q12 0 33 -5t41 -18t35 -35.5t15 -56.5v-285zM269 202q0 10 -7 10q-2 0 -15 -5.5t-29 -13t-32 -16t-23 -14.5q-21 -16 -27 -30.5t-6 -42.5q0 -23 10.5 -42.5t36.5 -19.5q14 0 30.5 5.5t30 14t22.5 17.5t9 16v121zM397 648
q-4 -18 -11 -37.5t-19 -35t-28 -25.5t-38 -10q-17 0 -38 7.5t-41 15.5q-21 9 -41 16.5t-35 7.5q-21 0 -33 -14t-14 -34h-30q4 18 11 37.5t19 35t28 25.5t38 10q17 0 38 -7.5t41 -15.5q21 -9 41 -16.5t35 -7.5q21 0 33 14t14 34h30z" />
    <glyph glyph-name="adieresis" unicode="&#xe4;" horiz-adv-x="444" 
d="M350 54q0 -12 4.5 -16t12.5 -4q7 0 14 3.5t12 8t9.5 8t7.5 3.5q4 0 8.5 -4t4.5 -7q0 -5 -10.5 -14.5t-26 -20t-33 -18t-30.5 -7.5q-27 0 -37 16t-18 42q-22 -17 -39 -28.5t-32 -18t-28.5 -9t-29.5 -2.5q-29 0 -48 9.5t-29.5 23t-14.5 29t-4 27.5q0 19 7.5 37t31.5 37.5
t68.5 42t118.5 49.5v91q0 19 -10 34t-23.5 25t-27.5 15t-23 5t-21 -6t-23 -13.5t-19 -15t-8 -11.5q0 -11 6.5 -22t6.5 -28q0 -4 -2 -10.5t-7.5 -12.5t-15 -10.5t-24.5 -4.5q-13 0 -21 4t-12.5 10t-6.5 12.5t-2 10.5q0 10 2.5 18.5t10.5 18t24.5 22t44.5 31.5
q28 18 45.5 28.5t28.5 15t18.5 5.5t15.5 1q12 0 33 -5t41 -18t35 -35.5t15 -56.5v-285zM269 202q0 10 -7 10q-2 0 -15 -5.5t-29 -13t-32 -16t-23 -14.5q-21 -16 -27 -30.5t-6 -42.5q0 -23 10.5 -42.5t36.5 -19.5q14 0 30.5 5.5t30 14t22.5 17.5t9 16v121zM332 546
q-20 0 -34.5 15t-14.5 35q0 19 15 34t34 15q20 0 35 -14.5t15 -34.5t-15 -35t-35 -15zM133 546q-20 0 -34.5 15t-14.5 35q0 19 15 34t34 15q20 0 35 -14.5t15 -34.5t-15 -35t-35 -15z" />
    <glyph glyph-name="aring" unicode="&#xe5;" horiz-adv-x="444" 
d="M350 54q0 -12 4.5 -16t12.5 -4q7 0 14 3.5t12 8t9.5 8t7.5 3.5q4 0 8.5 -4t4.5 -7q0 -5 -10.5 -14.5t-26 -20t-33 -18t-30.5 -7.5q-27 0 -37 16t-18 42q-22 -17 -39 -28.5t-32 -18t-28.5 -9t-29.5 -2.5q-29 0 -48 9.5t-29.5 23t-14.5 29t-4 27.5q0 19 7.5 37t31.5 37.5
t68.5 42t118.5 49.5v91q0 19 -10 34t-23.5 25t-27.5 15t-23 5t-21 -6t-23 -13.5t-19 -15t-8 -11.5q0 -11 6.5 -22t6.5 -28q0 -4 -2 -10.5t-7.5 -12.5t-15 -10.5t-24.5 -4.5q-13 0 -21 4t-12.5 10t-6.5 12.5t-2 10.5q0 10 2.5 18.5t10.5 18t24.5 22t44.5 31.5
q28 18 45.5 28.5t28.5 15t18.5 5.5t15.5 1q12 0 33 -5t41 -18t35 -35.5t15 -56.5v-285zM269 202q0 10 -7 10q-2 0 -15 -5.5t-29 -13t-32 -16t-23 -14.5q-21 -16 -27 -30.5t-6 -42.5q0 -23 10.5 -42.5t36.5 -19.5q14 0 30.5 5.5t30 14t22.5 17.5t9 16v121zM227 504
q-44 0 -73 29t-29 70q0 20 8 37.5t21.5 31t32.5 21.5t40 8t40 -7.5t33 -21t22 -31.5t8 -38q0 -42 -29 -70.5t-74 -28.5zM227 534q13 0 25 5.5t21.5 15t15 22t5.5 26.5q0 28 -20.5 48t-46.5 20q-27 0 -46.5 -19.5t-19.5 -48.5q0 -28 20 -48.5t46 -20.5z" />
    <glyph glyph-name="ae" unicode="&#xe6;" horiz-adv-x="648" 
d="M350 237v-67q0 -61 31.5 -90t91.5 -29q48 0 74 11.5t39.5 25t18.5 25t11 11.5q2 0 8 -2t6 -5q0 -6 -8 -27.5t-29 -44.5t-57 -41t-91 -18q-46 0 -86.5 17.5t-69.5 55.5q-16 -12 -33 -25t-35 -23.5t-38.5 -17.5t-43.5 -7q-29 0 -48 9.5t-29.5 23t-14.5 29t-4 27.5
q0 19 7.5 37t31.5 37.5t68.5 42t118.5 49.5v91q0 19 -10 34t-23.5 25t-27.5 15t-23 5t-21 -6t-23 -13.5t-19 -15t-8 -11.5q0 -11 6.5 -22t6.5 -28q0 -4 -2 -10.5t-7.5 -12.5t-15 -10.5t-24.5 -4.5q-13 0 -21 4t-12.5 10t-6.5 12.5t-2 10.5q0 10 2.5 18.5t10.5 18t24.5 22
t44.5 31.5q28 18 45.5 28.5t28.5 15t18.5 5.5t15.5 1q11 0 25.5 -4t29.5 -10.5t28.5 -16.5t22.5 -22q26 26 59.5 39.5t66.5 13.5q48 0 79 -17t48.5 -39t24.5 -43t7 -29t-7 -10zM515 318q8 2 8 18q0 40 -24.5 64t-61.5 24q-15 0 -30.5 -4t-28 -13.5t-20.5 -25.5t-8 -39v-77z
M269 202q0 10 -7 10q-2 0 -15 -5.5t-29 -13t-32 -16t-23 -14.5q-21 -16 -27 -30.5t-6 -42.5q0 -23 10.5 -42.5t36.5 -19.5q14 0 30.5 5.5t30 14t22.5 17.5t9 16v121z" />
    <glyph glyph-name="ccedilla" unicode="&#xe7;" horiz-adv-x="444" 
d="M187 -99l36 86q-40 3 -74 20t-59 45.5t-39.5 68.5t-14.5 91q0 55 17.5 99.5t48 75t72 47t89.5 16.5q51 0 83 -12t50 -27.5t24 -31.5t6 -24q0 -5 -3 -12t-9.5 -14t-16.5 -12t-24 -5q-12 0 -19.5 2.5t-12 9.5t-8 19.5t-7.5 33.5q-1 6 -3.5 14t-9 15.5t-18.5 12.5t-31 5
q-24 0 -49 -10t-45.5 -34.5t-33.5 -65.5t-13 -102q0 -17 5 -45.5t22.5 -56.5t51.5 -48t91 -20q28 0 57 14.5t44 27.5q6 5 9.5 10.5t7.5 5.5q2 0 8.5 -4.5t6.5 -9.5q0 -7 -8 -15q-35 -41 -75 -61t-85 -23l-20 -52q13 3 29 3t31 -4t27 -12.5t19 -21.5t7 -31q0 -32 -16 -49
t-37 -24.5t-42 -9t-31 -1.5q-23 0 -43.5 4.5t-39.5 11.5l14 31q15 -5 31 -8.5t33 -3.5q20 0 39 9t19 33q0 19 -12 29t-30 10q-20 0 -42 -5z" />
    <glyph glyph-name="egrave" unicode="&#xe8;" horiz-adv-x="463" 
d="M124 270q-2 -14 -3 -28.5t-1 -28.5q0 -24 10.5 -53t31 -54t51 -41.5t71.5 -16.5q35 0 64 12.5t53 47.5q5 6 8 11.5t7 5.5q5 0 10.5 -5t5.5 -7q0 -1 -8.5 -21t-28 -43.5t-53 -43t-82.5 -19.5q-107 0 -162.5 61.5t-55.5 166.5q0 54 17 98t44.5 75.5t63.5 49t75 17.5
q62 0 98 -23t54 -52.5t22.5 -58t4.5 -39.5q0 -8 -3 -9.5t-9 -1.5h-285zM296 300q15 0 24.5 6.5t9.5 26.5q0 29 -9 47.5t-22.5 29t-28.5 14.5t-28 4q-27 0 -46.5 -10.5t-33 -28t-21 -41t-11.5 -48.5h166zM278 530l-155 97q-8 5 -18.5 15.5t-10.5 21.5q0 37 35 37
q10 0 22.5 -8t18.5 -15l147 -148h-39z" />
    <glyph glyph-name="eacute" unicode="&#xe9;" horiz-adv-x="463" 
d="M124 270q-2 -14 -3 -28.5t-1 -28.5q0 -24 10.5 -53t31 -54t51 -41.5t71.5 -16.5q35 0 64 12.5t53 47.5q5 6 8 11.5t7 5.5q5 0 10.5 -5t5.5 -7q0 -1 -8.5 -21t-28 -43.5t-53 -43t-82.5 -19.5q-107 0 -162.5 61.5t-55.5 166.5q0 54 17 98t44.5 75.5t63.5 49t75 17.5
q62 0 98 -23t54 -52.5t22.5 -58t4.5 -39.5q0 -8 -3 -9.5t-9 -1.5h-285zM296 300q15 0 24.5 6.5t9.5 26.5q0 29 -9 47.5t-22.5 29t-28.5 14.5t-28 4q-27 0 -46.5 -10.5t-33 -28t-21 -41t-11.5 -48.5h166zM186 530l147 148q6 7 18.5 15t22.5 8q35 0 35 -37q0 -11 -10.5 -21.5
t-18.5 -15.5l-155 -97h-39z" />
    <glyph glyph-name="ecircumflex" unicode="&#xea;" horiz-adv-x="463" 
d="M124 270q-2 -14 -3 -28.5t-1 -28.5q0 -24 10.5 -53t31 -54t51 -41.5t71.5 -16.5q35 0 64 12.5t53 47.5q5 6 8 11.5t7 5.5q5 0 10.5 -5t5.5 -7q0 -1 -8.5 -21t-28 -43.5t-53 -43t-82.5 -19.5q-107 0 -162.5 61.5t-55.5 166.5q0 54 17 98t44.5 75.5t63.5 49t75 17.5
q62 0 98 -23t54 -52.5t22.5 -58t4.5 -39.5q0 -8 -3 -9.5t-9 -1.5h-285zM296 300q15 0 24.5 6.5t9.5 26.5q0 29 -9 47.5t-22.5 29t-28.5 14.5t-28 4q-27 0 -46.5 -10.5t-33 -28t-21 -41t-11.5 -48.5h166zM121 531h-33l124 166h62l125 -166h-35l-121 103z" />
    <glyph glyph-name="edieresis" unicode="&#xeb;" horiz-adv-x="463" 
d="M124 270q-2 -14 -3 -28.5t-1 -28.5q0 -24 10.5 -53t31 -54t51 -41.5t71.5 -16.5q35 0 64 12.5t53 47.5q5 6 8 11.5t7 5.5q5 0 10.5 -5t5.5 -7q0 -1 -8.5 -21t-28 -43.5t-53 -43t-82.5 -19.5q-107 0 -162.5 61.5t-55.5 166.5q0 54 17 98t44.5 75.5t63.5 49t75 17.5
q62 0 98 -23t54 -52.5t22.5 -58t4.5 -39.5q0 -8 -3 -9.5t-9 -1.5h-285zM296 300q15 0 24.5 6.5t9.5 26.5q0 29 -9 47.5t-22.5 29t-28.5 14.5t-28 4q-27 0 -46.5 -10.5t-33 -28t-21 -41t-11.5 -48.5h166zM342 546q-20 0 -34.5 15t-14.5 35q0 19 15 34t34 15q20 0 35 -14.5
t15 -34.5t-15 -35t-35 -15zM143 546q-20 0 -34.5 15t-14.5 35q0 19 15 34t34 15q20 0 35 -14.5t15 -34.5t-15 -35t-35 -15z" />
    <glyph glyph-name="igrave" unicode="&#xec;" horiz-adv-x="278" 
d="M179 93q0 -21 1 -34.5t5.5 -21t13.5 -10.5t26 -3t20.5 -2t3.5 -11q0 -5 -1 -9t-9 -4q-2 0 -6 0.5t-13 0.5t-24.5 0.5t-39.5 0.5q-35 0 -58.5 -0.5t-38.5 -0.5t-23.5 -0.5t-14.5 -0.5t-7 3.5t-1 7.5q0 10 5 12.5t33 2.5q20 0 28 6.5t13 17.5q1 3 2.5 17t2 34.5t1 44.5
t0.5 48v137q0 26 -10.5 41t-48.5 19q-6 1 -7.5 4t-1.5 8q0 12 8 14q43 9 68.5 17.5t40 15.5t20.5 11.5t11 4.5q6 0 6 -11q0 -2 -1 -6t-1.5 -18.5t-1.5 -42.5t-1 -77v-216zM165 530l-155 97q-8 5 -18.5 15.5t-10.5 21.5q0 37 35 37q10 0 22.5 -8t18.5 -15l147 -148h-39z" />
    <glyph glyph-name="iacute" unicode="&#xed;" horiz-adv-x="278" 
d="M179 93q0 -21 1 -34.5t5.5 -21t13.5 -10.5t26 -3t20.5 -2t3.5 -11q0 -5 -1 -9t-9 -4q-2 0 -6 0.5t-13 0.5t-24.5 0.5t-39.5 0.5q-35 0 -58.5 -0.5t-38.5 -0.5t-23.5 -0.5t-14.5 -0.5t-7 3.5t-1 7.5q0 10 5 12.5t33 2.5q20 0 28 6.5t13 17.5q1 3 2.5 17t2 34.5t1 44.5
t0.5 48v137q0 26 -10.5 41t-48.5 19q-6 1 -7.5 4t-1.5 8q0 12 8 14q43 9 68.5 17.5t40 15.5t20.5 11.5t11 4.5q6 0 6 -11q0 -2 -1 -6t-1.5 -18.5t-1.5 -42.5t-1 -77v-216zM63 530l147 148q6 7 18.5 15t22.5 8q35 0 35 -37q0 -11 -10.5 -21.5t-18.5 -15.5l-155 -97h-39z" />
    <glyph glyph-name="icircumflex" unicode="&#xee;" horiz-adv-x="278" 
d="M179 93q0 -21 1 -34.5t5.5 -21t13.5 -10.5t26 -3t20.5 -2t3.5 -11q0 -5 -1 -9t-9 -4q-2 0 -6 0.5t-13 0.5t-24.5 0.5t-39.5 0.5q-35 0 -58.5 -0.5t-38.5 -0.5t-23.5 -0.5t-14.5 -0.5t-7 3.5t-1 7.5q0 10 5 12.5t33 2.5q20 0 28 6.5t13 17.5q1 3 2.5 17t2 34.5t1 44.5
t0.5 48v137q0 26 -10.5 41t-48.5 19q-6 1 -7.5 4t-1.5 8q0 12 8 14q43 9 68.5 17.5t40 15.5t20.5 11.5t11 4.5q6 0 6 -11q0 -2 -1 -6t-1.5 -18.5t-1.5 -42.5t-1 -77v-216zM7 531h-33l124 166h62l125 -166h-35l-121 103z" />
    <glyph glyph-name="idieresis" unicode="&#xef;" horiz-adv-x="278" 
d="M179 93q0 -21 1 -34.5t5.5 -21t13.5 -10.5t26 -3t20.5 -2t3.5 -11q0 -5 -1 -9t-9 -4q-2 0 -6 0.5t-13 0.5t-24.5 0.5t-39.5 0.5q-35 0 -58.5 -0.5t-38.5 -0.5t-23.5 -0.5t-14.5 -0.5t-7 3.5t-1 7.5q0 10 5 12.5t33 2.5q20 0 28 6.5t13 17.5q1 3 2.5 17t2 34.5t1 44.5
t0.5 48v137q0 26 -10.5 41t-48.5 19q-6 1 -7.5 4t-1.5 8q0 12 8 14q43 9 68.5 17.5t40 15.5t20.5 11.5t11 4.5q6 0 6 -11q0 -2 -1 -6t-1.5 -18.5t-1.5 -42.5t-1 -77v-216zM228 546q-20 0 -34.5 15t-14.5 35q0 19 15 34t34 15q20 0 35 -14.5t15 -34.5t-15 -35t-35 -15z
M29 546q-20 0 -34.5 15t-14.5 35q0 19 15 34t34 15q20 0 35 -14.5t15 -34.5t-15 -35t-35 -15z" />
    <glyph glyph-name="eth" unicode="&#xf0;" horiz-adv-x="537" 
d="M268 624q-33 28 -64 44t-55.5 23.5t-39 10.5t-14.5 6q0 15 10 15q17 0 42 -4.5t53.5 -13t57.5 -21t54 -29.5l142 100l26 -27l-137 -96q69 -58 113.5 -147t44.5 -210q0 -75 -23 -129.5t-57.5 -90t-75.5 -52.5t-77 -17q-51 0 -94 17.5t-73.5 48.5t-47.5 73.5t-17 92.5
q0 49 17.5 91.5t48.5 74t73.5 49t92.5 17.5q44 0 74 -13t43 -22l2 2q-6 48 -28 94.5t-63 87.5l-143 -102l-26 27zM406 218q0 37 -7 73.5t-23 66t-42.5 48t-65.5 18.5t-65.5 -18.5t-42 -48t-22.5 -66t-7 -73.5q0 -32 5 -68t19.5 -67t41.5 -51t71 -20t71 20t42 51t20 67t5 68z
" />
    <glyph glyph-name="ntilde" unicode="&#xf1;" horiz-adv-x="556" 
d="M174 93q0 -21 1 -34.5t5.5 -21t13.5 -10.5t26 -3q20 0 24.5 -2t4.5 -11q0 -5 -1 -9t-9 -4q-2 0 -6 0.5t-13.5 0.5t-26 0.5t-42.5 0.5q-35 0 -58.5 -0.5t-38.5 -0.5t-23.5 -0.5t-14.5 -0.5t-7 3.5t-1 7.5q0 10 5 12.5t33 2.5q20 0 28 6.5t13 17.5q1 3 2.5 17t2 34.5
t1 44.5t0.5 48v137q0 26 -10.5 41t-48.5 19q-6 1 -7.5 4t-1.5 8q0 12 8 14q43 9 68.5 17.5t40 15.5t20.5 11.5t11 4.5q3 0 3 -11q0 -5 -1 -22t-1 -50q39 26 77.5 47.5t79.5 21.5q13 0 35 -3.5t43.5 -18t37.5 -44.5t16 -84v-240q0 -6 1.5 -12.5t8 -12t19.5 -8.5t36 -3
q8 0 9 -4t1 -9t-1.5 -9t-12.5 -4t-21 0.5t-21 0.5t-25 0.5t-34 0.5q-30 0 -49.5 -0.5t-30.5 -0.5t-16.5 -0.5t-8.5 -0.5q-5 0 -6 4t-1 8t2.5 9t11.5 5q36 0 46.5 6t10.5 31v179q0 35 -3 63.5t-14 49t-33.5 31.5t-61.5 11q-14 0 -30.5 -5.5t-30.5 -13t-24 -15.5t-11 -12v-256
zM436 648q-4 -18 -11 -37.5t-19 -35t-28 -25.5t-38 -10q-17 0 -38 7.5t-41 15.5q-21 9 -41 16.5t-35 7.5q-21 0 -33 -14t-14 -34h-30q4 18 11 37.5t19 35t28 25.5t38 10q17 0 38 -7.5t41 -15.5q21 -9 41 -16.5t35 -7.5q21 0 33 14t14 34h30z" />
    <glyph glyph-name="ograve" unicode="&#xf2;" horiz-adv-x="537" 
d="M501 218q0 -53 -16.5 -95.5t-47.5 -73t-74 -47t-95 -16.5q-51 0 -94 17.5t-73.5 48.5t-47.5 73.5t-17 92.5q0 49 17.5 91.5t48.5 74t73.5 49t92.5 17.5t93 -17.5t74 -48t48.5 -73t17.5 -93.5zM406 218q0 37 -7 73.5t-23 66t-42.5 48t-65.5 18.5t-65.5 -18.5t-42 -48
t-22.5 -66t-7 -73.5q0 -32 5 -68t19.5 -67t41.5 -51t71 -20t71 20t42 51t20 67t5 68zM305 530l-155 97q-8 5 -18.5 15.5t-10.5 21.5q0 37 35 37q10 0 22.5 -8t18.5 -15l147 -148h-39z" />
    <glyph glyph-name="oacute" unicode="&#xf3;" horiz-adv-x="537" 
d="M501 218q0 -53 -16.5 -95.5t-47.5 -73t-74 -47t-95 -16.5q-51 0 -94 17.5t-73.5 48.5t-47.5 73.5t-17 92.5q0 49 17.5 91.5t48.5 74t73.5 49t92.5 17.5t93 -17.5t74 -48t48.5 -73t17.5 -93.5zM406 218q0 37 -7 73.5t-23 66t-42.5 48t-65.5 18.5t-65.5 -18.5t-42 -48
t-22.5 -66t-7 -73.5q0 -32 5 -68t19.5 -67t41.5 -51t71 -20t71 20t42 51t20 67t5 68zM193 530l147 148q6 7 18.5 15t22.5 8q35 0 35 -37q0 -11 -10.5 -21.5t-18.5 -15.5l-155 -97h-39z" />
    <glyph glyph-name="ocircumflex" unicode="&#xf4;" horiz-adv-x="537" 
d="M501 218q0 -53 -16.5 -95.5t-47.5 -73t-74 -47t-95 -16.5q-51 0 -94 17.5t-73.5 48.5t-47.5 73.5t-17 92.5q0 49 17.5 91.5t48.5 74t73.5 49t92.5 17.5t93 -17.5t74 -48t48.5 -73t17.5 -93.5zM406 218q0 37 -7 73.5t-23 66t-42.5 48t-65.5 18.5t-65.5 -18.5t-42 -48
t-22.5 -66t-7 -73.5q0 -32 5 -68t19.5 -67t41.5 -51t71 -20t71 20t42 51t20 67t5 68zM147 531h-33l124 166h62l125 -166h-35l-121 103z" />
    <glyph glyph-name="otilde" unicode="&#xf5;" horiz-adv-x="537" 
d="M501 218q0 -53 -16.5 -95.5t-47.5 -73t-74 -47t-95 -16.5q-51 0 -94 17.5t-73.5 48.5t-47.5 73.5t-17 92.5q0 49 17.5 91.5t48.5 74t73.5 49t92.5 17.5t93 -17.5t74 -48t48.5 -73t17.5 -93.5zM406 218q0 37 -7 73.5t-23 66t-42.5 48t-65.5 18.5t-65.5 -18.5t-42 -48
t-22.5 -66t-7 -73.5q0 -32 5 -68t19.5 -67t41.5 -51t71 -20t71 20t42 51t20 67t5 68zM433 648q-4 -18 -11 -37.5t-19 -35t-28 -25.5t-38 -10q-17 0 -38 7.5t-41 15.5q-21 9 -41 16.5t-35 7.5q-21 0 -33 -14t-14 -34h-30q4 18 11 37.5t19 35t28 25.5t38 10q17 0 38 -7.5
t41 -15.5q21 -9 41 -16.5t35 -7.5q21 0 33 14t14 34h30z" />
    <glyph glyph-name="odieresis" unicode="&#xf6;" horiz-adv-x="537" 
d="M501 218q0 -53 -16.5 -95.5t-47.5 -73t-74 -47t-95 -16.5q-51 0 -94 17.5t-73.5 48.5t-47.5 73.5t-17 92.5q0 49 17.5 91.5t48.5 74t73.5 49t92.5 17.5t93 -17.5t74 -48t48.5 -73t17.5 -93.5zM406 218q0 37 -7 73.5t-23 66t-42.5 48t-65.5 18.5t-65.5 -18.5t-42 -48
t-22.5 -66t-7 -73.5q0 -32 5 -68t19.5 -67t41.5 -51t71 -20t71 20t42 51t20 67t5 68zM368 546q-20 0 -34.5 15t-14.5 35q0 19 15 34t34 15q20 0 35 -14.5t15 -34.5t-15 -35t-35 -15zM169 546q-20 0 -34.5 15t-14.5 35q0 19 15 34t34 15q20 0 35 -14.5t15 -34.5t-15 -35
t-35 -15z" />
    <glyph glyph-name="divide" unicode="&#xf7;" 
d="M312 379q0 -22 -14.5 -37.5t-37.5 -15.5t-38 15.5t-15 37.5t15 37t38 15t37.5 -15t14.5 -37zM44 248h431v-65h-431v65zM312 52q0 -22 -14.5 -37t-37.5 -15t-38 15t-15 37t15 37.5t38 15.5t37.5 -15.5t14.5 -37.5z" />
    <glyph glyph-name="oslash" unicode="&#xf8;" horiz-adv-x="537" 
d="M511 429l-63 -60q25 -29 39 -67.5t14 -83.5q0 -53 -16.5 -95.5t-47.5 -73t-74 -47t-95 -16.5q-48 0 -88.5 15.5t-69.5 42.5l-61 -59l-23 23l64 57q-54 63 -54 153q0 49 17.5 91.5t48.5 74t73.5 49t92.5 17.5q47 0 87 -15t72 -44l60 61zM143 112q63 58 124 118t115 115
q-15 35 -42.5 57t-71.5 22q-39 0 -65.5 -18.5t-42 -48t-22.5 -66t-7 -73.5q0 -25 2 -52.5t10 -53.5zM394 317q-57 -54 -117 -112.5t-122 -117.5q14 -32 41 -53.5t72 -21.5q44 0 71 20t42 51t20 67t5 68q0 51 -12 99z" />
    <glyph glyph-name="ugrave" unicode="&#xf9;" horiz-adv-x="537" 
d="M89 310q0 33 -2.5 52t-9 28t-19 11.5t-31.5 2.5q-6 0 -14 1t-8 9q0 6 1.5 13t9.5 7t21 -1.5t38 -1.5q26 0 51 1.5t36 1.5q5 0 6.5 -1.5t1.5 -12.5v-270q0 -57 21 -87.5t77 -30.5q13 0 30.5 4t32.5 11t25.5 16.5t10.5 21.5v259q0 20 -2.5 32t-9 18t-19 8t-31.5 2
q-14 0 -23 1t-9 9q0 11 1 15.5t6 4.5t11 -0.5t15 -1t23.5 -1t37.5 -0.5q19 0 38 1.5t38 1.5q14 0 14 -14q0 -2 -1.5 -15.5t-3 -35t-3 -48t-1.5 -53.5v-188q0 -12 3 -24.5t22 -12.5q11 0 24.5 2t18.5 2q3 0 4.5 -2.5t1.5 -16.5q0 -5 -4.5 -7t-28.5 -6q-32 -5 -53 -10
t-34 -8.5t-19.5 -5.5t-8.5 -2q-5 0 -8.5 4.5t-3.5 9.5q0 9 1 19.5t2 18.5q-38 -28 -79 -41.5t-70 -13.5q-37 0 -61.5 11.5t-39 33.5t-20.5 53t-6 70v156zM315 530l-155 97q-8 5 -18.5 15.5t-10.5 21.5q0 37 35 37q10 0 22.5 -8t18.5 -15l147 -148h-39z" />
    <glyph glyph-name="uacute" unicode="&#xfa;" horiz-adv-x="537" 
d="M89 310q0 33 -2.5 52t-9 28t-19 11.5t-31.5 2.5q-6 0 -14 1t-8 9q0 6 1.5 13t9.5 7t21 -1.5t38 -1.5q26 0 51 1.5t36 1.5q5 0 6.5 -1.5t1.5 -12.5v-270q0 -57 21 -87.5t77 -30.5q13 0 30.5 4t32.5 11t25.5 16.5t10.5 21.5v259q0 20 -2.5 32t-9 18t-19 8t-31.5 2
q-14 0 -23 1t-9 9q0 11 1 15.5t6 4.5t11 -0.5t15 -1t23.5 -1t37.5 -0.5q19 0 38 1.5t38 1.5q14 0 14 -14q0 -2 -1.5 -15.5t-3 -35t-3 -48t-1.5 -53.5v-188q0 -12 3 -24.5t22 -12.5q11 0 24.5 2t18.5 2q3 0 4.5 -2.5t1.5 -16.5q0 -5 -4.5 -7t-28.5 -6q-32 -5 -53 -10
t-34 -8.5t-19.5 -5.5t-8.5 -2q-5 0 -8.5 4.5t-3.5 9.5q0 9 1 19.5t2 18.5q-38 -28 -79 -41.5t-70 -13.5q-37 0 -61.5 11.5t-39 33.5t-20.5 53t-6 70v156zM183 530l147 148q6 7 18.5 15t22.5 8q35 0 35 -37q0 -11 -10.5 -21.5t-18.5 -15.5l-155 -97h-39z" />
    <glyph glyph-name="ucircumflex" unicode="&#xfb;" horiz-adv-x="537" 
d="M89 310q0 33 -2.5 52t-9 28t-19 11.5t-31.5 2.5q-6 0 -14 1t-8 9q0 6 1.5 13t9.5 7t21 -1.5t38 -1.5q26 0 51 1.5t36 1.5q5 0 6.5 -1.5t1.5 -12.5v-270q0 -57 21 -87.5t77 -30.5q13 0 30.5 4t32.5 11t25.5 16.5t10.5 21.5v259q0 20 -2.5 32t-9 18t-19 8t-31.5 2
q-14 0 -23 1t-9 9q0 11 1 15.5t6 4.5t11 -0.5t15 -1t23.5 -1t37.5 -0.5q19 0 38 1.5t38 1.5q14 0 14 -14q0 -2 -1.5 -15.5t-3 -35t-3 -48t-1.5 -53.5v-188q0 -12 3 -24.5t22 -12.5q11 0 24.5 2t18.5 2q3 0 4.5 -2.5t1.5 -16.5q0 -5 -4.5 -7t-28.5 -6q-32 -5 -53 -10
t-34 -8.5t-19.5 -5.5t-8.5 -2q-5 0 -8.5 4.5t-3.5 9.5q0 9 1 19.5t2 18.5q-38 -28 -79 -41.5t-70 -13.5q-37 0 -61.5 11.5t-39 33.5t-20.5 53t-6 70v156zM147 531h-33l124 166h62l125 -166h-35l-121 103z" />
    <glyph glyph-name="udieresis" unicode="&#xfc;" horiz-adv-x="537" 
d="M89 310q0 33 -2.5 52t-9 28t-19 11.5t-31.5 2.5q-6 0 -14 1t-8 9q0 6 1.5 13t9.5 7t21 -1.5t38 -1.5q26 0 51 1.5t36 1.5q5 0 6.5 -1.5t1.5 -12.5v-270q0 -57 21 -87.5t77 -30.5q13 0 30.5 4t32.5 11t25.5 16.5t10.5 21.5v259q0 20 -2.5 32t-9 18t-19 8t-31.5 2
q-14 0 -23 1t-9 9q0 11 1 15.5t6 4.5t11 -0.5t15 -1t23.5 -1t37.5 -0.5q19 0 38 1.5t38 1.5q14 0 14 -14q0 -2 -1.5 -15.5t-3 -35t-3 -48t-1.5 -53.5v-188q0 -12 3 -24.5t22 -12.5q11 0 24.5 2t18.5 2q3 0 4.5 -2.5t1.5 -16.5q0 -5 -4.5 -7t-28.5 -6q-32 -5 -53 -10
t-34 -8.5t-19.5 -5.5t-8.5 -2q-5 0 -8.5 4.5t-3.5 9.5q0 9 1 19.5t2 18.5q-38 -28 -79 -41.5t-70 -13.5q-37 0 -61.5 11.5t-39 33.5t-20.5 53t-6 70v156zM368 546q-20 0 -34.5 15t-14.5 35q0 19 15 34t34 15q20 0 35 -14.5t15 -34.5t-15 -35t-35 -15zM169 546
q-20 0 -34.5 15t-14.5 35q0 19 15 34t34 15q20 0 35 -14.5t15 -34.5t-15 -35t-35 -15z" />
    <glyph glyph-name="yacute" unicode="&#xfd;" horiz-adv-x="481" 
d="M253 71q17 36 39.5 83t42.5 92t33.5 80t13.5 47t-8 19t-19.5 10.5t-25 4t-24.5 0.5q-7 0 -8.5 3.5t-1.5 9.5q0 13 9 13q24 0 48.5 -1t48.5 -1q23 0 46.5 1t46.5 1q5 0 6 -5t1 -8q0 -7 -3 -9.5t-14 -3.5q-26 -2 -39 -10t-24 -34q-9 -21 -25.5 -57t-36.5 -79t-41.5 -89
t-40 -86.5t-33 -72t-19.5 -45.5q-29 -72 -50.5 -113.5t-38 -62t-29.5 -25.5t-25 -5q-24 0 -40 18t-16 41t18 38.5t40 15.5q19 0 30 -8.5t20 -8.5q7 0 18 15.5t21.5 38t18 47t7.5 42.5q0 9 -4 24t-9.5 31t-11.5 31t-10 26q-24 61 -40 108t-27.5 84t-19.5 64.5t-16 48.5
q-3 9 -13 13.5t-21.5 6.5t-22 2.5t-15.5 0.5t-7 4.5t-2 9.5q0 12 11 12q4 0 17 -0.5t29.5 -0.5t33.5 -0.5t31 -0.5q26 0 51 1t48 1q8 0 10 -4t2 -9q0 -4 -2.5 -8.5t-7.5 -4.5q-2 0 -10 -0.5t-16.5 -2.5t-15.5 -6.5t-7 -12.5q0 -36 25 -112t74 -202zM165 530l147 148
q6 7 18.5 15t22.5 8q35 0 35 -37q0 -11 -10.5 -21.5t-18.5 -15.5l-155 -97h-39z" />
    <glyph glyph-name="thorn" unicode="&#xfe;" horiz-adv-x="537" 
d="M88 582q0 33 -1.5 52.5t-7 30.5t-17 15t-32.5 6q-9 1 -9 12q0 12 8 14q30 5 54.5 12.5t42 14t28 11.5t14.5 5q6 0 6 -11q0 -2 -1 -6t-1.5 -18.5t-1.5 -42.5t-1 -77v-212q33 23 65 41.5t77 18.5q48 0 83.5 -20t59.5 -53t35.5 -74t11.5 -83q0 -53 -13 -95.5t-40.5 -73
t-69.5 -47t-99 -16.5q-24 0 -39 1.5t-26.5 3.5t-21.5 5.5t-23 6.5v-182q0 -18 1.5 -29t9 -17.5t24 -8.5t46.5 -2q5 0 5 -11q0 -8 -1.5 -11.5t-8.5 -3.5q-6 0 -34.5 1.5t-72.5 1.5q-29 0 -57.5 -1.5t-53.5 -1.5q-10 0 -10 12q0 9 2 11.5t7 2.5q23 0 35.5 2t18.5 8t7 16.5
t1 28.5v763zM169 89q0 -13 6 -26.5t20 -25t36.5 -18.5t54.5 -7q35 0 58.5 16.5t37 42t19 56t5.5 59.5q0 33 -5.5 71.5t-20.5 72.5t-41.5 56.5t-68.5 22.5q-17 0 -35 -6.5t-32.5 -17.5t-24 -25.5t-9.5 -29.5v-241z" />
    <glyph glyph-name="ydieresis" unicode="&#xff;" horiz-adv-x="481" 
d="M253 71q17 36 39.5 83t42.5 92t33.5 80t13.5 47t-8 19t-19.5 10.5t-25 4t-24.5 0.5q-7 0 -8.5 3.5t-1.5 9.5q0 13 9 13q24 0 48.5 -1t48.5 -1q23 0 46.5 1t46.5 1q5 0 6 -5t1 -8q0 -7 -3 -9.5t-14 -3.5q-26 -2 -39 -10t-24 -34q-9 -21 -25.5 -57t-36.5 -79t-41.5 -89
t-40 -86.5t-33 -72t-19.5 -45.5q-29 -72 -50.5 -113.5t-38 -62t-29.5 -25.5t-25 -5q-24 0 -40 18t-16 41t18 38.5t40 15.5q19 0 30 -8.5t20 -8.5q7 0 18 15.5t21.5 38t18 47t7.5 42.5q0 9 -4 24t-9.5 31t-11.5 31t-10 26q-24 61 -40 108t-27.5 84t-19.5 64.5t-16 48.5
q-3 9 -13 13.5t-21.5 6.5t-22 2.5t-15.5 0.5t-7 4.5t-2 9.5q0 12 11 12q4 0 17 -0.5t29.5 -0.5t33.5 -0.5t31 -0.5q26 0 51 1t48 1q8 0 10 -4t2 -9q0 -4 -2.5 -8.5t-7.5 -4.5q-2 0 -10 -0.5t-16.5 -2.5t-15.5 -6.5t-7 -12.5q0 -36 25 -112t74 -202zM350 546q-20 0 -34.5 15
t-14.5 35q0 19 15 34t34 15q20 0 35 -14.5t15 -34.5t-15 -35t-35 -15zM151 546q-20 0 -34.5 15t-14.5 35q0 19 15 34t34 15q20 0 35 -14.5t15 -34.5t-15 -35t-35 -15z" />
    <glyph glyph-name="Amacron" unicode="&#x100;" horiz-adv-x="667" 
d="M-5 -2q-7 0 -7 17q0 6 8.5 9.5t28.5 3.5q14 0 27.5 11t23.5 40q46 134 104 293t131 342q2 7 6 8t13 1q7 0 10 -1.5t7 -10.5q2 -4 16 -41.5t35 -95t47.5 -127.5t53 -139t50.5 -130.5t42 -101.5q12 -28 29.5 -38t46.5 -10q7 0 18.5 -2.5t11.5 -8.5q0 -5 -2 -12t-9 -7
q-4 0 -9 0.5t-19 0.5t-40 0.5t-71 0.5q-51 0 -79.5 -0.5t-43 -0.5t-19 -0.5t-7.5 -0.5t-4 5t-1 13t13.5 10t28.5 2q30 0 41.5 4.5t11.5 17.5q0 9 -9.5 36.5t-22.5 60.5t-25.5 64t-18.5 47h-206q-22 0 -28.5 -2.5t-12.5 -18.5q-16 -41 -26.5 -71t-17 -50.5t-9 -33t-2.5 -18.5
q0 -5 1 -11t5.5 -11.5t15 -9.5t30.5 -4q22 0 35 -1t19.5 -2.5t8 -4t1.5 -6.5q0 -9 -2 -12.5t-10 -3.5q-3 0 -8.5 0.5t-20 0.5t-40.5 0.5t-71 0.5q-23 0 -37 -0.5t-22.5 -0.5t-12.5 -0.5t-7 -0.5zM189 302q0 -8 7 -9.5t31 -1.5h172l-106 293h-2q-2 0 -10 -20t-19.5 -50
t-24 -65.5t-23.5 -67t-18 -54t-7 -25.5zM189 851v52h276v-52h-276z" />
    <glyph glyph-name="amacron" unicode="&#x101;" horiz-adv-x="444" 
d="M350 54q0 -12 4.5 -16t12.5 -4q7 0 14 3.5t12 8t9.5 8t7.5 3.5q4 0 8.5 -4t4.5 -7q0 -5 -10.5 -14.5t-26 -20t-33 -18t-30.5 -7.5q-27 0 -37 16t-18 42q-22 -17 -39 -28.5t-32 -18t-28.5 -9t-29.5 -2.5q-29 0 -48 9.5t-29.5 23t-14.5 29t-4 27.5q0 19 7.5 37t31.5 37.5
t68.5 42t118.5 49.5v91q0 19 -10 34t-23.5 25t-27.5 15t-23 5t-21 -6t-23 -13.5t-19 -15t-8 -11.5q0 -11 6.5 -22t6.5 -28q0 -4 -2 -10.5t-7.5 -12.5t-15 -10.5t-24.5 -4.5q-13 0 -21 4t-12.5 10t-6.5 12.5t-2 10.5q0 10 2.5 18.5t10.5 18t24.5 22t44.5 31.5
q28 18 45.5 28.5t28.5 15t18.5 5.5t15.5 1q12 0 33 -5t41 -18t35 -35.5t15 -56.5v-285zM269 202q0 10 -7 10q-2 0 -15 -5.5t-29 -13t-32 -16t-23 -14.5q-21 -16 -27 -30.5t-6 -42.5q0 -23 10.5 -42.5t36.5 -19.5q14 0 30.5 5.5t30 14t22.5 17.5t9 16v121zM95 571v52h276v-52
h-276z" />
    <glyph glyph-name="Abreve" unicode="&#x102;" horiz-adv-x="667" 
d="M-5 -2q-7 0 -7 17q0 6 8.5 9.5t28.5 3.5q14 0 27.5 11t23.5 40q46 134 104 293t131 342q2 7 6 8t13 1q7 0 10 -1.5t7 -10.5q2 -4 16 -41.5t35 -95t47.5 -127.5t53 -139t50.5 -130.5t42 -101.5q12 -28 29.5 -38t46.5 -10q7 0 18.5 -2.5t11.5 -8.5q0 -5 -2 -12t-9 -7
q-4 0 -9 0.5t-19 0.5t-40 0.5t-71 0.5q-51 0 -79.5 -0.5t-43 -0.5t-19 -0.5t-7.5 -0.5t-4 5t-1 13t13.5 10t28.5 2q30 0 41.5 4.5t11.5 17.5q0 9 -9.5 36.5t-22.5 60.5t-25.5 64t-18.5 47h-206q-22 0 -28.5 -2.5t-12.5 -18.5q-16 -41 -26.5 -71t-17 -50.5t-9 -33t-2.5 -18.5
q0 -5 1 -11t5.5 -11.5t15 -9.5t30.5 -4q22 0 35 -1t19.5 -2.5t8 -4t1.5 -6.5q0 -9 -2 -12.5t-10 -3.5q-3 0 -8.5 0.5t-20 0.5t-40.5 0.5t-71 0.5q-23 0 -37 -0.5t-22.5 -0.5t-12.5 -0.5t-7 -0.5zM189 302q0 -8 7 -9.5t31 -1.5h172l-106 293h-2q-2 0 -10 -20t-19.5 -50
t-24 -65.5t-23.5 -67t-18 -54t-7 -25.5zM468 970q-2 -33 -11.5 -61.5t-26.5 -49.5t-43 -33.5t-62 -12.5q-34 0 -60.5 12.5t-44.5 33.5t-27 49.5t-7 61.5h30q10 -49 36.5 -70.5t77.5 -21.5q47 0 72 25t36 67h30z" />
    <glyph glyph-name="abreve" unicode="&#x103;" horiz-adv-x="444" 
d="M350 54q0 -12 4.5 -16t12.5 -4q7 0 14 3.5t12 8t9.5 8t7.5 3.5q4 0 8.5 -4t4.5 -7q0 -5 -10.5 -14.5t-26 -20t-33 -18t-30.5 -7.5q-27 0 -37 16t-18 42q-22 -17 -39 -28.5t-32 -18t-28.5 -9t-29.5 -2.5q-29 0 -48 9.5t-29.5 23t-14.5 29t-4 27.5q0 19 7.5 37t31.5 37.5
t68.5 42t118.5 49.5v91q0 19 -10 34t-23.5 25t-27.5 15t-23 5t-21 -6t-23 -13.5t-19 -15t-8 -11.5q0 -11 6.5 -22t6.5 -28q0 -4 -2 -10.5t-7.5 -12.5t-15 -10.5t-24.5 -4.5q-13 0 -21 4t-12.5 10t-6.5 12.5t-2 10.5q0 10 2.5 18.5t10.5 18t24.5 22t44.5 31.5
q28 18 45.5 28.5t28.5 15t18.5 5.5t15.5 1q12 0 33 -5t41 -18t35 -35.5t15 -56.5v-285zM269 202q0 10 -7 10q-2 0 -15 -5.5t-29 -13t-32 -16t-23 -14.5q-21 -16 -27 -30.5t-6 -42.5q0 -23 10.5 -42.5t36.5 -19.5q14 0 30.5 5.5t30 14t22.5 17.5t9 16v121zM374 690
q-2 -33 -11.5 -61.5t-26.5 -49.5t-43 -33.5t-62 -12.5q-34 0 -60.5 12.5t-44.5 33.5t-27 49.5t-7 61.5h30q10 -49 36.5 -70.5t77.5 -21.5q47 0 72 25t36 67h30z" />
    <glyph glyph-name="Aogonek" unicode="&#x104;" horiz-adv-x="667" 
d="M628 -149q-20 -11 -48 -18.5t-60 -7.5q-45 0 -66.5 21t-21.5 44q0 25 12 44t29 32.5t35.5 22t31.5 11.5q-48 0 -75 -0.5t-41 -0.5t-18.5 -0.5t-7.5 -0.5t-4 5t-1 13t13.5 10t28.5 2q30 0 41.5 4.5t11.5 17.5q0 9 -9.5 36.5t-22.5 60.5t-25.5 64t-18.5 47h-206
q-22 0 -28.5 -2.5t-12.5 -18.5q-16 -41 -26.5 -71t-17 -50.5t-9 -33t-2.5 -18.5q0 -5 1 -11t5.5 -11.5t15 -9.5t30.5 -4q22 0 35 -1t19.5 -2.5t8 -4t1.5 -6.5q0 -9 -2 -12.5t-10 -3.5q-3 0 -8.5 0.5t-20 0.5t-40.5 0.5t-71 0.5q-23 0 -37 -0.5t-22.5 -0.5t-12.5 -0.5
t-7 -0.5q-7 0 -7 17q0 6 8.5 9.5t28.5 3.5q14 0 27.5 11t23.5 40q46 134 104 293t131 342q2 7 6 8t13 1q7 0 10 -1.5t7 -10.5q2 -4 16 -41.5t35 -95t47.5 -127.5t53 -139t50.5 -130.5t42 -101.5q12 -28 29.5 -38t46.5 -10q7 0 18.5 -2.5t11.5 -8.5q0 -5 -2 -12t-9 -7
q-3 0 -8 0.5t-16 0.5t-30 0.5t-52 0.5q-37 -17 -56 -42.5t-19 -51.5t13.5 -38.5t27.5 -12.5q18 0 38 7.5t44 18.5v-30zM399 291l-106 293h-2q-2 0 -10 -20t-19.5 -50t-24 -65.5t-23.5 -67t-18 -54t-7 -25.5q0 -8 7 -9.5t31 -1.5h172z" />
    <glyph glyph-name="aogonek" unicode="&#x105;" horiz-adv-x="444" 
d="M409 -149q-20 -11 -48 -18.5t-60 -7.5q-45 0 -66.5 21t-21.5 44q0 20 8 36.5t20.5 29t27 21.5t28.5 15q-11 7 -17.5 20t-11.5 32q-22 -17 -39 -28.5t-32 -18t-28.5 -9t-29.5 -2.5q-29 0 -48 9.5t-29.5 23t-14.5 29t-4 27.5q0 19 7.5 37t31.5 37.5t68.5 42t118.5 49.5v91
q0 19 -10 34t-23.5 25t-27.5 15t-23 5t-21 -6t-23 -13.5t-19 -15t-8 -11.5q0 -11 6.5 -22t6.5 -28q0 -4 -2 -10.5t-7.5 -12.5t-15 -10.5t-24.5 -4.5q-13 0 -21 4t-12.5 10t-6.5 12.5t-2 10.5q0 10 2.5 18.5t10.5 18t24.5 22t44.5 31.5q28 18 45.5 28.5t28.5 15t18.5 5.5
t15.5 1q12 0 33 -5t41 -18t35 -35.5t15 -56.5v-285q0 -12 4.5 -16t12.5 -4q7 0 14 3.5t12 8t9.5 8t7.5 3.5q4 0 8.5 -4t4.5 -7q0 -4 -8 -11.5t-20 -16.5t-27 -17t-28 -12q-26 -17 -40 -39t-14 -44q0 -26 13.5 -38.5t27.5 -12.5q18 0 38 7.5t44 18.5v-30zM269 202q0 10 -7 10
q-2 0 -15 -5.5t-29 -13t-32 -16t-23 -14.5q-21 -16 -27 -30.5t-6 -42.5q0 -23 10.5 -42.5t36.5 -19.5q14 0 30.5 5.5t30 14t22.5 17.5t9 16v121z" />
    <glyph glyph-name="Cacute" unicode="&#x106;" horiz-adv-x="759" 
d="M46 334q0 90 31 162t82.5 122.5t118 77t138.5 26.5q64 0 103.5 -6t63.5 -13t36.5 -13t22.5 -6q14 0 21 8.5t18 8.5q2 0 4.5 -2t2.5 -10q0 -23 3 -49.5t6.5 -50t6.5 -40.5t3 -20q0 -7 -7 -10t-12 -3q-2 0 -5.5 1t-5.5 7q-16 41 -36.5 73t-48.5 54t-65 33.5t-85 11.5
q-47 0 -96 -22t-89 -67t-66 -112t-26 -157q0 -83 27 -144t69.5 -101.5t95 -60.5t103.5 -20q28 0 60 8.5t63 28t59.5 51t49.5 78.5q3 8 16 8q5 0 8 -2t3 -10q0 -5 -2 -23t-5 -39.5t-5 -41.5t-2 -28q0 -14 -14 -18q-38 -12 -103.5 -25t-171.5 -13q-67 0 -120.5 16.5t-95 44
t-70.5 63.5t-48 74.5t-27.5 77t-8.5 72.5zM350 810l147 148q6 7 18.5 15t22.5 8q35 0 35 -37q0 -11 -10.5 -21.5t-18.5 -15.5l-155 -97h-39z" />
    <glyph glyph-name="cacute" unicode="&#x107;" horiz-adv-x="444" 
d="M293 42q28 0 57 14.5t44 27.5q6 5 9.5 10.5t7.5 5.5q2 0 8.5 -4.5t6.5 -9.5q0 -7 -8 -15q-75 -85 -175 -85q-44 0 -81.5 15t-65.5 44t-44 71t-16 96q0 55 17.5 99.5t48 75t72 47t89.5 16.5q51 0 83 -12t50 -27.5t24 -31.5t6 -24q0 -5 -3 -12t-9.5 -14t-16.5 -12t-24 -5
q-12 0 -19.5 2.5t-12 9.5t-8 19.5t-7.5 33.5q-1 6 -3.5 14t-9 15.5t-18.5 12.5t-31 5q-24 0 -49 -10t-45.5 -34.5t-33.5 -65.5t-13 -102q0 -17 5 -45.5t22.5 -56.5t51.5 -48t91 -20zM189 530l147 148q6 7 18.5 15t22.5 8q35 0 35 -37q0 -11 -10.5 -21.5t-18.5 -15.5
l-155 -97h-39z" />
    <glyph glyph-name="Ccircumflex" unicode="&#x108;" horiz-adv-x="759" 
d="M46 334q0 90 31 162t82.5 122.5t118 77t138.5 26.5q64 0 103.5 -6t63.5 -13t36.5 -13t22.5 -6q14 0 21 8.5t18 8.5q2 0 4.5 -2t2.5 -10q0 -23 3 -49.5t6.5 -50t6.5 -40.5t3 -20q0 -7 -7 -10t-12 -3q-2 0 -5.5 1t-5.5 7q-16 41 -36.5 73t-48.5 54t-65 33.5t-85 11.5
q-47 0 -96 -22t-89 -67t-66 -112t-26 -157q0 -83 27 -144t69.5 -101.5t95 -60.5t103.5 -20q28 0 60 8.5t63 28t59.5 51t49.5 78.5q3 8 16 8q5 0 8 -2t3 -10q0 -5 -2 -23t-5 -39.5t-5 -41.5t-2 -28q0 -14 -14 -18q-38 -12 -103.5 -25t-171.5 -13q-67 0 -120.5 16.5t-95 44
t-70.5 63.5t-48 74.5t-27.5 77t-8.5 72.5zM301 811h-33l124 166h62l125 -166h-35l-121 103z" />
    <glyph glyph-name="ccircumflex" unicode="&#x109;" horiz-adv-x="444" 
d="M293 42q28 0 57 14.5t44 27.5q6 5 9.5 10.5t7.5 5.5q2 0 8.5 -4.5t6.5 -9.5q0 -7 -8 -15q-75 -85 -175 -85q-44 0 -81.5 15t-65.5 44t-44 71t-16 96q0 55 17.5 99.5t48 75t72 47t89.5 16.5q51 0 83 -12t50 -27.5t24 -31.5t6 -24q0 -5 -3 -12t-9.5 -14t-16.5 -12t-24 -5
q-12 0 -19.5 2.5t-12 9.5t-8 19.5t-7.5 33.5q-1 6 -3.5 14t-9 15.5t-18.5 12.5t-31 5q-24 0 -49 -10t-45.5 -34.5t-33.5 -65.5t-13 -102q0 -17 5 -45.5t22.5 -56.5t51.5 -48t91 -20zM130 531h-33l124 166h62l125 -166h-35l-121 103z" />
    <glyph glyph-name="Cdotaccent" unicode="&#x10a;" horiz-adv-x="759" 
d="M46 334q0 90 31 162t82.5 122.5t118 77t138.5 26.5q64 0 103.5 -6t63.5 -13t36.5 -13t22.5 -6q14 0 21 8.5t18 8.5q2 0 4.5 -2t2.5 -10q0 -23 3 -49.5t6.5 -50t6.5 -40.5t3 -20q0 -7 -7 -10t-12 -3q-2 0 -5.5 1t-5.5 7q-16 41 -36.5 73t-48.5 54t-65 33.5t-85 11.5
q-47 0 -96 -22t-89 -67t-66 -112t-26 -157q0 -83 27 -144t69.5 -101.5t95 -60.5t103.5 -20q28 0 60 8.5t63 28t59.5 51t49.5 78.5q3 8 16 8q5 0 8 -2t3 -10q0 -5 -2 -23t-5 -39.5t-5 -41.5t-2 -28q0 -14 -14 -18q-38 -12 -103.5 -25t-171.5 -13q-67 0 -120.5 16.5t-95 44
t-70.5 63.5t-48 74.5t-27.5 77t-8.5 72.5zM422 826q-20 0 -34.5 15t-14.5 35q0 19 15 34t34 15q20 0 35 -14.5t15 -34.5t-15 -35t-35 -15z" />
    <glyph glyph-name="cdotaccent" unicode="&#x10b;" horiz-adv-x="444" 
d="M293 42q28 0 57 14.5t44 27.5q6 5 9.5 10.5t7.5 5.5q2 0 8.5 -4.5t6.5 -9.5q0 -7 -8 -15q-75 -85 -175 -85q-44 0 -81.5 15t-65.5 44t-44 71t-16 96q0 55 17.5 99.5t48 75t72 47t89.5 16.5q51 0 83 -12t50 -27.5t24 -31.5t6 -24q0 -5 -3 -12t-9.5 -14t-16.5 -12t-24 -5
q-12 0 -19.5 2.5t-12 9.5t-8 19.5t-7.5 33.5q-1 6 -3.5 14t-9 15.5t-18.5 12.5t-31 5q-24 0 -49 -10t-45.5 -34.5t-33.5 -65.5t-13 -102q0 -17 5 -45.5t22.5 -56.5t51.5 -48t91 -20zM251 546q-20 0 -34.5 15t-14.5 35q0 19 15 34t34 15q20 0 35 -14.5t15 -34.5t-15 -35
t-35 -15z" />
    <glyph glyph-name="Ccaron" unicode="&#x10c;" horiz-adv-x="759" 
d="M46 334q0 90 31 162t82.5 122.5t118 77t138.5 26.5q64 0 103.5 -6t63.5 -13t36.5 -13t22.5 -6q14 0 21 8.5t18 8.5q2 0 4.5 -2t2.5 -10q0 -23 3 -49.5t6.5 -50t6.5 -40.5t3 -20q0 -7 -7 -10t-12 -3q-2 0 -5.5 1t-5.5 7q-16 41 -36.5 73t-48.5 54t-65 33.5t-85 11.5
q-47 0 -96 -22t-89 -67t-66 -112t-26 -157q0 -83 27 -144t69.5 -101.5t95 -60.5t103.5 -20q28 0 60 8.5t63 28t59.5 51t49.5 78.5q3 8 16 8q5 0 8 -2t3 -10q0 -5 -2 -23t-5 -39.5t-5 -41.5t-2 -28q0 -14 -14 -18q-38 -12 -103.5 -25t-171.5 -13q-67 0 -120.5 16.5t-95 44
t-70.5 63.5t-48 74.5t-27.5 77t-8.5 72.5zM544 977h34l-124 -166h-62l-124 166h33l122 -103z" />
    <glyph glyph-name="ccaron" unicode="&#x10d;" horiz-adv-x="444" 
d="M293 42q28 0 57 14.5t44 27.5q6 5 9.5 10.5t7.5 5.5q2 0 8.5 -4.5t6.5 -9.5q0 -7 -8 -15q-75 -85 -175 -85q-44 0 -81.5 15t-65.5 44t-44 71t-16 96q0 55 17.5 99.5t48 75t72 47t89.5 16.5q51 0 83 -12t50 -27.5t24 -31.5t6 -24q0 -5 -3 -12t-9.5 -14t-16.5 -12t-24 -5
q-12 0 -19.5 2.5t-12 9.5t-8 19.5t-7.5 33.5q-1 6 -3.5 14t-9 15.5t-18.5 12.5t-31 5q-24 0 -49 -10t-45.5 -34.5t-33.5 -65.5t-13 -102q0 -17 5 -45.5t22.5 -56.5t51.5 -48t91 -20zM373 697h34l-124 -166h-62l-124 166h33l122 -103z" />
    <glyph glyph-name="Dcaron" unicode="&#x10e;" horiz-adv-x="833" 
d="M35 11q0 8 3.5 12.5t24.5 4.5q35 0 52.5 12t18.5 32q1 19 1.5 40l1 42t0.5 40.5v35.5v245v45.5t-0.5 34t-1 30t-0.5 31.5q0 22 -4 35.5t-14 20.5t-27.5 9t-44.5 2q-8 0 -9.5 5t-1.5 12q0 5 2 9t7 4q3 0 19 -0.5t39 -1.5t49.5 -1.5t50.5 -0.5q39 0 71.5 2t55.5 2
q57 0 101 -2.5t80 -9.5t67.5 -20.5t63.5 -34.5q35 -24 60.5 -56.5t41.5 -69.5t23.5 -75.5t7.5 -72.5q0 -83 -28 -151.5t-80 -117.5q-21 -20 -50.5 -39t-65.5 -33.5t-77.5 -23.5t-87.5 -9q-10 0 -23 0.5t-33.5 0.5t-51 0.5t-75.5 0.5q-55 0 -85.5 -0.5t-46 -0.5t-19.5 -0.5
t-7 -0.5q-6 0 -7 3t-1 10zM236 75q0 -26 23 -36.5t71 -10.5q67 0 127 22.5t104.5 66t69.5 106t23 142.5q-2 60 -15 105.5t-32 79t-41.5 55.5t-42.5 34q-42 27 -91 35.5t-97 8.5q-37 0 -57 -2t-29.5 -9.5t-11 -22.5t-1.5 -41v-533zM457 977h34l-124 -166h-62l-124 166h33
l122 -103z" />
    <glyph glyph-name="dcaron" unicode="&#x10f;" horiz-adv-x="537" 
d="M368 582q0 33 -1.5 52.5t-7 30.5t-17 15t-32.5 6q-9 1 -9 12q0 12 8 14q30 5 54.5 12.5t42 14t28 11.5t14.5 5q6 0 6 -11q0 -2 -1 -6t-1.5 -18.5t-1.5 -42.5t-1 -77v-515q0 -10 1 -18.5t6 -14.5t15.5 -9.5t30.5 -3.5q2 0 5 -3t3 -8t-1.5 -9.5t-5.5 -5.5l-58.5 -13
t-35.5 -8t-19 -4.5t-9 -1.5q-11 0 -11 10q0 11 1.5 20.5t1.5 22.5q-29 -25 -64 -39t-73 -14q-47 0 -83 17t-61 46t-37.5 68t-12.5 83q0 62 20.5 109t52.5 78.5t71.5 47.5t77.5 16q15 0 27 -1t23 -3t24 -6.5t30 -11.5v153zM368 342q0 9 -3 23t-13.5 27.5t-30.5 23t-55 9.5
q-43 0 -69.5 -20t-41.5 -49t-20.5 -61t-5.5 -55q0 -81 18 -125.5t42 -65t47 -24.5t34 -4q15 0 32.5 4.5t32 14.5t24 26.5t9.5 41.5v234zM501 524l20 135q7 45 43 45q11 0 22 -5.5t11 -19.5q0 -12 -16 -47t-56 -108h-24z" />
    <glyph glyph-name="Dcroat" unicode="&#x110;" horiz-adv-x="833" 
d="M137 358h-122v30h122v87v45.5t-0.5 34t-1 30t-0.5 31.5q0 22 -4 35.5t-14 20.5t-27.5 9t-44.5 2q-8 0 -9.5 5t-1.5 12q0 5 2 9t7 4q3 0 19 -0.5t39 -1.5t49.5 -1.5t50.5 -0.5q39 0 71.5 2t55.5 2q57 0 101 -2.5t80 -9.5t67.5 -20.5t63.5 -34.5q35 -24 60.5 -56.5
t41.5 -69.5t23.5 -75.5t7.5 -72.5q0 -83 -28 -151.5t-80 -117.5q-21 -20 -50.5 -39t-65.5 -33.5t-77.5 -23.5t-87.5 -9q-10 0 -23 0.5t-33.5 0.5t-51 0.5t-75.5 0.5q-55 0 -85.5 -0.5t-46 -0.5t-19.5 -0.5t-7 -0.5q-6 0 -7 3t-1 10q0 8 3.5 12.5t24.5 4.5q35 0 52.5 12
t18.5 32q1 19 1.5 40l1 42t0.5 40.5v35.5v128zM236 388h164v-30h-164v-283q0 -26 23 -36.5t71 -10.5q67 0 127 22.5t104.5 66t69.5 106t23 142.5q-2 60 -15 105.5t-32 79t-41.5 55.5t-42.5 34q-42 27 -91 35.5t-97 8.5q-37 0 -57 -2t-29.5 -9.5t-11 -22.5t-1.5 -41v-220z
" />
    <glyph glyph-name="dcroat" unicode="&#x111;" horiz-adv-x="537" 
d="M449 546v-461q0 -10 1 -18.5t6 -14.5t15.5 -9.5t30.5 -3.5q2 0 5 -3t3 -8t-1.5 -9.5t-5.5 -5.5l-58.5 -13t-35.5 -8t-19 -4.5t-9 -1.5q-11 0 -11 10q0 11 1.5 20.5t1.5 22.5q-29 -25 -64 -39t-73 -14q-47 0 -83 17t-61 46t-37.5 68t-12.5 83q0 62 20.5 109t52.5 78.5
t71.5 47.5t77.5 16q15 0 27 -1t23 -3t24 -6.5t30 -11.5v117h-102v32h102v4q0 33 -1.5 52.5t-7 30.5t-17 15t-32.5 6q-9 1 -9 12q0 12 8 14q30 5 54.5 12.5t42 14t28 11.5t14.5 5q6 0 6 -11q0 -2 -1 -6t-1.5 -18.5t-1.5 -42.5t-1 -77v-22h66v-32h-66zM368 342q0 9 -3 23
t-13.5 27.5t-30.5 23t-55 9.5q-43 0 -69.5 -20t-41.5 -49t-20.5 -61t-5.5 -55q0 -81 18 -125.5t42 -65t47 -24.5t34 -4q15 0 32.5 4.5t32 14.5t24 26.5t9.5 41.5v234z" />
    <glyph glyph-name="Emacron" unicode="&#x112;" horiz-adv-x="685" 
d="M27 11q0 8 2.5 12.5t18.5 4.5q30 0 47 3t25.5 9t11 14t2.5 18q1 19 1.5 40l1 42t0.5 40.5v35.5v245v45.5t-0.5 34t-1 30t-0.5 31.5q0 22 -4.5 35.5t-15 20.5t-29.5 9t-49 2q-8 0 -9.5 5t-1.5 12q0 5 2 9t7 4q3 0 19 -0.5t39 -1.5t49.5 -1.5t50.5 -0.5q44 0 91.5 0.5
t93 1.5t85 1.5t66.5 0.5q17 0 26.5 -1t11.5 -7q20 -69 32 -102.5t12 -38.5q0 -7 -15 -7q-6 0 -12 5.5t-17 18t-30.5 32t-52.5 47.5q-11 10 -28.5 16.5t-40.5 6.5q-10 0 -29 -0.5t-41.5 -1.5t-44 -2t-35.5 -2q-17 -1 -23 -18t-6 -59v-230h67q40 0 63.5 7t35.5 16.5t15 18.5
t4 13q4 28 7.5 43t5.5 22t4 8t5 1q19 0 19 -7v-150q0 -45 2.5 -72.5t2.5 -46.5q0 -5 -4 -6.5t-9 -1.5q-9 0 -11.5 3t-3.5 8q-6 40 -13 63t-21 34.5t-37 14t-59 2.5h-73v-258q0 -29 10.5 -40.5t38.5 -11.5h238q14 0 31 15.5t33.5 36t30.5 41t22 30.5q6 6 13 6q16 0 16 -7
q0 -1 -4 -12.5t-10 -28.5t-13.5 -36.5t-14.5 -36t-12.5 -27.5t-8.5 -11h-413q-55 0 -85.5 -0.5t-46 -0.5t-19.5 -0.5t-7 -0.5q-6 0 -7 3t-1 10zM175 851v52h276v-52h-276z" />
    <glyph glyph-name="emacron" unicode="&#x113;" horiz-adv-x="463" 
d="M124 270q-2 -14 -3 -28.5t-1 -28.5q0 -24 10.5 -53t31 -54t51 -41.5t71.5 -16.5q35 0 64 12.5t53 47.5q5 6 8 11.5t7 5.5q5 0 10.5 -5t5.5 -7q0 -1 -8.5 -21t-28 -43.5t-53 -43t-82.5 -19.5q-107 0 -162.5 61.5t-55.5 166.5q0 54 17 98t44.5 75.5t63.5 49t75 17.5
q62 0 98 -23t54 -52.5t22.5 -58t4.5 -39.5q0 -8 -3 -9.5t-9 -1.5h-285zM296 300q15 0 24.5 6.5t9.5 26.5q0 29 -9 47.5t-22.5 29t-28.5 14.5t-28 4q-27 0 -46.5 -10.5t-33 -28t-21 -41t-11.5 -48.5h166zM105 571v52h276v-52h-276z" />
    <glyph glyph-name="Ebreve" unicode="&#x114;" horiz-adv-x="685" 
d="M27 11q0 8 2.5 12.5t18.5 4.5q30 0 47 3t25.5 9t11 14t2.5 18q1 19 1.5 40l1 42t0.5 40.5v35.5v245v45.5t-0.5 34t-1 30t-0.5 31.5q0 22 -4.5 35.5t-15 20.5t-29.5 9t-49 2q-8 0 -9.5 5t-1.5 12q0 5 2 9t7 4q3 0 19 -0.5t39 -1.5t49.5 -1.5t50.5 -0.5q44 0 91.5 0.5
t93 1.5t85 1.5t66.5 0.5q17 0 26.5 -1t11.5 -7q20 -69 32 -102.5t12 -38.5q0 -7 -15 -7q-6 0 -12 5.5t-17 18t-30.5 32t-52.5 47.5q-11 10 -28.5 16.5t-40.5 6.5q-10 0 -29 -0.5t-41.5 -1.5t-44 -2t-35.5 -2q-17 -1 -23 -18t-6 -59v-230h67q40 0 63.5 7t35.5 16.5t15 18.5
t4 13q4 28 7.5 43t5.5 22t4 8t5 1q19 0 19 -7v-150q0 -45 2.5 -72.5t2.5 -46.5q0 -5 -4 -6.5t-9 -1.5q-9 0 -11.5 3t-3.5 8q-6 40 -13 63t-21 34.5t-37 14t-59 2.5h-73v-258q0 -29 10.5 -40.5t38.5 -11.5h238q14 0 31 15.5t33.5 36t30.5 41t22 30.5q6 6 13 6q16 0 16 -7
q0 -1 -4 -12.5t-10 -28.5t-13.5 -36.5t-14.5 -36t-12.5 -27.5t-8.5 -11h-413q-55 0 -85.5 -0.5t-46 -0.5t-19.5 -0.5t-7 -0.5q-6 0 -7 3t-1 10zM454 970q-2 -33 -11.5 -61.5t-26.5 -49.5t-43 -33.5t-62 -12.5q-34 0 -60.5 12.5t-44.5 33.5t-27 49.5t-7 61.5h30
q10 -49 36.5 -70.5t77.5 -21.5q47 0 72 25t36 67h30z" />
    <glyph glyph-name="ebreve" unicode="&#x115;" horiz-adv-x="463" 
d="M124 270q-2 -14 -3 -28.5t-1 -28.5q0 -24 10.5 -53t31 -54t51 -41.5t71.5 -16.5q35 0 64 12.5t53 47.5q5 6 8 11.5t7 5.5q5 0 10.5 -5t5.5 -7q0 -1 -8.5 -21t-28 -43.5t-53 -43t-82.5 -19.5q-107 0 -162.5 61.5t-55.5 166.5q0 54 17 98t44.5 75.5t63.5 49t75 17.5
q62 0 98 -23t54 -52.5t22.5 -58t4.5 -39.5q0 -8 -3 -9.5t-9 -1.5h-285zM296 300q15 0 24.5 6.5t9.5 26.5q0 29 -9 47.5t-22.5 29t-28.5 14.5t-28 4q-27 0 -46.5 -10.5t-33 -28t-21 -41t-11.5 -48.5h166zM384 690q-2 -33 -11.5 -61.5t-26.5 -49.5t-43 -33.5t-62 -12.5
q-34 0 -60.5 12.5t-44.5 33.5t-27 49.5t-7 61.5h30q10 -49 36.5 -70.5t77.5 -21.5q47 0 72 25t36 67h30z" />
    <glyph glyph-name="Edotaccent" unicode="&#x116;" horiz-adv-x="685" 
d="M27 11q0 8 2.5 12.5t18.5 4.5q30 0 47 3t25.5 9t11 14t2.5 18q1 19 1.5 40l1 42t0.5 40.5v35.5v245v45.5t-0.5 34t-1 30t-0.5 31.5q0 22 -4.5 35.5t-15 20.5t-29.5 9t-49 2q-8 0 -9.5 5t-1.5 12q0 5 2 9t7 4q3 0 19 -0.5t39 -1.5t49.5 -1.5t50.5 -0.5q44 0 91.5 0.5
t93 1.5t85 1.5t66.5 0.5q17 0 26.5 -1t11.5 -7q20 -69 32 -102.5t12 -38.5q0 -7 -15 -7q-6 0 -12 5.5t-17 18t-30.5 32t-52.5 47.5q-11 10 -28.5 16.5t-40.5 6.5q-10 0 -29 -0.5t-41.5 -1.5t-44 -2t-35.5 -2q-17 -1 -23 -18t-6 -59v-230h67q40 0 63.5 7t35.5 16.5t15 18.5
t4 13q4 28 7.5 43t5.5 22t4 8t5 1q19 0 19 -7v-150q0 -45 2.5 -72.5t2.5 -46.5q0 -5 -4 -6.5t-9 -1.5q-9 0 -11.5 3t-3.5 8q-6 40 -13 63t-21 34.5t-37 14t-59 2.5h-73v-258q0 -29 10.5 -40.5t38.5 -11.5h238q14 0 31 15.5t33.5 36t30.5 41t22 30.5q6 6 13 6q16 0 16 -7
q0 -1 -4 -12.5t-10 -28.5t-13.5 -36.5t-14.5 -36t-12.5 -27.5t-8.5 -11h-413q-55 0 -85.5 -0.5t-46 -0.5t-19.5 -0.5t-7 -0.5q-6 0 -7 3t-1 10zM312 826q-20 0 -34.5 15t-14.5 35q0 19 15 34t34 15q20 0 35 -14.5t15 -34.5t-15 -35t-35 -15z" />
    <glyph glyph-name="edotaccent" unicode="&#x117;" horiz-adv-x="463" 
d="M124 270q-2 -14 -3 -28.5t-1 -28.5q0 -24 10.5 -53t31 -54t51 -41.5t71.5 -16.5q35 0 64 12.5t53 47.5q5 6 8 11.5t7 5.5q5 0 10.5 -5t5.5 -7q0 -1 -8.5 -21t-28 -43.5t-53 -43t-82.5 -19.5q-107 0 -162.5 61.5t-55.5 166.5q0 54 17 98t44.5 75.5t63.5 49t75 17.5
q62 0 98 -23t54 -52.5t22.5 -58t4.5 -39.5q0 -8 -3 -9.5t-9 -1.5h-285zM296 300q15 0 24.5 6.5t9.5 26.5q0 29 -9 47.5t-22.5 29t-28.5 14.5t-28 4q-27 0 -46.5 -10.5t-33 -28t-21 -41t-11.5 -48.5h166zM242 546q-20 0 -34.5 15t-14.5 35q0 19 15 34t34 15q20 0 35 -14.5
t15 -34.5t-15 -35t-35 -15z" />
    <glyph glyph-name="Eogonek" unicode="&#x118;" horiz-adv-x="685" 
d="M580 -149q-20 -11 -48 -18.5t-60 -7.5q-45 0 -66.5 21t-21.5 44q0 25 12 44t29 32.5t35.5 22t31.5 11.5h-299q-55 0 -85.5 -0.5t-46 -0.5t-19.5 -0.5t-7 -0.5q-6 0 -7 3t-1 10q0 8 2.5 12.5t18.5 4.5q30 0 47 3t25.5 9t11 14t2.5 18q1 19 1.5 40l1 42t0.5 40.5v35.5v245
v45.5t-0.5 34t-1 30t-0.5 31.5q0 22 -4.5 35.5t-15 20.5t-29.5 9t-49 2q-8 0 -9.5 5t-1.5 12q0 5 2 9t7 4q3 0 19 -0.5t39 -1.5t49.5 -1.5t50.5 -0.5q44 0 91.5 0.5t93 1.5t85 1.5t66.5 0.5q17 0 26.5 -1t11.5 -7q20 -69 32 -102.5t12 -38.5q0 -7 -15 -7q-6 0 -12 5.5
t-17 18t-30.5 32t-52.5 47.5q-11 10 -28.5 16.5t-40.5 6.5q-10 0 -29 -0.5t-41.5 -1.5t-44 -2t-35.5 -2q-17 -1 -23 -18t-6 -59v-230h67q40 0 63.5 7t35.5 16.5t15 18.5t4 13q4 28 7.5 43t5.5 22t4 8t5 1q19 0 19 -7v-150q0 -45 2.5 -72.5t2.5 -46.5q0 -5 -4 -6.5t-9 -1.5
q-9 0 -11.5 3t-3.5 8q-6 40 -13 63t-21 34.5t-37 14t-59 2.5h-73v-258q0 -29 10.5 -40.5t38.5 -11.5h238q14 0 31 15.5t33.5 36t30.5 41t22 30.5q6 6 13 6q16 0 16 -7q0 -1 -4 -12.5t-10 -28.5t-13.5 -36.5t-14.5 -36t-12.5 -27.5t-8.5 -11h-74q-37 -17 -56 -42.5t-19 -51.5
t13.5 -38.5t27.5 -12.5q18 0 38 7.5t44 18.5v-30z" />
    <glyph glyph-name="eogonek" unicode="&#x119;" horiz-adv-x="463" 
d="M354 -149q-20 -11 -48 -18.5t-60 -7.5q-45 0 -66.5 21t-21.5 44q0 18 7 33t17.5 27t23.5 21.5t26 15.5q-94 8 -142 68t-48 159q0 54 17 98t44.5 75.5t63.5 49t75 17.5q62 0 98 -23t54 -52.5t22.5 -58t4.5 -39.5q0 -8 -3 -9.5t-9 -1.5h-285q-2 -14 -3 -28.5t-1 -28.5
q0 -24 10.5 -53t31 -54t51 -41.5t71.5 -16.5q35 0 64 12.5t53 47.5q5 6 8 11.5t7 5.5q5 0 10.5 -5t5.5 -7q0 -1 -7.5 -19t-24.5 -40t-46 -41.5t-71 -24.5q-26 -17 -39 -39t-13 -43q0 -26 13.5 -38.5t27.5 -12.5q18 0 38 7.5t44 18.5v-30zM296 300q15 0 24.5 6.5t9.5 26.5
q0 29 -9 47.5t-22.5 29t-28.5 14.5t-28 4q-27 0 -46.5 -10.5t-33 -28t-21 -41t-11.5 -48.5h166z" />
    <glyph glyph-name="Ecaron" unicode="&#x11a;" horiz-adv-x="685" 
d="M27 11q0 8 2.5 12.5t18.5 4.5q30 0 47 3t25.5 9t11 14t2.5 18q1 19 1.5 40l1 42t0.5 40.5v35.5v245v45.5t-0.5 34t-1 30t-0.5 31.5q0 22 -4.5 35.5t-15 20.5t-29.5 9t-49 2q-8 0 -9.5 5t-1.5 12q0 5 2 9t7 4q3 0 19 -0.5t39 -1.5t49.5 -1.5t50.5 -0.5q44 0 91.5 0.5
t93 1.5t85 1.5t66.5 0.5q17 0 26.5 -1t11.5 -7q20 -69 32 -102.5t12 -38.5q0 -7 -15 -7q-6 0 -12 5.5t-17 18t-30.5 32t-52.5 47.5q-11 10 -28.5 16.5t-40.5 6.5q-10 0 -29 -0.5t-41.5 -1.5t-44 -2t-35.5 -2q-17 -1 -23 -18t-6 -59v-230h67q40 0 63.5 7t35.5 16.5t15 18.5
t4 13q4 28 7.5 43t5.5 22t4 8t5 1q19 0 19 -7v-150q0 -45 2.5 -72.5t2.5 -46.5q0 -5 -4 -6.5t-9 -1.5q-9 0 -11.5 3t-3.5 8q-6 40 -13 63t-21 34.5t-37 14t-59 2.5h-73v-258q0 -29 10.5 -40.5t38.5 -11.5h238q14 0 31 15.5t33.5 36t30.5 41t22 30.5q6 6 13 6q16 0 16 -7
q0 -1 -4 -12.5t-10 -28.5t-13.5 -36.5t-14.5 -36t-12.5 -27.5t-8.5 -11h-413q-55 0 -85.5 -0.5t-46 -0.5t-19.5 -0.5t-7 -0.5q-6 0 -7 3t-1 10zM434 977h34l-124 -166h-62l-124 166h33l122 -103z" />
    <glyph glyph-name="ecaron" unicode="&#x11b;" horiz-adv-x="463" 
d="M124 270q-2 -14 -3 -28.5t-1 -28.5q0 -24 10.5 -53t31 -54t51 -41.5t71.5 -16.5q35 0 64 12.5t53 47.5q5 6 8 11.5t7 5.5q5 0 10.5 -5t5.5 -7q0 -1 -8.5 -21t-28 -43.5t-53 -43t-82.5 -19.5q-107 0 -162.5 61.5t-55.5 166.5q0 54 17 98t44.5 75.5t63.5 49t75 17.5
q62 0 98 -23t54 -52.5t22.5 -58t4.5 -39.5q0 -8 -3 -9.5t-9 -1.5h-285zM296 300q15 0 24.5 6.5t9.5 26.5q0 29 -9 47.5t-22.5 29t-28.5 14.5t-28 4q-27 0 -46.5 -10.5t-33 -28t-21 -41t-11.5 -48.5h166zM364 697h34l-124 -166h-62l-124 166h33l122 -103z" />
    <glyph glyph-name="Gcircumflex" unicode="&#x11c;" horiz-adv-x="833" 
d="M46 334q0 90 31 162t82.5 122.5t118 77t138.5 26.5q95 0 160 -14.5t116 -50.5q2 -2 7.5 -4.5t9.5 -2.5q5 0 15 9.5t16 9.5q5 0 6 -6.5t1 -37.5q0 -41 1 -64.5t1.5 -37.5t1.5 -20.5t1 -12.5q0 -5 -6.5 -7.5t-14.5 -2.5q-3 0 -11.5 20t-18.5 52q-10 30 -31 56t-53.5 45.5
t-76 31t-98.5 11.5q-47 0 -96 -22t-89 -67t-66 -112t-26 -157q0 -83 27 -144t69.5 -101.5t95 -60.5t103.5 -20q37 0 67.5 2.5t52.5 10.5t33.5 22t11.5 37v152q0 8 -3.5 14t-13 9.5t-27.5 5t-48 1.5q-23 0 -35.5 1t-18 3.5t-6.5 5.5t-1 7q0 7 2 10t16 3q3 0 11 -0.5
t27.5 -0.5t53.5 -0.5t90 -0.5q52 0 81.5 0.5t44 0.5t18.5 0.5t7 0.5q6 0 7 -3t1 -10q0 -8 -2.5 -12.5t-18.5 -4.5q-30 0 -47 -3t-25.5 -9t-11 -14.5t-2.5 -18.5v-137q0 -11 4.5 -17.5t9.5 -11t9.5 -8t4.5 -7.5q0 -6 -2.5 -9t-14.5 -7q-53 -19 -137.5 -28.5t-181.5 -9.5
q-67 0 -120.5 16.5t-95 44t-70.5 63.5t-48 74.5t-27.5 77t-8.5 72.5zM321 811h-33l124 166h62l125 -166h-35l-121 103z" />
    <glyph glyph-name="gcircumflex" unicode="&#x11d;" 
d="M320 42q51 0 79 -14.5t40.5 -34t14.5 -39.5t2 -31q0 -57 -28 -94.5t-71 -60t-93.5 -31.5t-96.5 -9q-24 0 -47.5 4t-41.5 14.5t-29 28.5t-11 47q0 23 8 43.5t20.5 38.5t28 34t30.5 31q-23 2 -41.5 19.5t-18.5 41.5q0 22 5.5 39t16 30.5t24.5 24.5t31 23q-44 23 -61 58.5
t-17 83.5q0 35 15 65t39.5 52t56.5 34.5t66 12.5q31 0 63.5 -10t57.5 -29q31 20 49.5 25t35.5 5q24 0 38.5 -6t23 -14.5t11 -18t2.5 -17.5q0 -11 -11 -23t-27 -12q-10 0 -19 9t-18 19.5t-16.5 19.5t-14.5 9q-13 0 -20 -4t-18 -9q7 -8 14 -20t12 -26t8.5 -27.5t3.5 -23.5
q0 -81 -47.5 -126.5t-130.5 -45.5q-5 0 -14 0.5t-19.5 1.5t-21 3.5t-17.5 5.5q-12 -7 -26.5 -22.5t-14.5 -41.5q0 -22 15 -27.5t32 -5.5h148zM241 154q31 0 48.5 17.5t26.5 42t11 50.5t2 42q0 6 -1.5 25.5t-9 40.5t-25 38t-48.5 17q-35 0 -54 -19t-28 -44.5t-10.5 -51.5
t-1.5 -39q0 -22 4 -43.5t14.5 -38t28 -27t43.5 -10.5zM160 -34q-2 0 -12.5 -8t-22 -21.5t-21 -31.5t-9.5 -39q0 -5 3 -20t16.5 -31t42.5 -28.5t82 -12.5q86 0 126.5 27t40.5 86q0 46 -26.5 62.5t-75.5 16.5h-144zM123 531h-33l124 166h62l125 -166h-35l-121 103z" />
    <glyph glyph-name="Gbreve" unicode="&#x11e;" horiz-adv-x="833" 
d="M46 334q0 90 31 162t82.5 122.5t118 77t138.5 26.5q95 0 160 -14.5t116 -50.5q2 -2 7.5 -4.5t9.5 -2.5q5 0 15 9.5t16 9.5q5 0 6 -6.5t1 -37.5q0 -41 1 -64.5t1.5 -37.5t1.5 -20.5t1 -12.5q0 -5 -6.5 -7.5t-14.5 -2.5q-3 0 -11.5 20t-18.5 52q-10 30 -31 56t-53.5 45.5
t-76 31t-98.5 11.5q-47 0 -96 -22t-89 -67t-66 -112t-26 -157q0 -83 27 -144t69.5 -101.5t95 -60.5t103.5 -20q37 0 67.5 2.5t52.5 10.5t33.5 22t11.5 37v152q0 8 -3.5 14t-13 9.5t-27.5 5t-48 1.5q-23 0 -35.5 1t-18 3.5t-6.5 5.5t-1 7q0 7 2 10t16 3q3 0 11 -0.5
t27.5 -0.5t53.5 -0.5t90 -0.5q52 0 81.5 0.5t44 0.5t18.5 0.5t7 0.5q6 0 7 -3t1 -10q0 -8 -2.5 -12.5t-18.5 -4.5q-30 0 -47 -3t-25.5 -9t-11 -14.5t-2.5 -18.5v-137q0 -11 4.5 -17.5t9.5 -11t9.5 -8t4.5 -7.5q0 -6 -2.5 -9t-14.5 -7q-53 -19 -137.5 -28.5t-181.5 -9.5
q-67 0 -120.5 16.5t-95 44t-70.5 63.5t-48 74.5t-27.5 77t-8.5 72.5zM584 970q-2 -33 -11.5 -61.5t-26.5 -49.5t-43 -33.5t-62 -12.5q-34 0 -60.5 12.5t-44.5 33.5t-27 49.5t-7 61.5h30q10 -49 36.5 -70.5t77.5 -21.5q47 0 72 25t36 67h30z" />
    <glyph glyph-name="gbreve" unicode="&#x11f;" 
d="M320 42q51 0 79 -14.5t40.5 -34t14.5 -39.5t2 -31q0 -57 -28 -94.5t-71 -60t-93.5 -31.5t-96.5 -9q-24 0 -47.5 4t-41.5 14.5t-29 28.5t-11 47q0 23 8 43.5t20.5 38.5t28 34t30.5 31q-23 2 -41.5 19.5t-18.5 41.5q0 22 5.5 39t16 30.5t24.5 24.5t31 23q-44 23 -61 58.5
t-17 83.5q0 35 15 65t39.5 52t56.5 34.5t66 12.5q31 0 63.5 -10t57.5 -29q31 20 49.5 25t35.5 5q24 0 38.5 -6t23 -14.5t11 -18t2.5 -17.5q0 -11 -11 -23t-27 -12q-10 0 -19 9t-18 19.5t-16.5 19.5t-14.5 9q-13 0 -20 -4t-18 -9q7 -8 14 -20t12 -26t8.5 -27.5t3.5 -23.5
q0 -81 -47.5 -126.5t-130.5 -45.5q-5 0 -14 0.5t-19.5 1.5t-21 3.5t-17.5 5.5q-12 -7 -26.5 -22.5t-14.5 -41.5q0 -22 15 -27.5t32 -5.5h148zM241 154q31 0 48.5 17.5t26.5 42t11 50.5t2 42q0 6 -1.5 25.5t-9 40.5t-25 38t-48.5 17q-35 0 -54 -19t-28 -44.5t-10.5 -51.5
t-1.5 -39q0 -22 4 -43.5t14.5 -38t28 -27t43.5 -10.5zM160 -34q-2 0 -12.5 -8t-22 -21.5t-21 -31.5t-9.5 -39q0 -5 3 -20t16.5 -31t42.5 -28.5t82 -12.5q86 0 126.5 27t40.5 86q0 46 -26.5 62.5t-75.5 16.5h-144zM386 690q-2 -33 -11.5 -61.5t-26.5 -49.5t-43 -33.5
t-62 -12.5q-34 0 -60.5 12.5t-44.5 33.5t-27 49.5t-7 61.5h30q10 -49 36.5 -70.5t77.5 -21.5q47 0 72 25t36 67h30z" />
    <glyph glyph-name="Gdotaccent" unicode="&#x120;" horiz-adv-x="833" 
d="M46 334q0 90 31 162t82.5 122.5t118 77t138.5 26.5q95 0 160 -14.5t116 -50.5q2 -2 7.5 -4.5t9.5 -2.5q5 0 15 9.5t16 9.5q5 0 6 -6.5t1 -37.5q0 -41 1 -64.5t1.5 -37.5t1.5 -20.5t1 -12.5q0 -5 -6.5 -7.5t-14.5 -2.5q-3 0 -11.5 20t-18.5 52q-10 30 -31 56t-53.5 45.5
t-76 31t-98.5 11.5q-47 0 -96 -22t-89 -67t-66 -112t-26 -157q0 -83 27 -144t69.5 -101.5t95 -60.5t103.5 -20q37 0 67.5 2.5t52.5 10.5t33.5 22t11.5 37v152q0 8 -3.5 14t-13 9.5t-27.5 5t-48 1.5q-23 0 -35.5 1t-18 3.5t-6.5 5.5t-1 7q0 7 2 10t16 3q3 0 11 -0.5
t27.5 -0.5t53.5 -0.5t90 -0.5q52 0 81.5 0.5t44 0.5t18.5 0.5t7 0.5q6 0 7 -3t1 -10q0 -8 -2.5 -12.5t-18.5 -4.5q-30 0 -47 -3t-25.5 -9t-11 -14.5t-2.5 -18.5v-137q0 -11 4.5 -17.5t9.5 -11t9.5 -8t4.5 -7.5q0 -6 -2.5 -9t-14.5 -7q-53 -19 -137.5 -28.5t-181.5 -9.5
q-67 0 -120.5 16.5t-95 44t-70.5 63.5t-48 74.5t-27.5 77t-8.5 72.5zM442 826q-20 0 -34.5 15t-14.5 35q0 19 15 34t34 15q20 0 35 -14.5t15 -34.5t-15 -35t-35 -15z" />
    <glyph glyph-name="gdotaccent" unicode="&#x121;" 
d="M320 42q51 0 79 -14.5t40.5 -34t14.5 -39.5t2 -31q0 -57 -28 -94.5t-71 -60t-93.5 -31.5t-96.5 -9q-24 0 -47.5 4t-41.5 14.5t-29 28.5t-11 47q0 23 8 43.5t20.5 38.5t28 34t30.5 31q-23 2 -41.5 19.5t-18.5 41.5q0 22 5.5 39t16 30.5t24.5 24.5t31 23q-44 23 -61 58.5
t-17 83.5q0 35 15 65t39.5 52t56.5 34.5t66 12.5q31 0 63.5 -10t57.5 -29q31 20 49.5 25t35.5 5q24 0 38.5 -6t23 -14.5t11 -18t2.5 -17.5q0 -11 -11 -23t-27 -12q-10 0 -19 9t-18 19.5t-16.5 19.5t-14.5 9q-13 0 -20 -4t-18 -9q7 -8 14 -20t12 -26t8.5 -27.5t3.5 -23.5
q0 -81 -47.5 -126.5t-130.5 -45.5q-5 0 -14 0.5t-19.5 1.5t-21 3.5t-17.5 5.5q-12 -7 -26.5 -22.5t-14.5 -41.5q0 -22 15 -27.5t32 -5.5h148zM241 154q31 0 48.5 17.5t26.5 42t11 50.5t2 42q0 6 -1.5 25.5t-9 40.5t-25 38t-48.5 17q-35 0 -54 -19t-28 -44.5t-10.5 -51.5
t-1.5 -39q0 -22 4 -43.5t14.5 -38t28 -27t43.5 -10.5zM160 -34q-2 0 -12.5 -8t-22 -21.5t-21 -31.5t-9.5 -39q0 -5 3 -20t16.5 -31t42.5 -28.5t82 -12.5q86 0 126.5 27t40.5 86q0 46 -26.5 62.5t-75.5 16.5h-144zM244 546q-20 0 -34.5 15t-14.5 35q0 19 15 34t34 15
q20 0 35 -14.5t15 -34.5t-15 -35t-35 -15z" />
    <glyph glyph-name="Gcommaaccent" unicode="&#x122;" horiz-adv-x="833" 
d="M46 334q0 90 31 162t82.5 122.5t118 77t138.5 26.5q95 0 160 -14.5t116 -50.5q2 -2 7.5 -4.5t9.5 -2.5q5 0 15 9.5t16 9.5q5 0 6 -6.5t1 -37.5q0 -41 1 -64.5t1.5 -37.5t1.5 -20.5t1 -12.5q0 -5 -6.5 -7.5t-14.5 -2.5q-3 0 -11.5 20t-18.5 52q-10 30 -31 56t-53.5 45.5
t-76 31t-98.5 11.5q-47 0 -96 -22t-89 -67t-66 -112t-26 -157q0 -83 27 -144t69.5 -101.5t95 -60.5t103.5 -20q37 0 67.5 2.5t52.5 10.5t33.5 22t11.5 37v152q0 8 -3.5 14t-13 9.5t-27.5 5t-48 1.5q-23 0 -35.5 1t-18 3.5t-6.5 5.5t-1 7q0 7 2 10t16 3q3 0 11 -0.5
t27.5 -0.5t53.5 -0.5t90 -0.5q52 0 81.5 0.5t44 0.5t18.5 0.5t7 0.5q6 0 7 -3t1 -10q0 -8 -2.5 -12.5t-18.5 -4.5q-30 0 -47 -3t-25.5 -9t-11 -14.5t-2.5 -18.5v-137q0 -11 4.5 -17.5t9.5 -11t9.5 -8t4.5 -7.5q0 -6 -2.5 -9t-14.5 -7q-53 -19 -137.5 -28.5t-181.5 -9.5
q-67 0 -120.5 16.5t-95 44t-70.5 63.5t-48 74.5t-27.5 77t-8.5 72.5zM394 -124q0 20 14.5 33.5t37.5 13.5q35 0 50.5 -25t15.5 -56q0 -16 -6 -33.5t-18 -34.5t-30 -32.5t-43 -27.5q-5 1 -9 4.5t-4 8.5q0 8 6 12q10 7 20 15.5t18.5 19t14 21.5t5.5 23q0 5 -2 10t-9 5
q-6 0 -10 -1t-12 -1q-23 0 -31 14.5t-8 30.5z" />
    <glyph glyph-name="gcommaaccent" unicode="&#x123;" 
d="M320 42q51 0 79 -14.5t40.5 -34t14.5 -39.5t2 -31q0 -57 -28 -94.5t-71 -60t-93.5 -31.5t-96.5 -9q-24 0 -47.5 4t-41.5 14.5t-29 28.5t-11 47q0 23 8 43.5t20.5 38.5t28 34t30.5 31q-23 2 -41.5 19.5t-18.5 41.5q0 22 5.5 39t16 30.5t24.5 24.5t31 23q-44 23 -61 58.5
t-17 83.5q0 35 15 65t39.5 52t56.5 34.5t66 12.5q31 0 63.5 -10t57.5 -29q31 20 49.5 25t35.5 5q24 0 38.5 -6t23 -14.5t11 -18t2.5 -17.5q0 -11 -11 -23t-27 -12q-10 0 -19 9t-18 19.5t-16.5 19.5t-14.5 9q-13 0 -20 -4t-18 -9q7 -8 14 -20t12 -26t8.5 -27.5t3.5 -23.5
q0 -81 -47.5 -126.5t-130.5 -45.5q-5 0 -14 0.5t-19.5 1.5t-21 3.5t-17.5 5.5q-12 -7 -26.5 -22.5t-14.5 -41.5q0 -22 15 -27.5t32 -5.5h148zM241 154q31 0 48.5 17.5t26.5 42t11 50.5t2 42q0 6 -1.5 25.5t-9 40.5t-25 38t-48.5 17q-35 0 -54 -19t-28 -44.5t-10.5 -51.5
t-1.5 -39q0 -22 4 -43.5t14.5 -38t28 -27t43.5 -10.5zM160 -34q-2 0 -12.5 -8t-22 -21.5t-21 -31.5t-9.5 -39q0 -5 3 -20t16.5 -31t42.5 -28.5t82 -12.5q86 0 126.5 27t40.5 86q0 46 -26.5 62.5t-75.5 16.5h-144zM296 565q0 -20 -14.5 -33.5t-37.5 -13.5q-35 0 -50.5 25
t-15.5 56q0 16 6 33.5t18 34.5t30 32.5t43 27.5q5 -1 9 -4.5t4 -8.5q0 -8 -6 -12q-10 -7 -20 -15.5t-18.5 -19t-14 -21.5t-5.5 -23q0 -5 2 -10t9 -5q6 0 10 1t12 1q23 0 31 -14.5t8 -30.5z" />
    <glyph glyph-name="Hcircumflex" unicode="&#x124;" horiz-adv-x="870" 
d="M20 11q0 8 3.5 12.5t24.5 4.5q30 0 47 3t25.5 9t11 14t2.5 18q1 19 1.5 40l1 42t0.5 40.5v35.5v245v45.5t-0.5 34t-1 30t-0.5 31.5q0 22 -4.5 35.5t-16 20.5t-31.5 9t-53 2q-8 0 -9.5 5t-1.5 12q0 5 2 9t7 4q3 0 19 -0.5t39 -1.5t49.5 -1.5t50.5 -0.5t50.5 0.5t50 1.5
t39.5 1.5t19 0.5q5 0 7 -4t2 -9q0 -7 -1.5 -12t-9.5 -5q-33 0 -53 -2t-31.5 -9t-16 -20.5t-4.5 -35.5q0 -17 -0.5 -31.5t-1 -30t-0.5 -34v-45.5v-102h397v102v45.5t-0.5 34t-1 30t-0.5 31.5q0 22 -4.5 35.5t-16 20.5t-31.5 9t-53 2q-8 0 -9.5 5t-1.5 12q0 5 2 9t7 4
q3 0 19 -0.5t39.5 -1.5t50 -1.5t50.5 -0.5t50.5 0.5t49.5 1.5t39 1.5t19 0.5q5 0 7 -4t2 -9q0 -7 -1.5 -12t-9.5 -5q-33 0 -53 -2t-31.5 -9t-16 -20.5t-4.5 -35.5q0 -17 -0.5 -31.5t-1 -30t-0.5 -34v-45.5v-245v-35.5t0.5 -40.5l1 -42t1.5 -40q0 -10 2.5 -18t11 -14t25.5 -9
t47 -3q21 0 24.5 -4.5t3.5 -12.5q0 -7 -1 -10t-7 -3q-3 0 -7 0.5t-19.5 0.5t-46 0.5t-85.5 0.5q-56 0 -86.5 -0.5t-46 -0.5t-19.5 -0.5t-7 -0.5q-6 0 -7 3t-1 10q0 8 3.5 12.5t24.5 4.5q30 0 47 3t25.5 9t11 14t2.5 18q1 19 1.5 40l1 42t0.5 40.5v35.5v113h-397v-113v-35.5
t0.5 -40.5l1 -42t1.5 -40q0 -10 2.5 -18t11 -14t25.5 -9t47 -3q21 0 24.5 -4.5t3.5 -12.5q0 -7 -1 -10t-7 -3q-3 0 -7 0.5t-19.5 0.5t-46.5 0.5t-86 0.5t-85.5 -0.5t-46 -0.5t-19.5 -0.5t-7 -0.5q-6 0 -7 3t-1 10zM312 811h-33l124 166h62l125 -166h-35l-121 103z" />
    <glyph glyph-name="hcircumflex" unicode="&#x125;" horiz-adv-x="556" 
d="M174 390q39 26 75 43t82 17q13 0 35 -3.5t43.5 -18t37.5 -44.5t16 -84v-240q0 -6 1.5 -12.5t8 -12t19.5 -8.5t36 -3q8 0 9 -4t1 -9t-1.5 -9t-12.5 -4t-21 0.5t-21 0.5t-25 0.5t-34 0.5q-30 0 -49.5 -0.5t-30.5 -0.5t-16.5 -0.5t-8.5 -0.5q-5 0 -6 4t-1 8t2.5 9t11.5 5
q36 0 46.5 6t10.5 31v179q0 35 -3 63.5t-14 49t-33.5 31.5t-61.5 11q-16 0 -32.5 -3.5t-30 -8.5t-23 -12t-10.5 -13v-265q0 -21 1 -34.5t5.5 -21t13.5 -10.5t26 -3q20 0 24.5 -2t4.5 -11q0 -5 -1 -9t-9 -4q-2 0 -6 0.5t-13.5 0.5t-26 0.5t-42.5 0.5q-35 0 -58.5 -0.5
t-38 -0.5t-22 -0.5t-11.5 -0.5q-6 0 -7 3.5t-1 7.5q0 10 5 12.5t33 2.5q16 0 23.5 6.5t12.5 17.5q1 3 2.5 26.5t2 53l1 59t0.5 45.5v350q0 33 -1.5 52.5t-7 30.5t-17 15t-32.5 6q-9 1 -9 12q0 12 8 14q30 5 54.5 12.5t42 14t28 11.5t14.5 5q6 0 6 -11q0 -2 -1 -6t-1.5 -18.5
t-1.5 -42.5t-1 -77v-210zM96 801h-33l124 166h62l125 -166h-35l-121 103z" />
    <glyph glyph-name="Hbar" unicode="&#x126;" horiz-adv-x="870" 
d="M236 343v-113v-35.5t0.5 -40.5l1 -42t1.5 -40q0 -10 2.5 -18t11 -14t25.5 -9t47 -3q21 0 24.5 -4.5t3.5 -12.5q0 -7 -1 -10t-7 -3q-3 0 -7 0.5t-19.5 0.5t-46.5 0.5t-86 0.5t-85.5 -0.5t-46 -0.5t-19.5 -0.5t-7 -0.5q-6 0 -7 3t-1 10q0 8 3.5 12.5t24.5 4.5q30 0 47 3
t25.5 9t11 14t2.5 18q1 19 1.5 40l1 42t0.5 40.5v35.5v245v45.5t-0.5 34t-1 30t-0.5 31.5q0 22 -4.5 35.5t-16 20.5t-31.5 9t-53 2q-8 0 -9.5 5t-1.5 12q0 5 2 9t7 4q3 0 19 -0.5t39 -1.5t49.5 -1.5t50.5 -0.5t50.5 0.5t50 1.5t39.5 1.5t19 0.5q5 0 7 -4t2 -9q0 -7 -1.5 -12
t-9.5 -5q-33 0 -53 -2t-31.5 -9t-16 -20.5t-4.5 -35.5q-1 -20 -1.5 -36.5t-0.5 -36.5h397q-1 20 -1.5 36.5t-0.5 36.5q0 22 -4.5 35.5t-16 20.5t-31.5 9t-53 2q-8 0 -9.5 5t-1.5 12q0 5 2 9t7 4q3 0 19 -0.5t39.5 -1.5t50 -1.5t50.5 -0.5t50.5 0.5t49.5 1.5t39 1.5t19 0.5
q5 0 7 -4t2 -9q0 -7 -1.5 -12t-9.5 -5q-33 0 -53 -2t-31.5 -9t-16 -20.5t-4.5 -35.5q0 -17 -0.5 -31.5t-1 -30t-0.5 -34v-45.5v-245v-35.5t0.5 -40.5l1 -42t1.5 -40q0 -10 2.5 -18t11 -14t25.5 -9t47 -3q21 0 24.5 -4.5t3.5 -12.5q0 -7 -1 -10t-7 -3q-3 0 -7 0.5t-19.5 0.5
t-46 0.5t-85.5 0.5q-56 0 -86.5 -0.5t-46 -0.5t-19.5 -0.5t-7 -0.5q-6 0 -7 3t-1 10q0 8 3.5 12.5t24.5 4.5q30 0 47 3t25.5 9t11 14t2.5 18q1 19 1.5 40l1 42t0.5 40.5v35.5v113h-397zM633 475v38h-397v-38v-102h397v102z" />
    <glyph glyph-name="hbar" unicode="&#x127;" horiz-adv-x="556" 
d="M174 578h102v-32h-102v-156q39 26 75 43t82 17q13 0 35 -3.5t43.5 -18t37.5 -44.5t16 -84v-240q0 -6 1.5 -12.5t8 -12t19.5 -8.5t36 -3q8 0 9 -4t1 -9t-1.5 -9t-12.5 -4t-21 0.5t-21 0.5t-25 0.5t-34 0.5q-30 0 -49.5 -0.5t-30.5 -0.5t-16.5 -0.5t-8.5 -0.5q-5 0 -6 4
t-1 8t2.5 9t11.5 5q36 0 46.5 6t10.5 31v179q0 35 -3 63.5t-14 49t-33.5 31.5t-61.5 11q-16 0 -32.5 -3.5t-30 -8.5t-23 -12t-10.5 -13v-265q0 -21 1 -34.5t5.5 -21t13.5 -10.5t26 -3q20 0 24.5 -2t4.5 -11q0 -5 -1 -9t-9 -4q-2 0 -6 0.5t-13.5 0.5t-26 0.5t-42.5 0.5
q-35 0 -58.5 -0.5t-38 -0.5t-22 -0.5t-11.5 -0.5q-6 0 -7 3.5t-1 7.5q0 10 5 12.5t33 2.5q16 0 23.5 6.5t12.5 17.5q1 3 2.5 26.5t2 53l1 59t0.5 45.5v314h-66v32h66v4q0 33 -1.5 52.5t-7 30.5t-17 15t-32.5 6q-9 1 -9 12q0 12 8 14q30 5 54.5 12.5t42 14t28 11.5t14.5 5
q6 0 6 -11q0 -2 -1 -6t-1.5 -18.5t-1.5 -42.5t-1 -77v-22z" />
    <glyph glyph-name="Itilde" unicode="&#x128;" horiz-adv-x="370" 
d="M18 11q0 8 3.5 12.5t24.5 4.5q30 0 47 3t25.5 9t11 14t2.5 18q1 19 1.5 40l1 42t0.5 40.5v35.5v245v45.5t-0.5 34t-1 30t-0.5 31.5q0 22 -4.5 35.5t-16 20.5t-31.5 9t-53 2q-8 0 -9.5 5t-1.5 12q0 5 2 9t7 4q3 0 19 -0.5t39 -1.5t49.5 -1.5t50.5 -0.5t50.5 0.5t50 1.5
t39.5 1.5t19 0.5q5 0 7 -4t2 -9q0 -7 -1.5 -12t-9.5 -5q-33 0 -53 -2t-31.5 -9t-16 -20.5t-4.5 -35.5q0 -17 -0.5 -31.5t-1 -30t-0.5 -34v-45.5v-245v-35.5t0.5 -40.5l1 -42t1.5 -40q0 -10 2.5 -18t11 -14t25.5 -9t47 -3q21 0 24.5 -4.5t3.5 -12.5q0 -7 -1 -10t-7 -3
q-3 0 -7 0.5t-19.5 0.5t-46.5 0.5t-86 0.5t-85.5 -0.5t-46 -0.5t-19.5 -0.5t-7 -0.5q-6 0 -7 3t-1 10zM345 928q-4 -18 -11 -37.5t-19 -35t-28 -25.5t-38 -10q-17 0 -38 7.5t-41 15.5q-21 9 -41 16.5t-35 7.5q-21 0 -33 -14t-14 -34h-30q4 18 11 37.5t19 35t28 25.5t38 10
q17 0 38 -7.5t41 -15.5q21 -9 41 -16.5t35 -7.5q21 0 33 14t14 34h30z" />
    <glyph glyph-name="itilde" unicode="&#x129;" horiz-adv-x="278" 
d="M179 93q0 -21 1 -34.5t5.5 -21t13.5 -10.5t26 -3t20.5 -2t3.5 -11q0 -5 -1 -9t-9 -4q-2 0 -6 0.5t-13 0.5t-24.5 0.5t-39.5 0.5q-35 0 -58.5 -0.5t-38.5 -0.5t-23.5 -0.5t-14.5 -0.5t-7 3.5t-1 7.5q0 10 5 12.5t33 2.5q20 0 28 6.5t13 17.5q1 3 2.5 17t2 34.5t1 44.5
t0.5 48v137q0 26 -10.5 41t-48.5 19q-6 1 -7.5 4t-1.5 8q0 12 8 14q43 9 68.5 17.5t40 15.5t20.5 11.5t11 4.5q6 0 6 -11q0 -2 -1 -6t-1.5 -18.5t-1.5 -42.5t-1 -77v-216zM293 648q-4 -18 -11 -37.5t-19 -35t-28 -25.5t-38 -10q-17 0 -38 7.5t-41 15.5q-21 9 -41 16.5
t-35 7.5q-21 0 -33 -14t-14 -34h-30q4 18 11 37.5t19 35t28 25.5t38 10q17 0 38 -7.5t41 -15.5q21 -9 41 -16.5t35 -7.5q21 0 33 14t14 34h30z" />
    <glyph glyph-name="Imacron" unicode="&#x12a;" horiz-adv-x="370" 
d="M18 11q0 8 3.5 12.5t24.5 4.5q30 0 47 3t25.5 9t11 14t2.5 18q1 19 1.5 40l1 42t0.5 40.5v35.5v245v45.5t-0.5 34t-1 30t-0.5 31.5q0 22 -4.5 35.5t-16 20.5t-31.5 9t-53 2q-8 0 -9.5 5t-1.5 12q0 5 2 9t7 4q3 0 19 -0.5t39 -1.5t49.5 -1.5t50.5 -0.5t50.5 0.5t50 1.5
t39.5 1.5t19 0.5q5 0 7 -4t2 -9q0 -7 -1.5 -12t-9.5 -5q-33 0 -53 -2t-31.5 -9t-16 -20.5t-4.5 -35.5q0 -17 -0.5 -31.5t-1 -30t-0.5 -34v-45.5v-245v-35.5t0.5 -40.5l1 -42t1.5 -40q0 -10 2.5 -18t11 -14t25.5 -9t47 -3q21 0 24.5 -4.5t3.5 -12.5q0 -7 -1 -10t-7 -3
q-3 0 -7 0.5t-19.5 0.5t-46.5 0.5t-86 0.5t-85.5 -0.5t-46 -0.5t-19.5 -0.5t-7 -0.5q-6 0 -7 3t-1 10zM43 851v52h276v-52h-276z" />
    <glyph glyph-name="imacron" unicode="&#x12b;" horiz-adv-x="278" 
d="M179 93q0 -21 1 -34.5t5.5 -21t13.5 -10.5t26 -3t20.5 -2t3.5 -11q0 -5 -1 -9t-9 -4q-2 0 -6 0.5t-13 0.5t-24.5 0.5t-39.5 0.5q-35 0 -58.5 -0.5t-38.5 -0.5t-23.5 -0.5t-14.5 -0.5t-7 3.5t-1 7.5q0 10 5 12.5t33 2.5q20 0 28 6.5t13 17.5q1 3 2.5 17t2 34.5t1 44.5
t0.5 48v137q0 26 -10.5 41t-48.5 19q-6 1 -7.5 4t-1.5 8q0 12 8 14q43 9 68.5 17.5t40 15.5t20.5 11.5t11 4.5q6 0 6 -11q0 -2 -1 -6t-1.5 -18.5t-1.5 -42.5t-1 -77v-216zM-9 571v52h276v-52h-276z" />
    <glyph glyph-name="Ibreve" unicode="&#x12c;" horiz-adv-x="370" 
d="M18 11q0 8 3.5 12.5t24.5 4.5q30 0 47 3t25.5 9t11 14t2.5 18q1 19 1.5 40l1 42t0.5 40.5v35.5v245v45.5t-0.5 34t-1 30t-0.5 31.5q0 22 -4.5 35.5t-16 20.5t-31.5 9t-53 2q-8 0 -9.5 5t-1.5 12q0 5 2 9t7 4q3 0 19 -0.5t39 -1.5t49.5 -1.5t50.5 -0.5t50.5 0.5t50 1.5
t39.5 1.5t19 0.5q5 0 7 -4t2 -9q0 -7 -1.5 -12t-9.5 -5q-33 0 -53 -2t-31.5 -9t-16 -20.5t-4.5 -35.5q0 -17 -0.5 -31.5t-1 -30t-0.5 -34v-45.5v-245v-35.5t0.5 -40.5l1 -42t1.5 -40q0 -10 2.5 -18t11 -14t25.5 -9t47 -3q21 0 24.5 -4.5t3.5 -12.5q0 -7 -1 -10t-7 -3
q-3 0 -7 0.5t-19.5 0.5t-46.5 0.5t-86 0.5t-85.5 -0.5t-46 -0.5t-19.5 -0.5t-7 -0.5q-6 0 -7 3t-1 10zM326 970q-2 -33 -11.5 -61.5t-26.5 -49.5t-43 -33.5t-62 -12.5q-34 0 -60.5 12.5t-44.5 33.5t-27 49.5t-7 61.5h30q10 -49 36.5 -70.5t77.5 -21.5q47 0 72 25t36 67h30z
" />
    <glyph glyph-name="ibreve" unicode="&#x12d;" horiz-adv-x="278" 
d="M179 93q0 -21 1 -34.5t5.5 -21t13.5 -10.5t26 -3t20.5 -2t3.5 -11q0 -5 -1 -9t-9 -4q-2 0 -6 0.5t-13 0.5t-24.5 0.5t-39.5 0.5q-35 0 -58.5 -0.5t-38.5 -0.5t-23.5 -0.5t-14.5 -0.5t-7 3.5t-1 7.5q0 10 5 12.5t33 2.5q20 0 28 6.5t13 17.5q1 3 2.5 17t2 34.5t1 44.5
t0.5 48v137q0 26 -10.5 41t-48.5 19q-6 1 -7.5 4t-1.5 8q0 12 8 14q43 9 68.5 17.5t40 15.5t20.5 11.5t11 4.5q6 0 6 -11q0 -2 -1 -6t-1.5 -18.5t-1.5 -42.5t-1 -77v-216zM280 690q-2 -33 -11.5 -61.5t-26.5 -49.5t-43 -33.5t-62 -12.5q-34 0 -60.5 12.5t-44.5 33.5
t-27 49.5t-7 61.5h30q10 -49 36.5 -70.5t77.5 -21.5q47 0 72 25t36 67h30z" />
    <glyph glyph-name="Iogonek" unicode="&#x12e;" horiz-adv-x="370" 
d="M264 -149q-20 -11 -48 -18.5t-60 -7.5q-45 0 -66.5 21t-21.5 44q0 25 12 44t29 32.5t35.5 22t31.5 11.5q-52 0 -81 -0.5t-43.5 -0.5t-18.5 -0.5t-7 -0.5q-6 0 -7 3t-1 10q0 8 3.5 12.5t24.5 4.5q30 0 47 3t25.5 9t11 14t2.5 18q1 19 1.5 40l1 42t0.5 40.5v35.5v245v45.5
t-0.5 34t-1 30t-0.5 31.5q0 22 -4.5 35.5t-16 20.5t-31.5 9t-53 2q-8 0 -9.5 5t-1.5 12q0 5 2 9t7 4q3 0 19 -0.5t39 -1.5t49.5 -1.5t50.5 -0.5t50.5 0.5t50 1.5t39.5 1.5t19 0.5q5 0 7 -4t2 -9q0 -7 -1.5 -12t-9.5 -5q-33 0 -53 -2t-31.5 -9t-16 -20.5t-4.5 -35.5
q0 -17 -0.5 -31.5t-1 -30t-0.5 -34v-45.5v-245v-35.5t0.5 -40.5l1 -42t1.5 -40q0 -10 2.5 -18t11 -14t25.5 -9t47 -3q21 0 24.5 -4.5t3.5 -12.5q0 -7 -1 -10t-7 -3q-3 0 -7 0.5t-16.5 0.5t-37 0.5t-66.5 0.5q-37 -17 -56 -42.5t-19 -51.5t13.5 -38.5t27.5 -12.5q18 0 38 7.5
t44 18.5v-30z" />
    <glyph glyph-name="iogonek" unicode="&#x12f;" horiz-adv-x="278" 
d="M138 603q-23 0 -37.5 16.5t-14.5 36.5t14.5 36.5t37.5 16.5t37.5 -16.5t14.5 -36.5t-14.5 -36.5t-37.5 -16.5zM214 -149q-20 -11 -48 -18.5t-60 -7.5q-45 0 -66.5 21t-21.5 44q0 25 12 44t29 32.5t35.5 22t31.5 11.5q-52 0 -73.5 -1t-31.5 -1q-6 0 -7 3.5t-1 7.5
q0 10 5 12.5t33 2.5q20 0 28 6.5t13 17.5q1 3 2.5 17t2 34.5t1 44.5t0.5 48v137q0 26 -10.5 41t-48.5 19q-6 1 -7.5 4t-1.5 8q0 12 8 14q43 9 68.5 17.5t40 15.5t20.5 11.5t11 4.5q6 0 6 -11q0 -2 -1 -6t-1.5 -18.5t-1.5 -42.5t-1 -77v-216q0 -21 1 -34.5t5.5 -21
t13.5 -10.5t26 -3t20.5 -2t3.5 -11q0 -5 -1 -9t-9 -4q-4 0 -18 1t-55 1q-37 -17 -56 -42.5t-19 -51.5t13.5 -38.5t27.5 -12.5q18 0 38 7.5t44 18.5v-30z" />
    <glyph glyph-name="Idotaccent" unicode="&#x130;" horiz-adv-x="370" 
d="M18 11q0 8 3.5 12.5t24.5 4.5q30 0 47 3t25.5 9t11 14t2.5 18q1 19 1.5 40l1 42t0.5 40.5v35.5v245v45.5t-0.5 34t-1 30t-0.5 31.5q0 22 -4.5 35.5t-16 20.5t-31.5 9t-53 2q-8 0 -9.5 5t-1.5 12q0 5 2 9t7 4q3 0 19 -0.5t39 -1.5t49.5 -1.5t50.5 -0.5t50.5 0.5t50 1.5
t39.5 1.5t19 0.5q5 0 7 -4t2 -9q0 -7 -1.5 -12t-9.5 -5q-33 0 -53 -2t-31.5 -9t-16 -20.5t-4.5 -35.5q0 -17 -0.5 -31.5t-1 -30t-0.5 -34v-45.5v-245v-35.5t0.5 -40.5l1 -42t1.5 -40q0 -10 2.5 -18t11 -14t25.5 -9t47 -3q21 0 24.5 -4.5t3.5 -12.5q0 -7 -1 -10t-7 -3
q-3 0 -7 0.5t-19.5 0.5t-46.5 0.5t-86 0.5t-85.5 -0.5t-46 -0.5t-19.5 -0.5t-7 -0.5q-6 0 -7 3t-1 10zM180 826q-20 0 -34.5 15t-14.5 35q0 19 15 34t34 15q20 0 35 -14.5t15 -34.5t-15 -35t-35 -15z" />
    <glyph glyph-name="dotlessi" unicode="&#x131;" horiz-adv-x="278" 
d="M179 93q0 -21 1 -34.5t5.5 -21t13.5 -10.5t26 -3t20.5 -2t3.5 -11q0 -5 -1 -9t-9 -4q-2 0 -6 0.5t-13 0.5t-24.5 0.5t-39.5 0.5q-35 0 -58.5 -0.5t-38.5 -0.5t-23.5 -0.5t-14.5 -0.5t-7 3.5t-1 7.5q0 10 5 12.5t33 2.5q20 0 28 6.5t13 17.5q1 3 2.5 17t2 34.5t1 44.5
t0.5 48v137q0 26 -10.5 41t-48.5 19q-6 1 -7.5 4t-1.5 8q0 12 8 14q43 9 68.5 17.5t40 15.5t20.5 11.5t11 4.5q6 0 6 -11q0 -2 -1 -6t-1.5 -18.5t-1.5 -42.5t-1 -77v-216z" />
    <glyph glyph-name="IJ" unicode="&#x132;" horiz-adv-x="770" 
d="M18 11q0 8 3.5 12.5t24.5 4.5q30 0 47 3t25.5 9t11 14t2.5 18q1 19 1.5 40l1 42t0.5 40.5v35.5v245v45.5t-0.5 34t-1 30t-0.5 31.5q0 22 -4.5 35.5t-16 20.5t-31.5 9t-53 2q-8 0 -9.5 5t-1.5 12q0 5 2 9t7 4q3 0 19 -0.5t39 -1.5t49.5 -1.5t50.5 -0.5t50.5 0.5t50 1.5
t39.5 1.5t19 0.5q5 0 7 -4t2 -9q0 -7 -1.5 -12t-9.5 -5q-33 0 -53 -2t-31.5 -9t-16 -20.5t-4.5 -35.5q0 -17 -0.5 -31.5t-1 -30t-0.5 -34v-45.5v-245v-35.5t0.5 -40.5l1 -42t1.5 -40q0 -10 2.5 -18t11 -14t25.5 -9t47 -3q21 0 24.5 -4.5t3.5 -12.5q0 -7 -1 -10t-7 -3
q-3 0 -7 0.5t-19.5 0.5t-46.5 0.5t-86 0.5t-85.5 -0.5t-46 -0.5t-19.5 -0.5t-7 -0.5q-6 0 -7 3t-1 10zM360 -83q18 0 33 -9t28.5 -19.5t25.5 -19.5t25 -9q12 0 23.5 5.5t21 23t15 50.5t5.5 88v448v45.5t-0.5 34t-1 30t-0.5 31.5q0 22 -4.5 35.5t-16 20.5t-31.5 9t-53 2
q-8 0 -9.5 5t-1.5 12q0 5 2 9t7 4q3 0 19 -0.5t39 -1.5t49.5 -1.5t50.5 -0.5t47 0.5t42 1.5t31.5 1.5t15.5 0.5q5 0 7 -4t2 -9q0 -7 -1.5 -12t-9.5 -5q-24 0 -39.5 -2t-25 -9t-13.5 -20.5t-4 -35.5q0 -17 -0.5 -31.5t-1 -30t-0.5 -34v-45.5v-355q0 -109 -44 -186.5
t-137 -120.5q-26 -12 -44 -16.5t-35 -4.5q-40 0 -57.5 20.5t-17.5 46.5q0 20 14.5 39t44.5 19z" />
    <glyph glyph-name="ij" unicode="&#x133;" horiz-adv-x="551" 
d="M138 603q-23 0 -37.5 16.5t-14.5 36.5t14.5 36.5t37.5 16.5t37.5 -16.5t14.5 -36.5t-14.5 -36.5t-37.5 -16.5zM179 93q0 -21 1 -34.5t5.5 -21t13.5 -10.5t26 -3t20.5 -2t3.5 -11q0 -5 -1 -9t-9 -4q-2 0 -6 0.5t-13 0.5t-24.5 0.5t-39.5 0.5q-35 0 -58.5 -0.5t-38.5 -0.5
t-23.5 -0.5t-14.5 -0.5t-7 3.5t-1 7.5q0 10 5 12.5t33 2.5q20 0 28 6.5t13 17.5q1 3 2.5 17t2 34.5t1 44.5t0.5 48v137q0 26 -10.5 41t-48.5 19q-6 1 -7.5 4t-1.5 8q0 12 8 14q43 9 68.5 17.5t40 15.5t20.5 11.5t11 4.5q6 0 6 -11q0 -2 -1 -6t-1.5 -18.5t-1.5 -42.5t-1 -77
v-216zM430 603q-23 0 -37.5 16.5t-14.5 36.5t14.5 36.5t37.5 16.5t37.5 -16.5t14.5 -36.5t-14.5 -36.5t-37.5 -16.5zM390 329q0 26 -10.5 41t-48.5 19q-6 1 -7.5 4t-1.5 8q0 12 8 14q43 9 68.5 17.5t40 15.5t20.5 11.5t11 4.5q6 0 6 -11q0 -2 -1 -6t-1.5 -18.5t-1.5 -42.5
t-1 -77v-323q0 -33 -12.5 -65t-31 -60.5t-40 -53t-40.5 -42t-32.5 -27.5t-15.5 -10q-8 0 -11.5 7t-3.5 11q0 10 15.5 19.5t27.5 21.5q24 23 36.5 47.5t18.5 52.5t7 58.5t1 65.5v318z" />
    <glyph glyph-name="Jcircumflex" unicode="&#x134;" horiz-adv-x="370" 
d="M-40 -83q18 0 33 -9t28.5 -19.5t25.5 -19.5t25 -9q12 0 23.5 5.5t21 23t15 50.5t5.5 88v448v45.5t-0.5 34t-1 30t-0.5 31.5q0 22 -4.5 35.5t-16 20.5t-31.5 9t-53 2q-8 0 -9.5 5t-1.5 12q0 5 2 9t7 4q3 0 19 -0.5t39 -1.5t49.5 -1.5t50.5 -0.5t47 0.5t42 1.5t31.5 1.5
t15.5 0.5q5 0 7 -4t2 -9q0 -7 -1.5 -12t-9.5 -5q-24 0 -39.5 -2t-25 -9t-13.5 -20.5t-4 -35.5q0 -17 -0.5 -31.5t-1 -30t-0.5 -34v-45.5v-355q0 -109 -44 -186.5t-137 -120.5q-26 -12 -44 -16.5t-35 -4.5q-40 0 -57.5 20.5t-17.5 46.5q0 20 14.5 39t44.5 19zM57 811h-33
l124 166h62l125 -166h-35l-121 103z" />
    <glyph glyph-name="jcircumflex" unicode="&#x135;" horiz-adv-x="259" 
d="M98 329q0 26 -10.5 41t-48.5 19q-6 1 -7.5 4t-1.5 8q0 12 8 14q43 9 68.5 17.5t40 15.5t20.5 11.5t11 4.5q6 0 6 -11q0 -2 -1 -6t-1.5 -18.5t-1.5 -42.5t-1 -77v-323q0 -33 -12.5 -65t-31 -60.5t-40 -53t-40.5 -42t-32.5 -27.5t-15.5 -10q-8 0 -11.5 7t-3.5 11
q0 10 15.5 19.5t27.5 21.5q24 23 36.5 47.5t18.5 52.5t7 58.5t1 65.5v318zM5 531h-33l124 166h62l125 -166h-35l-121 103z" />
    <glyph glyph-name="Kcommaaccent" unicode="&#x136;" horiz-adv-x="759" 
d="M20 11q0 8 3.5 12.5t24.5 4.5q30 0 47 3t25.5 9t11 14t2.5 18q1 19 1.5 40l1 42t0.5 40.5v35.5v245v45.5t-0.5 34t-1 30t-0.5 31.5q0 22 -4.5 35.5t-16 20.5t-31.5 9t-53 2q-8 0 -9.5 5t-1.5 12q0 5 2 9t7 4q3 0 19 -0.5t39 -1.5t49.5 -1.5t50.5 -0.5t50.5 0.5t50 1.5
t39.5 1.5t19 0.5q5 0 7 -4t2 -9q0 -7 -1.5 -12t-9.5 -5q-33 0 -53 -2t-31.5 -9t-16 -20.5t-4.5 -35.5q0 -17 -0.5 -31.5t-1 -30t-0.5 -34v-45.5v-121q11 0 19 0.5t14.5 2.5t12.5 6.5t14 12.5q88 90 139 141.5t76.5 79t32 39t6.5 20.5q0 6 -1 10.5t-7.5 8.5t-20.5 6t-39 2
q-8 0 -10 3.5t-2 11.5q0 3 2.5 9t7.5 6q8 0 26 -0.5t38 -1.5t37.5 -1.5t23.5 -0.5q9 0 24 0.5t31 1.5t30 1.5t22 0.5q7 0 8.5 -4.5t1.5 -10.5q0 -8 -2 -11.5t-11 -3.5q-19 0 -33.5 -2t-30 -10t-35 -24.5t-47.5 -44.5l-193 -195q-6 -7 -10 -11t-4 -7q0 -4 6 -9.5t16 -16.5
l262 -279q20 -21 36.5 -32.5t31 -16.5t27 -6t24.5 -1q23 0 27 -4.5t4 -12.5q0 -13 -10 -13q-3 0 -8 0.5t-21.5 0.5t-49 0.5t-89.5 0.5q-56 0 -87 -0.5t-47 -0.5t-20.5 -0.5t-6.5 -0.5q-6 0 -7 5.5t-1 14.5q0 4 10.5 7t42.5 3q17 0 23 6.5t6 14.5q0 5 -1.5 11t-11.5 17
q-27 29 -61 67t-67 74t-59.5 63.5t-36.5 35.5q-11 9 -23 10.5t-29 1.5v-99v-35.5t0.5 -40.5l1 -42t1.5 -40q0 -10 2.5 -18t11 -14t25.5 -9t47 -3q21 0 24.5 -4.5t3.5 -12.5q0 -7 -1 -10t-7 -3q-3 0 -7 0.5t-19.5 0.5t-46.5 0.5t-86 0.5t-85.5 -0.5t-46 -0.5t-19.5 -0.5
t-7 -0.5q-6 0 -7 3t-1 10zM336 -124q0 20 14.5 33.5t37.5 13.5q35 0 50.5 -25t15.5 -56q0 -16 -6 -33.5t-18 -34.5t-30 -32.5t-43 -27.5q-5 1 -9 4.5t-4 8.5q0 8 6 12q10 7 20 15.5t18.5 19t14 21.5t5.5 23q0 5 -2 10t-9 5q-6 0 -10 -1t-12 -1q-23 0 -31 14.5t-8 30.5z" />
    <glyph glyph-name="kcommaaccent" unicode="&#x137;" horiz-adv-x="500" 
d="M174 226q11 0 24.5 6t31.5 20.5t42.5 37.5t56.5 56q5 5 12 14t7 20q0 19 -14.5 23t-37.5 4q-8 0 -10 2.5t-2 10.5q0 13 10 13q26 0 50.5 -1t50.5 -1q23 0 46.5 1t46.5 1q3 0 6 -1t3 -9q0 -12 -4.5 -14t-27.5 -2q-6 0 -23.5 -7t-49.5 -35q-45 -39 -71 -62.5t-39 -36
t-16.5 -17t-3.5 -6.5t3 -7t17.5 -22t43.5 -50t81 -92q15 -17 25 -26.5t20.5 -14.5t23.5 -6t34 -1q8 0 11 -3t3 -13t-11 -10q-8 0 -16.5 0.5t-21.5 0.5t-33 0.5t-50 0.5q-12 0 -27 -0.5t-29 -0.5t-25 -0.5t-14 -0.5q-7 0 -8 3t-1 11q0 12 11 12q1 0 6.5 0.5t11.5 2t11 3.5
t5 5q0 4 -4.5 10t-18 21.5t-38 44t-65.5 76.5q-8 9 -16.5 11t-16.5 2v-131q0 -11 2 -19t9 -14t21.5 -9t38.5 -3q5 0 5 -13q0 -5 -1.5 -9t-9.5 -4q-2 0 -6 0.5t-13.5 0.5t-26 0.5t-42.5 0.5q-35 0 -58.5 -0.5t-38 -0.5t-21.5 -0.5t-10 -0.5q-6 0 -7 3.5t-1 7.5q0 10 1 12.5
t4 2.5q1 0 10.5 0.5t20.5 2t21 4t13 7.5q3 4 4.5 16t2.5 34.5t1 57.5v86v350q0 33 -1.5 52.5t-7 30.5t-17 15t-32.5 6q-9 1 -9 12q0 12 8 14q30 5 54.5 12.5t42 14t28 11.5t14.5 5q6 0 6 -11q0 -2 -1 -6t-1.5 -18.5t-1.5 -42.5t-1 -77v-374zM208 -124q0 20 14.5 33.5
t37.5 13.5q35 0 50.5 -25t15.5 -56q0 -16 -6 -33.5t-18 -34.5t-30 -32.5t-43 -27.5q-5 1 -9 4.5t-4 8.5q0 8 6 12q10 7 20 15.5t18.5 19t14 21.5t5.5 23q0 5 -2 10t-9 5q-6 0 -10 -1t-12 -1q-23 0 -31 14.5t-8 30.5z" />
    <glyph glyph-name="kgreenlandic" unicode="&#x138;" horiz-adv-x="500" 
d="M174 226q11 0 24.5 6t31.5 20.5t42.5 37.5t56.5 56q5 5 12 14t7 20q0 19 -14.5 23t-37.5 4q-8 0 -10 2.5t-2 10.5q0 13 10 13q26 0 50.5 -1t50.5 -1q23 0 46.5 1t46.5 1q3 0 6 -1t3 -9q0 -12 -4.5 -14t-27.5 -2q-6 0 -23.5 -7t-49.5 -35q-45 -39 -71 -62.5t-39 -36
t-16.5 -17t-3.5 -6.5t3 -7t17.5 -22t43.5 -50t81 -92q15 -17 25 -26.5t20.5 -14.5t23.5 -6t34 -1q8 0 11 -3t3 -13t-11 -10q-8 0 -16.5 0.5t-21.5 0.5t-33 0.5t-50 0.5q-12 0 -27 -0.5t-29 -0.5t-25 -0.5t-14 -0.5q-7 0 -8 3t-1 11q0 12 11 12q1 0 6.5 0.5t11.5 2t11 3.5
t5 5q0 4 -4.5 10t-18 21.5t-38 44t-65.5 76.5q-8 9 -16.5 11t-16.5 2v-131q0 -11 2 -19t9 -14t21.5 -9t38.5 -3q5 0 5 -13q0 -5 -1.5 -9t-9.5 -4q-2 0 -6 0.5t-13.5 0.5t-26 0.5t-42.5 0.5q-35 0 -58.5 -0.5t-38 -0.5t-21.5 -0.5t-10 -0.5q-6 0 -7 3.5t-1 7.5q0 10 1 12.5
t4 2.5q1 0 10.5 0.5t20.5 2t21 4t13 7.5q3 4 4.5 16t2.5 34.5t1 57.5v86v59q0 33 -1.5 52.5t-7 30.5t-17 15t-32.5 6q-9 1 -9 12q0 12 8 14q30 5 54.5 12.5t42 14t28 11.5t14.5 5q6 0 6 -11q0 -2 -1 -6t-1.5 -18.5t-1.5 -42.5t-1 -77v-83z" />
    <glyph glyph-name="Lacute" unicode="&#x139;" horiz-adv-x="685" 
d="M25 11q0 8 3 12.5t20 4.5q30 0 47 3t25.5 9t11 14t2.5 18q1 19 1.5 40l1 42t0.5 40.5v35.5v245v45.5t-0.5 34t-1 30t-0.5 31.5q0 22 -4.5 35.5t-15.5 20.5t-30 9t-50 2q-8 0 -9.5 5t-1.5 12q0 5 2 9t7 4q3 0 18.5 -0.5t37.5 -1.5t47.5 -1.5t49.5 -0.5t50.5 0.5t50 1.5
t39.5 1.5t19 0.5q5 0 7 -4t2 -9q0 -7 -1.5 -12t-9.5 -5q-33 0 -53 -2t-31.5 -9t-16 -20.5t-4.5 -35.5q0 -17 -0.5 -31.5t-1 -30t-0.5 -34v-45.5v-245v-35.5t0.5 -40.5l1 -42t1.5 -40q1 -27 24.5 -34t80.5 -7q58 0 101.5 3t76 17t55.5 44t41 83q5 16 6 22t8 6q14 0 17.5 -2.5
t3.5 -9.5q0 -2 -3.5 -17.5t-9 -40.5t-12.5 -58.5t-13 -71.5q-1 -8 -10 -8h-7.5t-18 0.5t-39 0.5t-70.5 0.5t-113 0.5h-166q-55 0 -85.5 -0.5t-46 -0.5t-19.5 -0.5t-7 -0.5q-6 0 -7 3t-1 10zM94 810l147 148q6 7 18.5 15t22.5 8q35 0 35 -37q0 -11 -10.5 -21.5t-18.5 -15.5
l-155 -97h-39z" />
    <glyph glyph-name="lacute" unicode="&#x13a;" horiz-adv-x="278" 
d="M179 93q0 -21 1 -34.5t5.5 -21t13.5 -10.5t26 -3q20 0 24.5 -2t4.5 -11q0 -5 -1 -9t-9 -4q-2 0 -6 0.5t-13.5 0.5t-26 0.5t-42.5 0.5q-35 0 -58.5 -0.5t-38 -0.5t-22 -0.5t-11.5 -0.5q-6 0 -7 3.5t-1 7.5q0 10 5 12.5t33 2.5q16 0 23.5 6.5t12.5 17.5q1 3 2.5 26.5t2 53
l1 59t0.5 45.5v350q0 33 -1.5 52.5t-7 30.5t-17 15t-32.5 6q-9 1 -9 12q0 12 8 14q30 5 54.5 12.5t42 14t28 11.5t14.5 5q6 0 6 -11q0 -2 -1 -6t-1.5 -18.5t-1.5 -42.5t-1 -77v-507zM58 773l147 148q6 7 18.5 15t22.5 8q35 0 35 -37q0 -11 -10.5 -21.5t-18.5 -15.5l-155 -97
h-39z" />
    <glyph glyph-name="Lcommaaccent" unicode="&#x13b;" horiz-adv-x="685" 
d="M25 11q0 8 3 12.5t20 4.5q30 0 47 3t25.5 9t11 14t2.5 18q1 19 1.5 40l1 42t0.5 40.5v35.5v245v45.5t-0.5 34t-1 30t-0.5 31.5q0 22 -4.5 35.5t-15.5 20.5t-30 9t-50 2q-8 0 -9.5 5t-1.5 12q0 5 2 9t7 4q3 0 18.5 -0.5t37.5 -1.5t47.5 -1.5t49.5 -0.5t50.5 0.5t50 1.5
t39.5 1.5t19 0.5q5 0 7 -4t2 -9q0 -7 -1.5 -12t-9.5 -5q-33 0 -53 -2t-31.5 -9t-16 -20.5t-4.5 -35.5q0 -17 -0.5 -31.5t-1 -30t-0.5 -34v-45.5v-245v-35.5t0.5 -40.5l1 -42t1.5 -40q1 -27 24.5 -34t80.5 -7q58 0 101.5 3t76 17t55.5 44t41 83q5 16 6 22t8 6q14 0 17.5 -2.5
t3.5 -9.5q0 -2 -3.5 -17.5t-9 -40.5t-12.5 -58.5t-13 -71.5q-1 -8 -10 -8h-7.5t-18 0.5t-39 0.5t-70.5 0.5t-113 0.5h-166q-55 0 -85.5 -0.5t-46 -0.5t-19.5 -0.5t-7 -0.5q-6 0 -7 3t-1 10zM287 -124q0 20 14.5 33.5t37.5 13.5q35 0 50.5 -25t15.5 -56q0 -16 -6 -33.5
t-18 -34.5t-30 -32.5t-43 -27.5q-5 1 -9 4.5t-4 8.5q0 8 6 12q10 7 20 15.5t18.5 19t14 21.5t5.5 23q0 5 -2 10t-9 5q-6 0 -10 -1t-12 -1q-23 0 -31 14.5t-8 30.5z" />
    <glyph glyph-name="lcommaaccent" unicode="&#x13c;" horiz-adv-x="278" 
d="M179 93q0 -21 1 -34.5t5.5 -21t13.5 -10.5t26 -3q20 0 24.5 -2t4.5 -11q0 -5 -1 -9t-9 -4q-2 0 -6 0.5t-13.5 0.5t-26 0.5t-42.5 0.5q-35 0 -58.5 -0.5t-38 -0.5t-22 -0.5t-11.5 -0.5q-6 0 -7 3.5t-1 7.5q0 10 5 12.5t33 2.5q16 0 23.5 6.5t12.5 17.5q1 3 2.5 26.5t2 53
l1 59t0.5 45.5v350q0 33 -1.5 52.5t-7 30.5t-17 15t-32.5 6q-9 1 -9 12q0 12 8 14q30 5 54.5 12.5t42 14t28 11.5t14.5 5q6 0 6 -11q0 -2 -1 -6t-1.5 -18.5t-1.5 -42.5t-1 -77v-507zM77 -124q0 20 14.5 33.5t37.5 13.5q35 0 50.5 -25t15.5 -56q0 -16 -6 -33.5t-18 -34.5
t-30 -32.5t-43 -27.5q-5 1 -9 4.5t-4 8.5q0 8 6 12q10 7 20 15.5t18.5 19t14 21.5t5.5 23q0 5 -2 10t-9 5q-6 0 -10 -1t-12 -1q-23 0 -31 14.5t-8 30.5z" />
    <glyph glyph-name="Lcaron" unicode="&#x13d;" horiz-adv-x="685" 
d="M25 11q0 8 3 12.5t20 4.5q30 0 47 3t25.5 9t11 14t2.5 18q1 19 1.5 40l1 42t0.5 40.5v35.5v245v45.5t-0.5 34t-1 30t-0.5 31.5q0 22 -4.5 35.5t-15.5 20.5t-30 9t-50 2q-8 0 -9.5 5t-1.5 12q0 5 2 9t7 4q3 0 18.5 -0.5t37.5 -1.5t47.5 -1.5t49.5 -0.5t50.5 0.5t50 1.5
t39.5 1.5t19 0.5q5 0 7 -4t2 -9q0 -7 -1.5 -12t-9.5 -5q-33 0 -53 -2t-31.5 -9t-16 -20.5t-4.5 -35.5q0 -17 -0.5 -31.5t-1 -30t-0.5 -34v-45.5v-245v-35.5t0.5 -40.5l1 -42t1.5 -40q1 -27 24.5 -34t80.5 -7q58 0 101.5 3t76 17t55.5 44t41 83q5 16 6 22t8 6q14 0 17.5 -2.5
t3.5 -9.5q0 -2 -3.5 -17.5t-9 -40.5t-12.5 -58.5t-13 -71.5q-1 -8 -10 -8h-7.5t-18 0.5t-39 0.5t-70.5 0.5t-113 0.5h-166q-55 0 -85.5 -0.5t-46 -0.5t-19.5 -0.5t-7 -0.5q-6 0 -7 3t-1 10zM377 524l20 135q7 45 43 45q11 0 22 -5.5t11 -19.5q0 -12 -16 -47t-56 -108h-24z
" />
    <glyph glyph-name="lcaron" unicode="&#x13e;" horiz-adv-x="278" 
d="M179 93q0 -21 1 -34.5t5.5 -21t13.5 -10.5t26 -3q20 0 24.5 -2t4.5 -11q0 -5 -1 -9t-9 -4q-2 0 -6 0.5t-13.5 0.5t-26 0.5t-42.5 0.5q-35 0 -58.5 -0.5t-38 -0.5t-22 -0.5t-11.5 -0.5q-6 0 -7 3.5t-1 7.5q0 10 5 12.5t33 2.5q16 0 23.5 6.5t12.5 17.5q1 3 2.5 26.5t2 53
l1 59t0.5 45.5v350q0 33 -1.5 52.5t-7 30.5t-17 15t-32.5 6q-9 1 -9 12q0 12 8 14q30 5 54.5 12.5t42 14t28 11.5t14.5 5q6 0 6 -11q0 -2 -1 -6t-1.5 -18.5t-1.5 -42.5t-1 -77v-507zM242 524l20 135q7 45 43 45q11 0 22 -5.5t11 -19.5q0 -12 -16 -47t-56 -108h-24z" />
    <glyph glyph-name="Ldot" unicode="&#x13f;" horiz-adv-x="685" 
d="M25 11q0 8 3 12.5t20 4.5q30 0 47 3t25.5 9t11 14t2.5 18q1 19 1.5 40l1 42t0.5 40.5v35.5v245v45.5t-0.5 34t-1 30t-0.5 31.5q0 22 -4.5 35.5t-15.5 20.5t-30 9t-50 2q-8 0 -9.5 5t-1.5 12q0 5 2 9t7 4q3 0 18.5 -0.5t37.5 -1.5t47.5 -1.5t49.5 -0.5t50.5 0.5t50 1.5
t39.5 1.5t19 0.5q5 0 7 -4t2 -9q0 -7 -1.5 -12t-9.5 -5q-33 0 -53 -2t-31.5 -9t-16 -20.5t-4.5 -35.5q0 -17 -0.5 -31.5t-1 -30t-0.5 -34v-45.5v-245v-35.5t0.5 -40.5l1 -42t1.5 -40q1 -27 24.5 -34t80.5 -7q58 0 101.5 3t76 17t55.5 44t41 83q5 16 6 22t8 6q14 0 17.5 -2.5
t3.5 -9.5q0 -2 -3.5 -17.5t-9 -40.5t-12.5 -58.5t-13 -71.5q-1 -8 -10 -8h-7.5t-18 0.5t-39 0.5t-70.5 0.5t-113 0.5h-166q-55 0 -85.5 -0.5t-46 -0.5t-19.5 -0.5t-7 -0.5q-6 0 -7 3t-1 10zM475 296q-20 0 -34.5 15t-14.5 35q0 19 15 34t34 15q20 0 35 -14.5t15 -34.5
t-15 -35t-35 -15z" />
    <glyph glyph-name="ldot" unicode="&#x140;" horiz-adv-x="389" 
d="M179 93q0 -21 1 -34.5t5.5 -21t13.5 -10.5t26 -3q20 0 24.5 -2t4.5 -11q0 -5 -1 -9t-9 -4q-2 0 -6 0.5t-13.5 0.5t-26 0.5t-42.5 0.5q-35 0 -58.5 -0.5t-38 -0.5t-22 -0.5t-11.5 -0.5q-6 0 -7 3.5t-1 7.5q0 10 5 12.5t33 2.5q16 0 23.5 6.5t12.5 17.5q1 3 2.5 26.5t2 53
l1 59t0.5 45.5v350q0 33 -1.5 52.5t-7 30.5t-17 15t-32.5 6q-9 1 -9 12q0 12 8 14q30 5 54.5 12.5t42 14t28 11.5t14.5 5q6 0 6 -11q0 -2 -1 -6t-1.5 -18.5t-1.5 -42.5t-1 -77v-507zM323 296q-20 0 -34.5 15t-14.5 35q0 19 15 34t34 15q20 0 35 -14.5t15 -34.5t-15 -35
t-35 -15z" />
    <glyph glyph-name="Lslash" unicode="&#x141;" horiz-adv-x="685" 
d="M390 415l-154 -86v-99v-35.5t0.5 -40.5l1 -42t1.5 -40q1 -27 24.5 -34t80.5 -7q58 0 101.5 3t76 17t55.5 44t41 83q5 16 6 22t8 6q14 0 17.5 -2.5t3.5 -9.5q0 -2 -3.5 -17.5t-9 -40.5t-12.5 -58.5t-13 -71.5q-1 -8 -10 -8h-7.5t-18 0.5t-39 0.5t-70.5 0.5t-113 0.5h-166
q-55 0 -85.5 -0.5t-46 -0.5t-19.5 -0.5t-7 -0.5q-6 0 -7 3t-1 10q0 8 3 12.5t20 4.5q30 0 47 3t25.5 9t11 14t2.5 18q1 19 1.5 40l1 42t0.5 40.5v35.5v44l-120 -67v41l120 67v160v45.5t-0.5 34t-1 30t-0.5 31.5q0 22 -4.5 35.5t-15.5 20.5t-30 9t-50 2q-8 0 -9.5 5t-1.5 12
q0 5 2 9t7 4q3 0 18.5 -0.5t37.5 -1.5t47.5 -1.5t49.5 -0.5t50.5 0.5t50 1.5t39.5 1.5t19 0.5q5 0 7 -4t2 -9q0 -7 -1.5 -12t-9.5 -5q-33 0 -53 -2t-31.5 -9t-16 -20.5t-4.5 -35.5q0 -17 -0.5 -31.5t-1 -30t-0.5 -34v-45.5v-105l154 86v-41z" />
    <glyph glyph-name="lslash" unicode="&#x142;" horiz-adv-x="278" 
d="M179 388l119 68v-40l-119 -68v-255q0 -21 1 -34.5t5.5 -21t13.5 -10.5t26 -3q20 0 24.5 -2t4.5 -11q0 -5 -1 -9t-9 -4q-2 0 -6 0.5t-13.5 0.5t-26 0.5t-42.5 0.5q-35 0 -58.5 -0.5t-38 -0.5t-22 -0.5t-11.5 -0.5q-6 0 -7 3.5t-1 7.5q0 10 5 12.5t33 2.5q16 0 23.5 6.5
t12.5 17.5q1 3 2.5 26.5t2 53l1 59t0.5 45.5v70l-118 -67v40l118 67v240q0 33 -1.5 52.5t-7 30.5t-17 15t-32.5 6q-9 1 -9 12q0 12 8 14q30 5 54.5 12.5t42 14t28 11.5t14.5 5q6 0 6 -11q0 -2 -1 -6t-1.5 -18.5t-1.5 -42.5t-1 -77v-212z" />
    <glyph glyph-name="Nacute" unicode="&#x143;" horiz-adv-x="870" 
d="M10 17q0 3 5.5 5.5t12.5 3.5t14.5 1.5t12.5 0.5q9 0 20 1.5t21.5 6t17.5 13t9 23.5q0 7 2 45t4.5 102.5t4 153t1.5 197.5v26.5t-2 16.5q-3 7 -13 18.5t-23 23t-25.5 20t-20.5 8.5h-37q-7 0 -8 4t-1 12q0 9 2.5 11.5t8.5 2.5q2 0 14.5 -0.5t28.5 -1.5t30.5 -1.5t21.5 -0.5
q6 0 18 0.5t26 1.5t26.5 1.5t18.5 0.5q2 0 8 -6q88 -99 209.5 -239t289.5 -312q2 35 3.5 83t3 99t2.5 100t1 86q0 57 -7.5 89t-22.5 47.5t-38.5 19t-56.5 3.5q-8 0 -10.5 4t-2.5 10q0 16 11 16q6 0 25.5 -0.5t42.5 -1.5t44.5 -1.5t32.5 -0.5q8 0 29 0.5t42.5 1.5t39.5 1.5
t20 0.5q5 0 6.5 -4t1.5 -9q0 -11 -2.5 -14t-6.5 -3q-30 0 -49.5 -2.5t-31.5 -11.5t-18.5 -25.5t-11.5 -43.5q-2 -9 -3.5 -50t-3.5 -100t-4 -127.5t-3.5 -132.5t-2.5 -115t-1 -75q0 -10 -3.5 -12t-11.5 -2q-2 0 -12 10t-33 35.5t-62.5 69.5t-100.5 111t-146.5 160t-200.5 217
q-1 -65 -2 -129t-1 -129q0 -112 2 -175t2 -79q0 -25 18 -37t60 -12q19 0 29.5 -1t15 -3t5.5 -4.5t1 -6.5q0 -9 -2 -12t-8 -3q-3 0 -7.5 0.5t-18 0.5t-39.5 0.5t-72 0.5q-42 0 -66.5 -0.5t-37.5 -0.5t-17.5 -0.5t-7.5 -0.5q-8 0 -9 5t-1 14zM357 810l147 148q6 7 18.5 15
t22.5 8q35 0 35 -37q0 -11 -10.5 -21.5t-18.5 -15.5l-155 -97h-39z" />
    <glyph glyph-name="nacute" unicode="&#x144;" horiz-adv-x="556" 
d="M174 93q0 -21 1 -34.5t5.5 -21t13.5 -10.5t26 -3q20 0 24.5 -2t4.5 -11q0 -5 -1 -9t-9 -4q-2 0 -6 0.5t-13.5 0.5t-26 0.5t-42.5 0.5q-35 0 -58.5 -0.5t-38.5 -0.5t-23.5 -0.5t-14.5 -0.5t-7 3.5t-1 7.5q0 10 5 12.5t33 2.5q20 0 28 6.5t13 17.5q1 3 2.5 17t2 34.5
t1 44.5t0.5 48v137q0 26 -10.5 41t-48.5 19q-6 1 -7.5 4t-1.5 8q0 12 8 14q43 9 68.5 17.5t40 15.5t20.5 11.5t11 4.5q3 0 3 -11q0 -5 -1 -22t-1 -50q39 26 77.5 47.5t79.5 21.5q13 0 35 -3.5t43.5 -18t37.5 -44.5t16 -84v-240q0 -6 1.5 -12.5t8 -12t19.5 -8.5t36 -3
q8 0 9 -4t1 -9t-1.5 -9t-12.5 -4t-21 0.5t-21 0.5t-25 0.5t-34 0.5q-30 0 -49.5 -0.5t-30.5 -0.5t-16.5 -0.5t-8.5 -0.5q-5 0 -6 4t-1 8t2.5 9t11.5 5q36 0 46.5 6t10.5 31v179q0 35 -3 63.5t-14 49t-33.5 31.5t-61.5 11q-14 0 -30.5 -5.5t-30.5 -13t-24 -15.5t-11 -12v-256
zM209 552l147 148q6 7 18.5 15t22.5 8q35 0 35 -37q0 -11 -10.5 -21.5t-18.5 -15.5l-155 -97h-39z" />
    <glyph glyph-name="Ncommaaccent" unicode="&#x145;" horiz-adv-x="870" 
d="M10 17q0 3 5.5 5.5t12.5 3.5t14.5 1.5t12.5 0.5q9 0 20 1.5t21.5 6t17.5 13t9 23.5q0 7 2 45t4.5 102.5t4 153t1.5 197.5v26.5t-2 16.5q-3 7 -13 18.5t-23 23t-25.5 20t-20.5 8.5h-37q-7 0 -8 4t-1 12q0 9 2.5 11.5t8.5 2.5q2 0 14.5 -0.5t28.5 -1.5t30.5 -1.5t21.5 -0.5
q6 0 18 0.5t26 1.5t26.5 1.5t18.5 0.5q2 0 8 -6q88 -99 209.5 -239t289.5 -312q2 35 3.5 83t3 99t2.5 100t1 86q0 57 -7.5 89t-22.5 47.5t-38.5 19t-56.5 3.5q-8 0 -10.5 4t-2.5 10q0 16 11 16q6 0 25.5 -0.5t42.5 -1.5t44.5 -1.5t32.5 -0.5q8 0 29 0.5t42.5 1.5t39.5 1.5
t20 0.5q5 0 6.5 -4t1.5 -9q0 -11 -2.5 -14t-6.5 -3q-30 0 -49.5 -2.5t-31.5 -11.5t-18.5 -25.5t-11.5 -43.5q-2 -9 -3.5 -50t-3.5 -100t-4 -127.5t-3.5 -132.5t-2.5 -115t-1 -75q0 -10 -3.5 -12t-11.5 -2q-2 0 -12 10t-33 35.5t-62.5 69.5t-100.5 111t-146.5 160t-200.5 217
q-1 -65 -2 -129t-1 -129q0 -112 2 -175t2 -79q0 -25 18 -37t60 -12q19 0 29.5 -1t15 -3t5.5 -4.5t1 -6.5q0 -9 -2 -12t-8 -3q-3 0 -7.5 0.5t-18 0.5t-39.5 0.5t-72 0.5q-42 0 -66.5 -0.5t-37.5 -0.5t-17.5 -0.5t-7.5 -0.5q-8 0 -9 5t-1 14zM387 -124q0 20 14.5 33.5
t37.5 13.5q35 0 50.5 -25t15.5 -56q0 -16 -6 -33.5t-18 -34.5t-30 -32.5t-43 -27.5q-5 1 -9 4.5t-4 8.5q0 8 6 12q10 7 20 15.5t18.5 19t14 21.5t5.5 23q0 5 -2 10t-9 5q-6 0 -10 -1t-12 -1q-23 0 -31 14.5t-8 30.5z" />
    <glyph glyph-name="ncommaaccent" unicode="&#x146;" horiz-adv-x="556" 
d="M174 93q0 -21 1 -34.5t5.5 -21t13.5 -10.5t26 -3q20 0 24.5 -2t4.5 -11q0 -5 -1 -9t-9 -4q-2 0 -6 0.5t-13.5 0.5t-26 0.5t-42.5 0.5q-35 0 -58.5 -0.5t-38.5 -0.5t-23.5 -0.5t-14.5 -0.5t-7 3.5t-1 7.5q0 10 5 12.5t33 2.5q20 0 28 6.5t13 17.5q1 3 2.5 17t2 34.5
t1 44.5t0.5 48v137q0 26 -10.5 41t-48.5 19q-6 1 -7.5 4t-1.5 8q0 12 8 14q43 9 68.5 17.5t40 15.5t20.5 11.5t11 4.5q3 0 3 -11q0 -5 -1 -22t-1 -50q39 26 77.5 47.5t79.5 21.5q13 0 35 -3.5t43.5 -18t37.5 -44.5t16 -84v-240q0 -6 1.5 -12.5t8 -12t19.5 -8.5t36 -3
q8 0 9 -4t1 -9t-1.5 -9t-12.5 -4t-21 0.5t-21 0.5t-25 0.5t-34 0.5q-30 0 -49.5 -0.5t-30.5 -0.5t-16.5 -0.5t-8.5 -0.5q-5 0 -6 4t-1 8t2.5 9t11.5 5q36 0 46.5 6t10.5 31v179q0 35 -3 63.5t-14 49t-33.5 31.5t-61.5 11q-14 0 -30.5 -5.5t-30.5 -13t-24 -15.5t-11 -12v-256
zM230 -124q0 20 14.5 33.5t37.5 13.5q35 0 50.5 -25t15.5 -56q0 -16 -6 -33.5t-18 -34.5t-30 -32.5t-43 -27.5q-5 1 -9 4.5t-4 8.5q0 8 6 12q10 7 20 15.5t18.5 19t14 21.5t5.5 23q0 5 -2 10t-9 5q-6 0 -10 -1t-12 -1q-23 0 -31 14.5t-8 30.5z" />
    <glyph glyph-name="Ncaron" unicode="&#x147;" horiz-adv-x="870" 
d="M10 17q0 3 5.5 5.5t12.5 3.5t14.5 1.5t12.5 0.5q9 0 20 1.5t21.5 6t17.5 13t9 23.5q0 7 2 45t4.5 102.5t4 153t1.5 197.5v26.5t-2 16.5q-3 7 -13 18.5t-23 23t-25.5 20t-20.5 8.5h-37q-7 0 -8 4t-1 12q0 9 2.5 11.5t8.5 2.5q2 0 14.5 -0.5t28.5 -1.5t30.5 -1.5t21.5 -0.5
q6 0 18 0.5t26 1.5t26.5 1.5t18.5 0.5q2 0 8 -6q88 -99 209.5 -239t289.5 -312q2 35 3.5 83t3 99t2.5 100t1 86q0 57 -7.5 89t-22.5 47.5t-38.5 19t-56.5 3.5q-8 0 -10.5 4t-2.5 10q0 16 11 16q6 0 25.5 -0.5t42.5 -1.5t44.5 -1.5t32.5 -0.5q8 0 29 0.5t42.5 1.5t39.5 1.5
t20 0.5q5 0 6.5 -4t1.5 -9q0 -11 -2.5 -14t-6.5 -3q-30 0 -49.5 -2.5t-31.5 -11.5t-18.5 -25.5t-11.5 -43.5q-2 -9 -3.5 -50t-3.5 -100t-4 -127.5t-3.5 -132.5t-2.5 -115t-1 -75q0 -10 -3.5 -12t-11.5 -2q-2 0 -12 10t-33 35.5t-62.5 69.5t-100.5 111t-146.5 160t-200.5 217
q-1 -65 -2 -129t-1 -129q0 -112 2 -175t2 -79q0 -25 18 -37t60 -12q19 0 29.5 -1t15 -3t5.5 -4.5t1 -6.5q0 -9 -2 -12t-8 -3q-3 0 -7.5 0.5t-18 0.5t-39.5 0.5t-72 0.5q-42 0 -66.5 -0.5t-37.5 -0.5t-17.5 -0.5t-7.5 -0.5q-8 0 -9 5t-1 14zM560 977h34l-124 -166h-62
l-124 166h33l122 -103z" />
    <glyph glyph-name="ncaron" unicode="&#x148;" horiz-adv-x="556" 
d="M174 93q0 -21 1 -34.5t5.5 -21t13.5 -10.5t26 -3q20 0 24.5 -2t4.5 -11q0 -5 -1 -9t-9 -4q-2 0 -6 0.5t-13.5 0.5t-26 0.5t-42.5 0.5q-35 0 -58.5 -0.5t-38.5 -0.5t-23.5 -0.5t-14.5 -0.5t-7 3.5t-1 7.5q0 10 5 12.5t33 2.5q20 0 28 6.5t13 17.5q1 3 2.5 17t2 34.5
t1 44.5t0.5 48v137q0 26 -10.5 41t-48.5 19q-6 1 -7.5 4t-1.5 8q0 12 8 14q43 9 68.5 17.5t40 15.5t20.5 11.5t11 4.5q3 0 3 -11q0 -5 -1 -22t-1 -50q39 26 77.5 47.5t79.5 21.5q13 0 35 -3.5t43.5 -18t37.5 -44.5t16 -84v-240q0 -6 1.5 -12.5t8 -12t19.5 -8.5t36 -3
q8 0 9 -4t1 -9t-1.5 -9t-12.5 -4t-21 0.5t-21 0.5t-25 0.5t-34 0.5q-30 0 -49.5 -0.5t-30.5 -0.5t-16.5 -0.5t-8.5 -0.5q-5 0 -6 4t-1 8t2.5 9t11.5 5q36 0 46.5 6t10.5 31v179q0 35 -3 63.5t-14 49t-33.5 31.5t-61.5 11q-14 0 -30.5 -5.5t-30.5 -13t-24 -15.5t-11 -12v-256
zM393 697h34l-124 -166h-62l-124 166h33l122 -103z" />
    <glyph glyph-name="napostrophe" unicode="&#x149;" horiz-adv-x="556" 
d="M174 93q0 -21 1 -34.5t5.5 -21t13.5 -10.5t26 -3q20 0 24.5 -2t4.5 -11q0 -5 -1 -9t-9 -4q-2 0 -6 0.5t-13.5 0.5t-26 0.5t-42.5 0.5q-35 0 -58.5 -0.5t-38.5 -0.5t-23.5 -0.5t-14.5 -0.5t-7 3.5t-1 7.5q0 10 5 12.5t33 2.5q20 0 28 6.5t13 17.5q1 3 2.5 17t2 34.5
t1 44.5t0.5 48v137q0 26 -10.5 41t-48.5 19q-6 1 -7.5 4t-1.5 8q0 12 8 14q43 9 68.5 17.5t40 15.5t20.5 11.5t11 4.5q3 0 3 -11q0 -5 -1 -22t-1 -50q39 26 77.5 47.5t79.5 21.5q13 0 35 -3.5t43.5 -18t37.5 -44.5t16 -84v-240q0 -6 1.5 -12.5t8 -12t19.5 -8.5t36 -3
q8 0 9 -4t1 -9t-1.5 -9t-12.5 -4t-21 0.5t-21 0.5t-25 0.5t-34 0.5q-30 0 -49.5 -0.5t-30.5 -0.5t-16.5 -0.5t-8.5 -0.5q-5 0 -6 4t-1 8t2.5 9t11.5 5q36 0 46.5 6t10.5 31v179q0 35 -3 63.5t-14 49t-33.5 31.5t-61.5 11q-14 0 -30.5 -5.5t-30.5 -13t-24 -15.5t-11 -12v-256
zM-70 524l20 135q7 45 43 45q11 0 22 -5.5t11 -19.5q0 -12 -16 -47t-56 -108h-24z" />
    <glyph glyph-name="Eng" unicode="&#x14a;" horiz-adv-x="870" 
d="M737 120q0 -109 -37 -186.5t-129 -120.5q-26 -12 -44 -16.5t-35 -4.5q-40 0 -57.5 20.5t-17.5 46.5q0 20 14.5 39t44.5 19q18 0 33 -9t28.5 -19.5t25.5 -19.5t25 -9q12 0 25.5 6t24.5 23.5t18.5 49.5t7.5 83v29q-27 29 -69 75t-103 111.5t-141.5 152.5t-184.5 199
q-1 -65 -2 -129t-1 -129q0 -112 2 -175t2 -79q0 -25 18 -37t60 -12q19 0 29.5 -1t15 -3t5.5 -4.5t1 -6.5q0 -9 -2 -12t-8 -3q-3 0 -7.5 0.5t-18 0.5t-39.5 0.5t-72 0.5q-42 0 -66.5 -0.5t-37.5 -0.5t-17.5 -0.5t-7.5 -0.5q-8 0 -9 5t-1 14q0 3 5.5 5.5t12.5 3.5t14.5 1.5
t12.5 0.5q9 0 20 1.5t21.5 6t17.5 13t9 23.5q0 7 2 45t4.5 102.5t4 153t1.5 197.5v26.5t-2 16.5q-3 7 -13 18.5t-23 23t-25.5 20t-20.5 8.5h-37q-7 0 -8 4t-1 12q0 9 2.5 11.5t8.5 2.5q2 0 14.5 -0.5t28.5 -1.5t30.5 -1.5t21.5 -0.5q6 0 18 0.5t26 1.5t26.5 1.5t18.5 0.5
q2 0 8 -6q88 -99 209.5 -239t289.5 -312q2 35 3.5 83t3 99t2.5 100t1 86q0 57 -7.5 89t-22.5 47.5t-38.5 19t-56.5 3.5q-8 0 -10.5 4t-2.5 10q0 16 11 16q6 0 25.5 -0.5t42.5 -1.5t44.5 -1.5t32.5 -0.5q8 0 29 0.5t42.5 1.5t39.5 1.5t20 0.5q5 0 6.5 -4t1.5 -9
q0 -11 -2.5 -14t-6.5 -3q-30 0 -49.5 -2.5t-31.5 -11.5t-18.5 -25.5t-11.5 -43.5q-2 -9 -3.5 -41t-3.5 -77.5t-4 -99t-3 -104t-2 -92.5t-1 -66z" />
    <glyph glyph-name="eng" unicode="&#x14b;" horiz-adv-x="556" 
d="M463 120q0 -54 -9.5 -103.5t-29.5 -90t-50.5 -70.5t-72.5 -47q-23 -10 -39.5 -13.5t-32.5 -3.5q-36 0 -52 16.5t-16 36.5q0 16 13 30.5t41 14.5q16 0 30 -7t26 -15.5t23 -15.5t23 -7q11 0 22.5 8t21 28t15.5 55.5t6 90.5v213q0 35 -3 63.5t-14 49t-33.5 31.5t-61.5 11
q-14 0 -30.5 -5.5t-30.5 -13t-24 -15.5t-11 -12v-256q0 -21 1 -34.5t5.5 -21t13.5 -10.5t26 -3q20 0 24.5 -2t4.5 -11q0 -5 -1 -9t-9 -4q-2 0 -6 0.5t-13.5 0.5t-26 0.5t-42.5 0.5q-35 0 -58.5 -0.5t-38.5 -0.5t-23.5 -0.5t-14.5 -0.5t-7 3.5t-1 7.5q0 10 5 12.5t33 2.5
q20 0 28 6.5t13 17.5q1 3 2.5 17t2 34.5t1 44.5t0.5 48v137q0 26 -10.5 41t-48.5 19q-6 1 -7.5 4t-1.5 8q0 12 8 14q43 9 68.5 17.5t40 15.5t20.5 11.5t11 4.5q3 0 3 -11q0 -5 -1 -22t-1 -50q39 26 77.5 47.5t79.5 21.5q13 0 35 -3.5t43.5 -18t37.5 -44.5t16 -84v-180z" />
    <glyph glyph-name="Omacron" unicode="&#x14c;" horiz-adv-x="833" 
d="M787 339q0 -52 -20 -113.5t-64.5 -115t-115 -89t-171.5 -35.5q-67 0 -120.5 16.5t-95 44t-70.5 63.5t-48 74.5t-27.5 77t-8.5 72.5q0 90 31 162t82.5 122.5t118 77t138.5 26.5q79 0 147 -24t118 -71.5t78 -119.5t28 -168zM668 354q0 54 -13.5 114t-43.5 110.5t-78 84
t-117 33.5q-58 0 -99.5 -19.5t-69.5 -51t-44 -70.5t-24.5 -77t-11 -71.5t-2.5 -53.5q0 -52 13.5 -111.5t43 -110.5t77.5 -85t117 -34q59 0 100.5 17t69.5 45t44.5 64t24.5 74t10.5 75t2.5 67zM277 851v52h276v-52h-276z" />
    <glyph glyph-name="omacron" unicode="&#x14d;" horiz-adv-x="537" 
d="M501 218q0 -53 -16.5 -95.5t-47.5 -73t-74 -47t-95 -16.5q-51 0 -94 17.5t-73.5 48.5t-47.5 73.5t-17 92.5q0 49 17.5 91.5t48.5 74t73.5 49t92.5 17.5t93 -17.5t74 -48t48.5 -73t17.5 -93.5zM406 218q0 37 -7 73.5t-23 66t-42.5 48t-65.5 18.5t-65.5 -18.5t-42 -48
t-22.5 -66t-7 -73.5q0 -32 5 -68t19.5 -67t41.5 -51t71 -20t71 20t42 51t20 67t5 68zM131 571v52h276v-52h-276z" />
    <glyph glyph-name="Obreve" unicode="&#x14e;" horiz-adv-x="833" 
d="M787 339q0 -52 -20 -113.5t-64.5 -115t-115 -89t-171.5 -35.5q-67 0 -120.5 16.5t-95 44t-70.5 63.5t-48 74.5t-27.5 77t-8.5 72.5q0 90 31 162t82.5 122.5t118 77t138.5 26.5q79 0 147 -24t118 -71.5t78 -119.5t28 -168zM668 354q0 54 -13.5 114t-43.5 110.5t-78 84
t-117 33.5q-58 0 -99.5 -19.5t-69.5 -51t-44 -70.5t-24.5 -77t-11 -71.5t-2.5 -53.5q0 -52 13.5 -111.5t43 -110.5t77.5 -85t117 -34q59 0 100.5 17t69.5 45t44.5 64t24.5 74t10.5 75t2.5 67zM556 970q-2 -33 -11.5 -61.5t-26.5 -49.5t-43 -33.5t-62 -12.5q-34 0 -60.5 12.5
t-44.5 33.5t-27 49.5t-7 61.5h30q10 -49 36.5 -70.5t77.5 -21.5q47 0 72 25t36 67h30z" />
    <glyph glyph-name="obreve" unicode="&#x14f;" horiz-adv-x="537" 
d="M501 218q0 -53 -16.5 -95.5t-47.5 -73t-74 -47t-95 -16.5q-51 0 -94 17.5t-73.5 48.5t-47.5 73.5t-17 92.5q0 49 17.5 91.5t48.5 74t73.5 49t92.5 17.5t93 -17.5t74 -48t48.5 -73t17.5 -93.5zM406 218q0 37 -7 73.5t-23 66t-42.5 48t-65.5 18.5t-65.5 -18.5t-42 -48
t-22.5 -66t-7 -73.5q0 -32 5 -68t19.5 -67t41.5 -51t71 -20t71 20t42 51t20 67t5 68zM410 690q-2 -33 -11.5 -61.5t-26.5 -49.5t-43 -33.5t-62 -12.5q-34 0 -60.5 12.5t-44.5 33.5t-27 49.5t-7 61.5h30q10 -49 36.5 -70.5t77.5 -21.5q47 0 72 25t36 67h30z" />
    <glyph glyph-name="Ohungarumlaut" unicode="&#x150;" horiz-adv-x="833" 
d="M787 339q0 -52 -20 -113.5t-64.5 -115t-115 -89t-171.5 -35.5q-67 0 -120.5 16.5t-95 44t-70.5 63.5t-48 74.5t-27.5 77t-8.5 72.5q0 90 31 162t82.5 122.5t118 77t138.5 26.5q79 0 147 -24t118 -71.5t78 -119.5t28 -168zM668 354q0 54 -13.5 114t-43.5 110.5t-78 84
t-117 33.5q-58 0 -99.5 -19.5t-69.5 -51t-44 -70.5t-24.5 -77t-11 -71.5t-2.5 -53.5q0 -52 13.5 -111.5t43 -110.5t77.5 -85t117 -34q59 0 100.5 17t69.5 45t44.5 64t24.5 74t10.5 75t2.5 67zM487 810l147 148q6 7 18.5 15t22.5 8q35 0 35 -37q0 -11 -10.5 -21.5
t-18.5 -15.5l-155 -97h-39zM318 810l147 148q6 7 18.5 15t22.5 8q35 0 35 -37q0 -11 -10.5 -21.5t-18.5 -15.5l-155 -97h-39z" />
    <glyph glyph-name="ohungarumlaut" unicode="&#x151;" horiz-adv-x="537" 
d="M501 218q0 -53 -16.5 -95.5t-47.5 -73t-74 -47t-95 -16.5q-51 0 -94 17.5t-73.5 48.5t-47.5 73.5t-17 92.5q0 49 17.5 91.5t48.5 74t73.5 49t92.5 17.5t93 -17.5t74 -48t48.5 -73t17.5 -93.5zM406 218q0 37 -7 73.5t-23 66t-42.5 48t-65.5 18.5t-65.5 -18.5t-42 -48
t-22.5 -66t-7 -73.5q0 -32 5 -68t19.5 -67t41.5 -51t71 -20t71 20t42 51t20 67t5 68zM327 530l147 148q6 7 18.5 15t22.5 8q35 0 35 -37q0 -11 -10.5 -21.5t-18.5 -15.5l-155 -97h-39zM158 530l147 148q6 7 18.5 15t22.5 8q35 0 35 -37q0 -11 -10.5 -21.5t-18.5 -15.5
l-155 -97h-39z" />
    <glyph glyph-name="OE" unicode="&#x152;" horiz-adv-x="1130" 
d="M914 342q0 -45 2.5 -72.5t2.5 -46.5q0 -5 -4 -6.5t-9 -1.5q-9 0 -11.5 3t-3.5 8q-6 40 -13 63t-21 34.5t-37 14t-59 2.5h-73v-258q0 -29 10.5 -40.5t38.5 -11.5h231q14 0 31 15.5t33.5 36t30.5 41t22 30.5q6 6 13 6q16 0 16 -7q0 -1 -4 -12.5t-10 -28.5t-13.5 -36.5
t-14.5 -36t-12.5 -27.5t-8.5 -11h-406q-36 0 -58.5 -0.5t-37.5 -1t-26 -2t-24 -3.5q-9 -1 -21 -2.5t-25.5 -2.5t-25.5 -1.5t-21 -0.5q-63 0 -114.5 17.5t-91.5 46t-69 65t-48 75t-28 76t-9 68.5q0 91 31 163t82.5 122t117.5 77t136 27q26 0 88 -7t144 -7q44 0 91.5 0.5
t93 1.5t85 1.5t66.5 0.5q17 0 26.5 -1t11.5 -7q20 -69 32 -102.5t12 -38.5q0 -7 -15 -7q-6 0 -12 5.5t-17 18t-30.5 32t-52.5 47.5q-11 10 -31.5 16.5t-60.5 6.5q-58 0 -89.5 -1t-46.5 -8t-17.5 -22t-2.5 -42v-240h67q40 0 63.5 7t35.5 16.5t15 18.5t4 13q4 28 7.5 43
t5.5 22t4 8t5 1q19 0 19 -7v-150zM589 560q0 26 -10 50t-31 42.5t-54 29.5t-80 11q-122 0 -185.5 -88.5t-63.5 -259.5q0 -78 20.5 -139.5t56 -103.5t82 -64t97.5 -22q21 0 50 5.5t55 20t44.5 38.5t18.5 62v418z" />
    <glyph glyph-name="oe" unicode="&#x153;" horiz-adv-x="796" 
d="M469 270q-2 -14 -3 -28.5t-1 -28.5q0 -24 10.5 -53t31 -54t51 -41.5t71.5 -16.5q35 0 64 12.5t53 47.5q5 6 8 11.5t7 5.5q5 0 10.5 -5t5.5 -7q0 -1 -8.5 -21t-28 -43.5t-53 -43t-82.5 -19.5q-61 1 -106.5 20t-74.5 52q-33 -29 -75 -50.5t-90 -21.5t-89 19t-71 51
t-46.5 74t-16.5 88q0 49 18 91.5t48.5 74t71 49t85.5 17.5q55 0 96.5 -21t75.5 -59q26 36 65.5 60t90.5 24q62 0 98 -23t54 -52.5t22.5 -58t4.5 -39.5q0 -8 -3 -9.5t-9 -1.5h-285zM641 300q15 0 24.5 6.5t9.5 26.5q0 29 -9 47.5t-22.5 29t-28.5 14.5t-28 4
q-27 0 -46.5 -10.5t-33 -28t-21 -41t-11.5 -48.5h166zM387 214q0 30 -4.5 67t-18.5 68.5t-39 53t-66 21.5t-66 -21.5t-39 -54t-18.5 -70t-4.5 -69.5t6 -67t20.5 -64t39 -47.5t62.5 -18.5q37 0 62 19t39.5 48t20.5 65t6 70z" />
    <glyph glyph-name="Racute" unicode="&#x154;" horiz-adv-x="704" 
d="M137 475v45.5t-0.5 34t-1 30t-0.5 31.5q0 22 -4 35.5t-14 20.5t-27.5 9t-44.5 2q-8 0 -9.5 5t-1.5 12q0 5 2 9t7 4q3 0 17 -0.5t34 -1.5t44 -1.5t48 -0.5q20 0 60.5 2t85.5 2q43 0 89 -8.5t83.5 -29t61.5 -56t24 -89.5q0 -36 -9.5 -63.5t-29.5 -49.5t-50.5 -40t-71.5 -34
q-4 -2 -7.5 -3.5t-3.5 -4.5q0 -2 9.5 -19.5t27.5 -46t44.5 -65.5t61.5 -79q27 -33 44 -52.5t31 -30t28.5 -14t37.5 -3.5q5 0 6 -3.5t1 -8.5q0 -15 -12 -15q-2 0 -4.5 0.5t-11 0.5t-24 0.5t-42.5 0.5q-23 0 -36 -0.5t-20.5 -0.5t-10 -0.5t-4.5 -0.5q-7 0 -10 1t-8 7
q-31 40 -59 82.5t-51.5 80t-42.5 66t-32 42.5q-15 15 -28 23.5t-25 12t-24.5 4t-27.5 0.5v-87v-35.5t0.5 -40.5l1 -42t1.5 -40q0 -10 2.5 -18t11 -14t25.5 -9t47 -3q21 0 24.5 -4.5t3.5 -12.5q0 -7 -1 -10t-7 -3q-3 0 -7 0.5t-19.5 0.5t-46.5 0.5t-86 0.5q-50 0 -77.5 -0.5
t-41 -0.5t-17.5 -0.5t-7 -0.5q-6 0 -7 3t-1 10q0 8 3.5 12.5t24.5 4.5q24 0 38 3t21 9t9.5 14t2.5 18q1 19 1.5 40l1 42t0.5 40.5v35.5v245zM318 347q45 0 76 14t50.5 37t28.5 54t9 65t-10.5 64.5t-32 53t-53.5 35.5t-75 13q-23 0 -37.5 -2t-23 -9t-11.5 -21t-3 -39v-265h82
zM242 810l147 148q6 7 18.5 15t22.5 8q35 0 35 -37q0 -11 -10.5 -21.5t-18.5 -15.5l-155 -97h-39z" />
    </font>
</defs>
</svg>
